<?xml version="1.0" encoding="utf-8"?>
<!-- Generator: Adobe Illustrator 28.2.0, SVG Export Plug-In . SVG Version: 6.00 Build 0)  -->
<svg version="1.1" id="Layer_1" xmlns="http://www.w3.org/2000/svg" xmlns:xlink="http://www.w3.org/1999/xlink" x="0px" y="0px"
	 viewBox="0 0 190 130" style="enable-background:new 0 0 190 130;" xml:space="preserve">
<style type="text/css">
	.st0{fill:#05283A;}
</style>
<g>
	<polygon class="st0" points="26.7,82.8 35.6,73.9 17.8,73.9 	"/>
	<polygon class="st0" points="26.7,47.2 0,73.9 8.9,82.8 26.7,65 44.5,82.8 53.3,73.9 	"/>
	<polygon class="st0" points="154.4,47.2 154.4,59.1 166.2,59.1 166.2,82.8 178.1,82.8 178.1,59.1 190,59.1 190,47.2 	"/>
	<polygon class="st0" points="71.2,70.9 71.2,47.2 59.3,47.2 59.3,82.8 94.9,82.8 94.9,70.9 	"/>
	<polygon class="st0" points="128,82.8 136.9,73.9 119.1,73.9 	"/>
	<polygon class="st0" points="128,47.2 101.4,73.9 110.2,82.8 128,65 145.8,82.8 154.7,73.9 	"/>
</g>
</svg>
