<?xml version="1.0" encoding="utf-8"?>
<!-- Generator: Adobe Illustrator 28.0.0, SVG Export Plug-In . SVG Version: 6.00 Build 0)  -->
<svg version="1.1" id="Layer_1" xmlns="http://www.w3.org/2000/svg" xmlns:xlink="http://www.w3.org/1999/xlink" x="0px" y="0px"
	 viewBox="0 0 1000 1000" style="enable-background:new 0 0 1000 1000;" xml:space="preserve">
<style type="text/css">
	.st0{fill:#101820;}
</style>
<g>
	<a xlink:href="91.1686274509804" >
		
			<rect id="fullLogo_00000088832061422804291110000009644960614877146515_" x="218.32" y="478.32" transform="matrix(0.7071 -0.7072 0.7072 0.7071 -277.5735 302.4325)" class="st0" width="15.84" height="15.84"/>
	</a>
	<a xlink:href="91.1686274509804" >
		<polygon id="fullLogo_00000008860088850213404960000016838725986174185095_" class="st0" points="213.95,636.11 204.33,626.49 
			193.13,637.69 204.33,648.89 213.95,639.27 223.57,648.89 234.77,637.69 223.57,626.49 		"/>
	</a>
	<a xlink:href="91.1686274509804" >
		<polygon id="fullLogo_00000004518388009794600030000010290311561139261118_" class="st0" points="232.7,363.89 242.31,373.51 
			253.51,362.31 242.31,351.11 232.7,360.73 223.08,351.11 211.88,362.31 223.08,373.51 		"/>
	</a>
	<path id="fullLogo_00000169526300808168040630000012172021308512454831_" class="st0" d="M282,436.82c6.57,0,10.71-2.19,13.63-5.84
		l3.71-13.61c2.27,3.63,4.03,7.35,5.05,10.44c-7.06,16.07-28.73,27.27-59.41,36.03v3.17h45.78c8.28-9.98,16.56-27.27,16.56-48.7
		c0-19.24-9.01-34.33-21.18-34.33c-12.66,0-21.18,15.1-21.18,31.41C264.96,427.56,271.05,436.82,282,436.82z M266.91,412.23
		c0-4.87,5.84-9.5,13.39-9.5c6.14,0,11.97,4.89,16.46,10.86c-3.87,2.78-9.41,4.24-15.98,4.24
		C272.75,417.83,266.91,415.15,266.91,412.23z"/>
	<a xlink:href="91.1686274509804" >
		
			<rect id="fullLogo_00000177455828384487007770000015613599606857872559_" x="394.36" y="392.86" transform="matrix(0.7071 -0.7071 0.7071 0.7071 -165.5698 401.8284)" class="st0" width="15.84" height="15.84"/>
	</a>
	<a xlink:href="91.1686274509804" >
		<polygon id="fullLogo_00000045582881632186370290000013666487663862185385_" class="st0" points="288.09,556.85 424.92,503.53 
			438.07,490.14 437.34,488.43 300.51,541.76 287.36,554.9 		"/>
	</a>
	<path id="fullLogo_00000023266398374619613250000015644272624285743254_" class="st0" d="M201.41,468.23
		c23.37,0,41.88-11.69,49.43-19.48c1.95-9.01,4.38-20.94,4.38-31.41c0-19.97-8.77-35.79-21.43-35.79
		c-12.42,0-20.94,15.1-20.94,31.65c0,11.93,6.09,21.18,17.04,21.18c6.33,0,10.71-2.19,13.64-5.84l3.69-13.53
		c2.4,3.87,4.23,7.76,5.32,10.61c-6.09,10.71-24.59,22.16-49.67,22.16c-22.89,0-28.49-13.15-28.49-23.86
		c0-11.69,4.14-22.64,4.14-22.64l-1.7-0.73c-5.11,10.71-6.82,23.13-6.82,34.09C170,449.23,176.57,468.23,201.41,468.23z
		 M228.68,415.39c-8.03,0-13.88-2.68-13.88-5.6c0-4.63,5.84-9.5,13.15-9.5c6.58,0,12.29,4.99,16.66,10.87
		C240.68,413.93,235.05,415.39,228.68,415.39z"/>
	<a xlink:href="91.1686274509804" >
		
			<rect id="fullLogo_00000000925429410879102340000011272681098955405247_" x="501.49" y="498.53" transform="matrix(0.7071 -0.7071 0.7071 0.7071 -208.9123 508.52)" class="st0" width="15.84" height="15.84"/>
	</a>
	<path id="fullLogo_00000011008895324295141520000011863360034668813236_" class="st0" d="M239.21,568.07
		c2.23-1.27,3.76-2.27,4.32-2.94l4.87-21.67c0-20.45-9.01-37.5-22.16-37.5c-11.93,0-19.72,15.34-19.72,30.92
		c0,11.2,5.6,19.72,15.58,19.72c6.82,0,11.44-2.92,14.12-7.3l2.91-10.62c2.42,4.09,4.24,8.5,5.37,12.32
		c-2.92,3.41-9.25,7.3-23.13,11.69l-1.22,0.97l-8.52,14.61l0.98,1.7c13.29,0.69,28.51,2.24,34.92,3.43
		c-4.87,3.84-22.44,12.88-41.26,12.88c-26.54,0-31.9-12.66-31.9-25.32c0-12.17,5.11-24.35,5.11-24.35l-1.7-0.73
		c-5.84,11.2-7.79,23.62-7.79,34.57c0,16.31,6.82,36.77,32.63,36.77c22.4,0,39.69-9.5,44.8-15.1c2.68-8.04,5.11-20.45,5.11-24.11
		C252.54,572.72,247.08,569.97,239.21,568.07z M221.62,539.08c-8.28,0-13.15-2.68-13.15-5.11c0-4.38,5.36-9.01,12.17-9.01
		c6.62,0,12.14,4.54,16.33,10.4C233.48,537.78,228.12,539.08,221.62,539.08z"/>
	<path id="fullLogo_00000005978423373258664830000003843847224371554444_" class="st0" d="M538.14,369.13v73.53
		c-1.7,0.49-6.33,1.22-10.71,1.22c-4.01,0-7.16-0.48-9.65-1.24c2.79-6.31,5.26-13.57,5.26-21.16c0-7.79-10.96-21.43-23.13-21.43
		c-19.51,0-40.67,28.33-52.67,42.37c-7-2.49-11-7.08-8.68-14.62l-1.7-0.49c-4.63,12.42-9.25,16.56-20.45,16.56
		c-13.15,0-14.12-11.2-12.17-22.89l-1.95-0.24c-4.14,19.24-8.03,23.13-16.31,23.13c-12.17,0-13.88-6.82-21.91-27.03
		c-9.25-23.13-13.64-32.63-16.07-37.74h-1.22l-7.06,17.77c4.38,7.55,15.1,29.22,15.58,35.3c-1.22,3.41-10.47,12.17-22.16,12.17
		c-9.25,0-14.37-3.9-14.37-12.42c0-2.68,0.49-6.57,1.22-9.25l-1.7-0.73c-1.22,2.19-3.89,10.47-3.89,21.18
		c0,10.96,3.41,21.18,15.34,21.18c8.52,0,16.07-3.41,20.45-8.52l7.29-22.92c5.28,22,11.97,30.46,24.85,30.46
		c3.9,0,7.06-1.22,9.5-3.41l6.57-18.99c0,15.58,7.79,22.4,16.56,22.4c4.63,0,8.76-0.97,11.69-3.17l6.82-18.75
		c0.97,11.69,8.03,22.89,28,22.89c23.37,0,45.29-7.3,51.86-12.42c0.01-0.01,0.01-0.02,0.02-0.04c3.28,7.48,9.46,11.48,16.05,11.48
		c4.14,0,8.03-1.22,10.96-3.17l11.2-35.3v-72.8h-1.95L538.14,369.13z M449.65,443.17c8.79-7.22,25.73-23.4,42.23-23.4
		c11.8,0,21.16,8.12,25.46,12.75c-7.18,4.3-27.07,12.32-52.73,12.32C459.16,444.85,453.99,444.33,449.65,443.17z"/>
	<a xlink:href="91.1686274509804" >
		<polygon id="fullLogo_00000070801646945369005070000018401953289470706052_" class="st0" points="577.59,352.09 566.14,369.13 
			566.14,463.36 568.09,463.36 579.54,424.89 579.54,352.09 		"/>
	</a>
	<a xlink:href="91.1686274509804" >
		<polygon id="fullLogo_00000169519512608827733990000006389632201554342047_" class="st0" points="566.14,501.34 566.14,595.57 
			568.09,595.57 579.54,557.1 579.54,484.29 577.59,484.29 		"/>
	</a>
	<path id="fullLogo_00000158738374758050061030000012226255509216672934_" class="st0" d="M538.14,501.34v72.8
		c-1.7,0.73-6.82,1.95-11.69,1.95c-13.39,0-16.31-5.6-16.31-10.71c0-2.43,0.49-6.33,1.7-13.88l-2.19-0.24
		c-3.9,18.75-9.98,24.83-23.37,24.83c-3.92,0-8.25-0.51-12.68-1.44c4.56-6.38,6.35-12.9,6.35-22.42c0-12.17-6.82-23.62-16.07-23.62
		c-13.88,0-24.11,16.31-24.11,37.01c0,3.23,1.37,6.44,3.76,9.5c-29.77,4.03-62.43,5.83-97.25,5.83c-66.23,0-72.56-7.06-72.56-23.13
		v-73.53h-1.95l-11.44,17.04v60.14c0,28,17.53,38.96,84.73,38.96c43.58,0,77.91-3.65,99.83-9.25l6.48-8.84
		c6.83,8.41,17.69,13.22,28.09,13.22c7.06,0,13.15-1.46,16.56-3.41l8.03-18.26c-0.49,15.58,9.25,21.67,19.23,21.67
		c6.33,0,12.42-1.46,17.04-4.63l11.2-33.84v-72.8h-1.95L538.14,501.34z M458.04,547.6c9.5,0,17.04,12.17,18.5,17.04
		c-2.14,2.79-6.93,5.57-12.2,7.36c-8.65-3.09-16.79-7.88-21.89-14.42C444.16,554.42,448.79,547.6,458.04,547.6z"/>
	<a xlink:href="91.1686274509804" >
		<polygon id="fullLogo_00000100354215013775947120000014803043310605110146_" class="st0" points="461.81,511.69 471.43,521.3 
			482.63,510.1 471.43,498.9 461.81,508.52 452.2,498.9 440.99,510.1 452.2,521.3 		"/>
	</a>
	<a xlink:href="91.1686274509804" >
		<polygon id="fullLogo_00000162317119903718885140000015566024050834466449_" class="st0" points="499.43,540.54 509.29,530.68 
			519.15,540.54 530.35,529.34 519.15,518.14 509.29,528 499.43,518.14 488.23,529.34 		"/>
	</a>
	<path id="fullLogo_00000134968863953249868290000015747159374820586385_" class="st0" d="M621.17,352.09v243.48H830V352.09H621.17z
		 M761.18,442.89l-8.27,18.84l-8.04-2.07l6.43-19.99L744.4,436l-5.28,14.93l-7.12,3.68l2.2,10.93l-3.12,8.29l3.12,7.05l-3.35,10.32
		l1.66,6.63c13.46-8.22,22.64-9.84,31.66-9.84c7.81,0,20.68,5.05,28.03,11.49v1.38c-9.65-2.07-17.23-2.99-22.75-2.99
		c-11.57,0-21.12,4.05-33.07,11.99l20.89,15.58l3.45-0.92l2.76-8.04h6.89c1.38,3.45,2.3,7.35,2.3,11.26l-6.89,4.14l13.1,13.1
		l1.15-8.73h6.89c3.22,4.14,5.05,9.19,5.28,14.02l-9.65,6.43h-6.89l-18.38-17l-3.45,0.69l-2.07,8.04c-1.61,0.46-4.6,0.46-6.89,0
		l-2.3-11.26l5.28-3.22l-13.56-10.34c-1.76-1.34-3.45-2.63-5.09-3.86l2.98-6.21l-0.47-0.5c0,0-11.23,8.32-14.19,10.57l-13.56,10.34
		l5.28,3.22l-2.3,11.26c-2.3,0.46-5.28,0.46-6.89,0l-2.07-8.04l-3.45-0.69l-18.38,17h-6.89l-9.65-6.43
		c0.23-4.82,2.07-9.88,5.28-14.02h6.89l1.15,8.73l13.1-13.1l-6.89-4.14c-0.69-3.91,0.23-7.81,2.3-11.26h6.89l2.76,8.04l3.45,0.92
		l20.89-15.58c-11.95-7.94-21.5-11.99-33.07-11.99c-5.51,0-13.1,0.92-22.75,2.99v-1.38c7.35-6.43,20.22-11.49,28.03-11.49
		c8.87,0,17.89,1.57,30.99,9.44l1.64-6.22l-2.66-10.32l2.89-7.05l-2.89-8.29l2.89-10.93l-8.73-3.68L706.49,436l-6.89,3.68l6.2,19.99
		l-8.04,2.07l-8.27-18.84l-6.89,3.45l4.83,17.69l-6.89,5.97l-6.43-16.77h-1.15l-5.28,21.14l-8.04,5.05
		c0-35.61,27.11-49.63,56.06-55.83l-6.89-7.81l-14.25,10.34l-6.89-5.28l13.33-13.79l-6.89-5.97l-14.02,16.08l-5.05-6.66l8.5-12.18
		l-0.46-0.69l-18.15,6.2l-5.28-4.37c8.96-5.74,17.46-8.5,25.27-8.5c15.16,0,28.49,8.5,40.44,24.81
		c11.95-16.54,24.58-24.81,39.29-24.81c8.27,0,19.07,2.99,27.34,8.96l-5.97,3.91l-18.38-5.97l-0.46,0.69l8.5,11.95l-5.05,6.66
		l-13.79-16.08l-6.89,5.97l13.1,13.79l-6.89,5.28l-13.79-10.34l-6.89,7.81c25.5,6.2,56.75,20.22,56.75,55.83l-8.96-5.05l-5.28-21.14
		h-1.15l-6.43,16.77l-6.89-5.97l4.6-17.69L761.18,442.89z"/>
</g>
</svg>
