<?xml version="1.0" encoding="utf-8"?>
<!-- Generator: Adobe Illustrator 28.2.0, SVG Export Plug-In . SVG Version: 6.00 Build 0)  -->
<svg version="1.1" id="Layer_1" xmlns="http://www.w3.org/2000/svg" xmlns:xlink="http://www.w3.org/1999/xlink" x="0px" y="0px"
	 viewBox="0 0 190 130" style="enable-background:new 0 0 190 130;" xml:space="preserve">
<style type="text/css">
	.st0{fill:#532B15;}
	.st1{fill:#69C180;}
	.st2{clip-path:url(#SVGID_00000051368401851233458550000003689830782241927613_);}
	.st3{fill:#009E85;}
	.st4{fill:#69C080;}
	.st5{clip-path:url(#SVGID_00000026136991618173771270000013626657697253197995_);}
	.st6{clip-path:url(#SVGID_00000055672941600361043650000006446367113577488558_);}
	.st7{clip-path:url(#SVGID_00000053538892931506893690000014177410477583830446_);fill:#EF4F4B;}
	.st8{clip-path:url(#SVGID_00000053538892931506893690000014177410477583830446_);}
	.st9{fill:#C22527;}
	.st10{clip-path:url(#SVGID_00000181067119314057180310000011502661316501502086_);fill:#EF4F4B;}
	.st11{clip-path:url(#SVGID_00000181067119314057180310000011502661316501502086_);}
	.st12{clip-path:url(#SVGID_00000102503219423683717320000007882721995518004922_);fill:#EF4F4B;}
	.st13{clip-path:url(#SVGID_00000102503219423683717320000007882721995518004922_);}
	.st14{clip-path:url(#SVGID_00000043426135008698425010000000319423832872293765_);fill:#EF4F4B;}
	.st15{clip-path:url(#SVGID_00000043426135008698425010000000319423832872293765_);}
	.st16{fill:none;}
	.st17{fill:#F37C20;}
	.st18{clip-path:url(#SVGID_00000125578803590145819950000013879859203334165143_);}
	.st19{clip-path:url(#SVGID_00000061462260339911899100000006636057839916399263_);}
	.st20{fill:#B56227;}
	.st21{fill:#F47C20;}
	.st22{clip-path:url(#SVGID_00000097472388698107905850000004427870194557024680_);}
	.st23{clip-path:url(#SVGID_00000097496783246436450670000016442168439752122296_);}
	.st24{fill:#278ECD;}
	.st25{fill:#2890CF;}
	.st26{fill:#00648F;}
	.st27{clip-path:url(#SVGID_00000093887187838882178920000017985122332068415115_);}
	.st28{clip-path:url(#SVGID_00000078763438020615096300000008411586012584420286_);}
	.st29{clip-path:url(#SVGID_00000047778255235806230790000007313040027954725770_);}
	.st30{clip-path:url(#SVGID_00000152945862613687081980000012652368838322677163_);}
</style>
<g>
	<path class="st0" d="M51.5,65.4l-5.8-5.6c-0.5-0.5-0.5-1.3,0-1.8l5.5-5.6c0.4-0.4,1.1-0.4,1.6,0l5.7,5.7c0.5,0.5,0.5,1.3,0,1.8
		L53,65.3C52.6,65.8,51.9,65.8,51.5,65.4"/>
	<path class="st0" d="M91.5,46.5h5.5c0.9,0,1.7,0.8,1.7,1.8v34.2c0,1-0.7,1.8-1.7,1.8h-5.5c-0.9,0-1.7-0.8-1.7-1.8V48.2
		C89.8,47.3,90.5,46.5,91.5,46.5"/>
	<path class="st0" d="M107.2,83.1l-1-5.5c-0.2-0.9,0.5-1.7,1.3-1.7h17.8c-0.4-0.8-0.9-1.8-1.7-2.9c-0.8-1.1-1.8-2.3-3-3.7
		c-0.7-0.7-1.4-1.5-2.2-2.3c-1.1-1-1.2-2.9-0.3-4.1l3.4-4.3c0.9-1.1,2.4-1.1,3.3,0c2,2.4,3.7,4.7,5,7c1.7,2.8,2.8,5.8,3.3,8.8
		c0.4,2.5,0.4,5.1-0.1,8c-0.2,1.1-1.1,1.9-2.2,1.9h-22.3C107.8,84.2,107.3,83.7,107.2,83.1"/>
	<path class="st0" d="M15,82.8l-0.9-4.9c-0.2-1,0.6-2,1.6-2h59.8c-0.4-0.8-1-1.8-1.8-2.9c-0.8-1.1-1.8-2.3-3-3.7
		c-0.7-0.7-1.4-1.5-2.2-2.3c-1.1-1-1.2-2.9-0.3-4.1l3.4-4.3c0.9-1.1,2.3-1.1,3.2-0.1c2,2.4,3.7,4.7,5.1,7c1.7,2.8,2.8,5.8,3.3,8.8
		c0.4,2.5,0.4,5.1-0.1,8c-0.2,1.1-1.1,1.9-2.2,1.9H16.5C15.8,84.2,15.1,83.6,15,82.8"/>
	<path class="st0" d="M57.4,98.6c0-5,4.2-9,9.3-9H73c12.5,0,21.2,8.3,21.2,19.2v0.1c0,10.9-8.7,19.3-21.2,19.3H59.2
		c-1,0-1.7-0.8-1.7-1.7V98.6z M73,120.5c7.2,0,12-4.7,12-11.5v-0.1c0-6.8-4.8-11.6-12-11.6h-5c-1,0-1.7,0.8-1.7,1.7v19.9
		c0,0.9,0.8,1.7,1.7,1.7H73z"/>
	<path class="st0" d="M116.7,89.3L116.7,89.3c0.7,0,1.3,0.4,1.6,1l15.6,35.5c0.5,1.1-0.4,2.3-1.6,2.3h-5.4c-0.7,0-1.3-0.4-1.6-1
		l-2.8-6.6c-0.3-0.6-0.9-1-1.6-1h-14.5c-0.7,0-1.3,0.4-1.6,1l-2.8,6.6c-0.3,0.6-0.9,1-1.6,1h-5.2c-1.2,0-2.1-1.2-1.6-2.3L107,95.5
		C108.7,91.7,112.5,89.3,116.7,89.3 M118,109.7l-2.7-6.4c-0.6-1.4-2.6-1.4-3.2,0l-2.7,6.4c-0.5,1.1,0.4,2.3,1.6,2.3h5.4
		C117.6,112,118.5,110.8,118,109.7"/>
	<path class="st0" d="M145,89.6L145,89.6c0.5,0,1.1,0.2,1.4,0.7l17.9,19.1c1,1.3,3.1,0.6,3.1-1V91.2c0-0.9,0.8-1.7,1.7-1.7h5.2
		c1,0,1.7,0.8,1.7,1.7v30.5c0,3.5-3,6.4-6.6,6.4c-0.5,0-1.1-0.2-1.4-0.7l-18.5-19.9c-1-1.3-3.1-0.6-3.1,1v17.9
		c0,0.9-0.8,1.7-1.7,1.7h-5.2c-1,0-1.7-0.8-1.7-1.7V96.6C137.8,92.7,141,89.6,145,89.6"/>
	<path class="st1" d="M133.4,23.7l-1,0.7c-7,4.8-13.1,10.6-18.3,17.3l-0.3,0.4l0,0c-5.2-6.9-11.5-12.9-18.7-17.8l-0.9-0.6
		c8.7,0,16.2,3,19.6,10C117.1,26.7,124.6,23.7,133.4,23.7z"/>
	<g>
		<defs>
			<path id="SVGID_1_" d="M133.4,23.7l-1,0.7c-7,4.8-13.1,10.6-18.3,17.3l-0.3,0.4l0,0c-5.2-6.9-11.5-12.9-18.7-17.8l-0.9-0.6
				c8.7,0,16.2,3,19.6,10C117.1,26.7,124.6,23.7,133.4,23.7z"/>
		</defs>
		<clipPath id="SVGID_00000168083506484409318920000003609928707206420114_">
			<use xlink:href="#SVGID_1_"  style="overflow:visible;"/>
		</clipPath>
		<g style="clip-path:url(#SVGID_00000168083506484409318920000003609928707206420114_);">
			<path class="st3" d="M113.7,46.4l-0.4-0.5c-5.2-6.9-11.4-12.8-18.5-17.7l-0.2-0.1l-1.1-4.4h0.6c8.4,0,15.9,7.1,19.6,14.1
				c3.7-7,11.1-14.1,19.6-14.1h0.6l-1.2,4.5l-0.1,0.1c-6.9,4.8-13,10.6-18.2,17.2L113.7,46.4z M95.5,27.6
				c6.9,4.8,13.1,10.6,18.2,17.3c5.1-6.7,11.3-12.5,18.2-17.3l0.8-2.9c-8.2,0.4-15.3,7.6-18.6,14.4l-0.4,0.9l-0.4-0.9
				c-3.3-6.8-10.4-14-18.5-14.4L95.5,27.6z"/>
		</g>
	</g>
	<path class="st4" d="M133.4,13.3l-1,0.7c-7,4.8-13.1,10.6-18.3,17.3l-0.3,0.4l0,0c-5.2-6.9-11.5-12.9-18.7-17.8l-0.9-0.6
		c8.7,0,16.2,3,19.6,10C117.1,16.4,124.6,13.3,133.4,13.3z"/>
	<g>
		<defs>
			<path id="SVGID_00000058588026989903998550000011701278547184331932_" d="M133.4,13.3l-1,0.7c-7,4.8-13.1,10.6-18.3,17.3
				l-0.3,0.4l0,0c-5.2-6.9-11.5-12.9-18.7-17.8l-0.9-0.6c8.7,0,16.2,3,19.6,10C117.1,16.4,124.6,13.3,133.4,13.3z"/>
		</defs>
		<clipPath id="SVGID_00000129890174200505848920000018109580886717558163_">
			<use xlink:href="#SVGID_00000058588026989903998550000011701278547184331932_"  style="overflow:visible;"/>
		</clipPath>
		<g style="clip-path:url(#SVGID_00000129890174200505848920000018109580886717558163_);">
			<path class="st3" d="M113.7,36.1l-0.4-0.5c-5.2-6.9-11.4-12.8-18.5-17.7l-0.2-0.1l-1.1-4.4h0.6c8.4,0,15.9,7.1,19.6,14.1
				c3.7-7,11.1-14.1,19.6-14.1h0.6l-1.2,4.5l-0.1,0.1c-6.9,4.8-13,10.5-18.2,17.2L113.7,36.1z M95.5,17.2
				c6.9,4.8,13.1,10.6,18.2,17.3c5.1-6.7,11.3-12.5,18.2-17.3l0.8-2.9c-8.2,0.4-15.3,7.6-18.6,14.4l-0.4,0.9l-0.4-0.9
				c-3.3-6.8-10.4-14-18.5-14.4L95.5,17.2z"/>
		</g>
	</g>
	<path class="st4" d="M133.4,2.8l-1,0.7c-7,4.8-13.1,10.6-18.3,17.3l-0.3,0.4l0,0c-5.2-6.9-11.5-12.9-18.7-17.8l-0.9-0.6
		c8.7,0,16.2,3,19.6,10C117.1,5.8,124.6,2.8,133.4,2.8z"/>
	<g>
		<defs>
			<path id="SVGID_00000055669677851882455140000015439868557811283898_" d="M133.4,2.8l-1,0.7c-7,4.8-13.1,10.6-18.3,17.3l-0.3,0.4
				l0,0c-5.2-6.9-11.5-12.9-18.7-17.8l-0.9-0.6c8.7,0,16.2,3,19.6,10C117.1,5.8,124.6,2.8,133.4,2.8z"/>
		</defs>
		<clipPath id="SVGID_00000148644311199730590010000005938348677115913133_">
			<use xlink:href="#SVGID_00000055669677851882455140000015439868557811283898_"  style="overflow:visible;"/>
		</clipPath>
		<g style="clip-path:url(#SVGID_00000148644311199730590010000005938348677115913133_);">
			<path class="st3" d="M113.7,25.6l-0.4-0.5c-5.2-6.9-11.4-12.8-18.5-17.7l-0.2-0.1l-1.1-4.4h0.6c8.4,0,15.9,7.1,19.6,14.1
				c3.7-7,11.1-14.1,19.6-14.1h0.6l-1.2,4.5l-0.1,0.1c-6.9,4.8-13,10.6-18.2,17.2L113.7,25.6z M95.5,6.7
				c6.9,4.8,13.1,10.6,18.2,17.3c5.1-6.7,11.3-12.5,18.2-17.3l0.8-2.9c-8.2,0.4-15.3,7.6-18.6,14.4l-0.4,0.9l-0.4-0.9
				c-3.3-6.8-10.4-14-18.5-14.4L95.5,6.7z"/>
		</g>
	</g>
	<g>
		<defs>
			<path id="SVGID_00000181056744333853910800000014330247718987973310_" d="M162.1,51.3c3.8-3.8,8.9-5.7,13.9-5.7
				c0.1,5-1.8,10.1-5.7,13.9s-8.9,5.7-13.9,5.7C156.4,60.2,158.3,55.2,162.1,51.3z"/>
		</defs>
		<clipPath id="SVGID_00000173851239716472308730000007269598589952124590_">
			<use xlink:href="#SVGID_00000181056744333853910800000014330247718987973310_"  style="overflow:visible;"/>
		</clipPath>
		<path style="clip-path:url(#SVGID_00000173851239716472308730000007269598589952124590_);fill:#EF4F4B;" d="M162.1,51.3
			c3.8-3.8,8.9-5.7,13.9-5.7c0.1,5-1.8,10.1-5.7,13.9s-8.9,5.7-13.9,5.7C156.4,60.2,158.3,55.2,162.1,51.3z"/>
		<g style="clip-path:url(#SVGID_00000173851239716472308730000007269598589952124590_);">
			<path class="st9" d="M160.2,62.4c-0.1,0-0.2,0-0.4,0l-0.5,0l0-0.5c-0.1-8.1,3-15.8,8.8-21.5l0,0c5.7-5.7,13.2-8.8,21.2-8.8
				c0.1,0,0.2,0,0.4,0l0.5,0l0,0.5c0.1,8.1-3,15.8-8.8,21.5C175.7,59.3,168.2,62.4,160.2,62.4z M168.8,41.1L168.8,41.1
				c-5.4,5.4-8.4,12.7-8.5,20.4c7.7,0,14.9-3,20.4-8.5c5.4-5.4,8.4-12.7,8.5-20.4C181.5,32.6,174.3,35.6,168.8,41.1z"/>
		</g>
		<g style="clip-path:url(#SVGID_00000173851239716472308730000007269598589952124590_);">
			<path class="st9" d="M164.7,57.7c-0.1,0-0.2,0-0.3,0l-0.5,0l0-0.5c-0.1-5.8,2.2-11.3,6.3-15.4l0,0c0,0,0,0,0,0
				c4-4.1,9.4-6.3,15.2-6.3c0.1,0,0.2,0,0.3,0l0.5,0l0,0.5c0.1,5.8-2.2,11.3-6.3,15.4C175.8,55.5,170.5,57.7,164.7,57.7z
				 M185.2,36.5c-5.4,0.1-10.4,2.2-14.3,6l0,0c-3.8,3.8-5.9,8.9-6,14.3c5.4-0.1,10.4-2.2,14.3-6C183,46.9,185.2,41.9,185.2,36.5z"/>
		</g>
		<g style="clip-path:url(#SVGID_00000173851239716472308730000007269598589952124590_);">
			<path class="st9" d="M170.2,52.1c-0.1,0-0.2,0-0.3,0l-0.5,0l0-0.5c-0.1-5.8,2.2-11.3,6.3-15.4l0,0c4.1-4.1,9.6-6.3,15.4-6.3
				l0.5,0l0,0.5c0.1,5.8-2.2,11.3-6.3,15.4C181.3,49.9,176,52.1,170.2,52.1z M176.4,36.9c-3.8,3.8-5.9,8.9-6,14.3
				c5.4-0.1,10.4-2.2,14.3-6c3.8-3.8,5.9-8.9,6-14.3C185.3,31,180.3,33.1,176.4,36.9L176.4,36.9z"/>
		</g>
	</g>
	<g>
		<defs>
			<path id="SVGID_00000033344169899116419200000005359689956154590858_" d="M170.4,70.3c3.8,3.8,5.7,8.9,5.7,13.9
				c-5,0.1-10.1-1.8-13.9-5.7c-3.8-3.8-5.7-8.9-5.7-13.9C161.5,64.6,166.5,66.5,170.4,70.3z"/>
		</defs>
		<clipPath id="SVGID_00000117678393830215242410000009949613978018230412_">
			<use xlink:href="#SVGID_00000033344169899116419200000005359689956154590858_"  style="overflow:visible;"/>
		</clipPath>
		<path style="clip-path:url(#SVGID_00000117678393830215242410000009949613978018230412_);fill:#EF4F4B;" d="M170.4,70.3
			c3.8,3.8,5.7,8.9,5.7,13.9c-5,0.1-10.1-1.8-13.9-5.7c-3.8-3.8-5.7-8.9-5.7-13.9C161.5,64.6,166.5,66.5,170.4,70.3z"/>
		<g style="clip-path:url(#SVGID_00000117678393830215242410000009949613978018230412_);">
			<path class="st9" d="M189.2,98.3c-8,0-15.5-3.1-21.2-8.8c-5.7-5.7-8.8-13.4-8.8-21.5l0-0.5l0.5,0c8.1-0.1,15.8,3,21.5,8.7l0,0
				c5.7,5.7,8.8,13.4,8.8,21.5l0,0.5l-0.5,0C189.4,98.3,189.3,98.3,189.2,98.3z M160.3,68.6c0,7.7,3,14.9,8.5,20.4
				c5.4,5.4,12.7,8.4,20.4,8.5c0-7.7-3-14.9-8.5-20.4C175.2,71.6,168,68.6,160.3,68.6z"/>
		</g>
		<g style="clip-path:url(#SVGID_00000117678393830215242410000009949613978018230412_);">
			<path class="st9" d="M185.4,94.4c-5.7,0-11.1-2.2-15.2-6.3c-4.1-4.1-6.3-9.6-6.3-15.4l0-0.5l0.5,0c0.1,0,0.2,0,0.3,0
				c5.7,0,11.1,2.2,15.2,6.3l0,0c4.1,4.1,6.3,9.6,6.3,15.4l0,0.5l-0.5,0C185.6,94.4,185.5,94.4,185.4,94.4z M164.9,73.2
				c0.1,5.4,2.2,10.4,6,14.3c3.8,3.8,8.9,5.9,14.3,6c-0.1-5.4-2.2-10.4-6-14.3C175.4,75.3,170.3,73.2,164.9,73.2z"/>
		</g>
		<g style="clip-path:url(#SVGID_00000117678393830215242410000009949613978018230412_);">
			<path class="st9" d="M191,99.9c-5.7,0-11.1-2.2-15.2-6.3c-4.1-4.1-6.3-9.6-6.3-15.4l0-0.5l0.5,0c5.8-0.1,11.3,2.2,15.4,6.3l0,0
				c4.1,4.1,6.3,9.6,6.3,15.4l0,0.5l-0.5,0C191.2,99.9,191.1,99.9,191,99.9z M170.5,78.6c0.1,5.4,2.2,10.4,6,14.3
				c3.8,3.8,8.9,5.9,14.3,6c-0.1-5.4-2.2-10.4-6-14.3C181,80.8,175.9,78.7,170.5,78.6z"/>
		</g>
	</g>
	<g>
		<defs>
			<path id="SVGID_00000062891735606698903060000001000679043239723156_" d="M151.6,78.5c-3.8,3.8-8.9,5.7-13.9,5.7
				c-0.1-5,1.8-10.1,5.7-13.9c3.8-3.8,8.9-5.7,13.9-5.7C157.3,69.7,155.4,74.7,151.6,78.5z"/>
		</defs>
		<clipPath id="SVGID_00000167381410503532520880000002121039490697399686_">
			<use xlink:href="#SVGID_00000062891735606698903060000001000679043239723156_"  style="overflow:visible;"/>
		</clipPath>
		<path style="clip-path:url(#SVGID_00000167381410503532520880000002121039490697399686_);fill:#EF4F4B;" d="M151.6,78.5
			c-3.8,3.8-8.9,5.7-13.9,5.7c-0.1-5,1.8-10.1,5.7-13.9c3.8-3.8,8.9-5.7,13.9-5.7C157.3,69.7,155.4,74.7,151.6,78.5z"/>
		<g style="clip-path:url(#SVGID_00000167381410503532520880000002121039490697399686_);">
			<path class="st9" d="M124.3,98.2c-0.1,0-0.2,0-0.4,0l-0.5,0l0-0.5c-0.1-8.1,3-15.8,8.8-21.5c5.7-5.7,13.2-8.8,21.2-8.8
				c0.1,0,0.2,0,0.4,0l0.5,0l0,0.5c0.1,8.1-3,15.8-8.8,21.5l0,0c0,0,0,0,0,0C139.8,95.1,132.3,98.2,124.3,98.2z M153.3,68.4
				c-7.7,0-14.9,3-20.4,8.5c-5.4,5.4-8.4,12.7-8.5,20.4c7.7,0,14.9-3,20.4-8.5l0,0C150.3,83.4,153.3,76.1,153.3,68.4z"/>
		</g>
		<g style="clip-path:url(#SVGID_00000167381410503532520880000002121039490697399686_);">
			<path class="st9" d="M128.2,94.3c-0.1,0-0.2,0-0.3,0l-0.5,0l0-0.5c-0.1-5.8,2.2-11.3,6.3-15.4c4-4.1,9.4-6.3,15.2-6.3
				c0.1,0,0.2,0,0.3,0l0.5,0l0,0.5c0.1,5.8-2.2,11.3-6.3,15.4l0,0C139.3,92.1,134,94.3,128.2,94.3z M148.7,73.1
				c-5.4,0.1-10.4,2.2-14.3,6c-3.8,3.8-5.9,8.9-6,14.3c5.4-0.1,10.4-2.2,14.3-6C146.5,83.6,148.6,78.5,148.7,73.1z"/>
		</g>
		<g style="clip-path:url(#SVGID_00000167381410503532520880000002121039490697399686_);">
			<path class="st9" d="M122.7,99.9c-0.1,0-0.2,0-0.3,0l-0.5,0l0-0.5c-0.1-5.8,2.2-11.3,6.3-15.4c4.1-4.1,9.4-6.3,15.2-6.3
				c0.1,0,0.2,0,0.3,0l0.5,0l0,0.5c0.1,5.8-2.2,11.3-6.3,15.4l0,0C133.8,97.7,128.5,99.9,122.7,99.9z M143.2,78.7
				c-5.4,0.1-10.4,2.2-14.3,6c-3.8,3.8-5.9,8.9-6,14.3c5.4-0.1,10.4-2.2,14.3-6C141,89.2,143.1,84.1,143.2,78.7z"/>
		</g>
	</g>
	<g>
		<defs>
			<path id="SVGID_00000129885476515204671700000006987652507886518413_" d="M143.3,59.6c-3.8-3.8-5.7-8.9-5.7-13.9
				c5-0.1,10.1,1.8,13.9,5.7c3.8,3.8,5.7,8.9,5.7,13.9C152.2,65.3,147.1,63.4,143.3,59.6z"/>
		</defs>
		<clipPath id="SVGID_00000152948895281874025360000008361677489267561148_">
			<use xlink:href="#SVGID_00000129885476515204671700000006987652507886518413_"  style="overflow:visible;"/>
		</clipPath>
		<path style="clip-path:url(#SVGID_00000152948895281874025360000008361677489267561148_);fill:#EF4F4B;" d="M143.3,59.6
			c-3.8-3.8-5.7-8.9-5.7-13.9c5-0.1,10.1,1.8,13.9,5.7c3.8,3.8,5.7,8.9,5.7,13.9C152.2,65.3,147.1,63.4,143.3,59.6z"/>
		<g style="clip-path:url(#SVGID_00000152948895281874025360000008361677489267561148_);">
			<path class="st9" d="M153.5,62.3c-8,0-15.5-3.1-21.2-8.8l0,0c-5.7-5.7-8.8-13.4-8.8-21.5l0-0.5l0.5,0c8.1-0.1,15.8,3,21.5,8.8
				c5.7,5.7,8.8,13.4,8.8,21.5l0,0.5l-0.5,0C153.8,62.3,153.6,62.3,153.5,62.3z M133,52.8c5.4,5.4,12.7,8.4,20.4,8.5
				c0-7.7-3-14.9-8.5-20.4c-5.4-5.4-12.7-8.4-20.4-8.5C124.6,40.2,127.6,47.4,133,52.8L133,52.8z"/>
		</g>
		<g style="clip-path:url(#SVGID_00000152948895281874025360000008361677489267561148_);">
			<path class="st9" d="M148.9,57.7c-5.7,0-11.1-2.2-15.2-6.3l0,0c-4.1-4.1-6.3-9.6-6.3-15.4l0-0.5l0.5,0c5.9-0.1,11.3,2.2,15.4,6.3
				c4.1,4.1,6.3,9.6,6.3,15.4l0,0.5l-0.5,0C149.1,57.7,149,57.7,148.9,57.7z M134.5,50.7c3.8,3.8,8.9,5.9,14.3,6
				c-0.1-5.4-2.2-10.4-6-14.3c-3.8-3.8-8.9-5.9-14.3-6C128.5,41.9,130.6,46.9,134.5,50.7L134.5,50.7z"/>
		</g>
		<g style="clip-path:url(#SVGID_00000152948895281874025360000008361677489267561148_);">
			<path class="st9" d="M143.4,52.2c-5.7,0-11.1-2.2-15.2-6.3l0,0c-4.1-4.1-6.3-9.6-6.3-15.4l0-0.5l0.5,0c5.8-0.1,11.3,2.2,15.4,6.3
				c4.1,4.1,6.3,9.6,6.3,15.4l0,0.5l-0.5,0C143.5,52.2,143.5,52.2,143.4,52.2z M128.9,45.2c3.8,3.8,8.9,5.9,14.3,6
				c-0.1-5.4-2.2-10.4-6-14.3c-3.8-3.8-8.9-5.9-14.3-6C123,36.4,125.1,41.4,128.9,45.2L128.9,45.2z"/>
		</g>
	</g>
	<polygon class="st16" points="175.8,29 175.8,40 167.8,32.2 166.9,31.4 157,41 153,37.1 151.5,35.7 149.4,33.6 147.9,32.2 
		147.1,31.4 146.2,32.3 144.8,33.7 142.6,35.8 141.2,37.2 138.3,39.9 138.3,29 139.1,28.2 140.6,26.8 142.3,25.2 143.7,23.7 
		143.7,23.7 147.1,20.5 150.4,23.6 150.4,23.6 151.9,25.1 151.9,25.1 153.6,26.7 153.6,26.7 155,28.1 155,28.1 157,30.1 158.9,28.2 
		163.6,23.7 166.9,20.5 170.2,23.6 170.2,23.7 171.7,25.1 171.7,25.1 173.4,26.7 	"/>
	<g>
		<polygon class="st17" points="175.8,10.4 175.8,21.3 167.8,13.6 166.9,12.8 157,22.4 153,18.4 151.5,17 149.4,15 147.9,13.6 
			147.1,12.8 146.2,13.6 144.8,15.1 142.6,17.1 141.2,18.5 138.3,21.3 138.3,10.4 139.1,9.6 140.6,8.2 142.3,6.5 147.1,1.8 150.4,5 
			151.9,6.4 155,9.5 157,11.4 158.9,9.6 163.6,5.1 166.9,1.8 170.2,5 171.7,6.4 173.4,8.1 		"/>
		<polygon class="st17" points="175.8,10.4 175.8,21.3 167.8,13.6 166.9,12.8 157,22.4 153,18.4 151.5,17 149.4,15 147.9,13.6 
			147.1,12.8 146.2,13.6 144.8,15.1 142.6,17.1 141.2,18.5 138.3,21.3 138.3,10.4 139.1,9.6 140.6,8.2 142.3,6.5 143.7,5.1 
			143.7,5.1 147.1,1.8 150.4,5 150.4,5 151.9,6.4 151.9,6.4 153.6,8.1 153.6,8.1 155,9.5 155,9.5 157,11.4 158.9,9.6 163.6,5.1 
			166.9,1.8 170.2,5 170.2,5 171.7,6.4 171.7,6.4 173.4,8.1 		"/>
	</g>
	<g>
		<defs>
			<polygon id="SVGID_00000094592372989487933330000017045105472756263331_" points="175.8,10.4 175.8,21.3 167.8,13.6 166.9,12.8 
				157,22.4 153,18.4 151.5,17 149.4,15 147.9,13.6 147.1,12.8 146.2,13.6 144.8,15.1 142.6,17.1 141.2,18.5 138.3,21.3 138.3,10.4 
				139.1,9.6 140.6,8.2 142.3,6.5 147.1,1.8 150.4,5 151.9,6.4 155,9.5 157,11.4 158.9,9.6 163.6,5.1 166.9,1.8 170.2,5 171.7,6.4 
				173.4,8.1 			"/>
		</defs>
		<defs>
			<polygon id="SVGID_00000164505270513200919430000013381296857239435694_" points="175.8,10.4 175.8,21.3 167.8,13.6 166.9,12.8 
				157,22.4 153,18.4 151.5,17 149.4,15 147.9,13.6 147.1,12.8 146.2,13.6 144.8,15.1 142.6,17.1 141.2,18.5 138.3,21.3 138.3,10.4 
				139.1,9.6 140.6,8.2 142.3,6.5 143.7,5.1 143.7,5.1 147.1,1.8 150.4,5 150.4,5 151.9,6.4 151.9,6.4 153.6,8.1 153.6,8.1 155,9.5 
				155,9.5 157,11.4 158.9,9.6 163.6,5.1 166.9,1.8 170.2,5 170.2,5 171.7,6.4 171.7,6.4 173.4,8.1 			"/>
		</defs>
		<clipPath id="SVGID_00000047746074499023683250000002834938086627050940_">
			<use xlink:href="#SVGID_00000094592372989487933330000017045105472756263331_"  style="overflow:visible;"/>
		</clipPath>
		
			<clipPath id="SVGID_00000000928969987692474630000017371468536453427590_" style="clip-path:url(#SVGID_00000047746074499023683250000002834938086627050940_);">
			<use xlink:href="#SVGID_00000164505270513200919430000013381296857239435694_"  style="overflow:visible;"/>
		</clipPath>
		<g style="clip-path:url(#SVGID_00000000928969987692474630000017371468536453427590_);">
			<path class="st20" d="M166.9,20.9L145.3-0.7h43.2L166.9,20.9z M147.6,0.3l19.3,19.3l19.3-19.3H147.6z"/>
		</g>
		<g style="clip-path:url(#SVGID_00000000928969987692474630000017371468536453427590_);">
			<path class="st20" d="M166.9,13.5L145.3-8.1h43.2L166.9,13.5z M147.6-7.2l19.3,19.3l19.3-19.3H147.6z"/>
		</g>
		<g style="clip-path:url(#SVGID_00000000928969987692474630000017371468536453427590_);">
			<path class="st20" d="M166.9,6.7l-21.6-20.3l43.3-1.4L166.9,6.7z M147.6-12.7l19.3,18.1L186.2-14L147.6-12.7z"/>
		</g>
		<g style="clip-path:url(#SVGID_00000000928969987692474630000017371468536453427590_);">
			<path class="st20" d="M147.2,6.7l-21.6-20.3l43.3-1.4L147.2,6.7z M127.9-12.7l19.3,18.1L166.4-14L127.9-12.7z"/>
		</g>
		<g style="clip-path:url(#SVGID_00000000928969987692474630000017371468536453427590_);">
			<path class="st20" d="M147.1,20.9L125.5-0.7h43.2L147.1,20.9z M127.8,0.3l19.3,19.3l19.3-19.3H127.8z"/>
		</g>
		<g style="clip-path:url(#SVGID_00000000928969987692474630000017371468536453427590_);">
			<path class="st20" d="M147.1,13.5L125.5-8.1h43.2L147.1,13.5z M127.8-7.2l19.3,19.3l19.3-19.3H127.8z"/>
		</g>
	</g>
	<g>
		<polygon class="st21" points="175.8,29 175.8,40 167.8,32.2 166.9,31.4 157,41 153,37.1 151.5,35.7 149.4,33.6 147.9,32.2 
			147.1,31.4 146.2,32.3 144.8,33.7 142.6,35.8 141.2,37.2 138.3,39.9 138.3,29 139.1,28.2 140.6,26.8 142.3,25.2 147.1,20.5 
			150.4,23.6 151.9,25.1 155,28.1 157,30.1 158.9,28.2 163.6,23.7 166.9,20.5 170.2,23.7 171.7,25.1 173.4,26.7 		"/>
		<polygon class="st17" points="175.8,29 175.8,40 167.8,32.2 166.9,31.4 157,41 153,37.1 151.5,35.7 149.4,33.6 147.9,32.2 
			147.1,31.4 146.2,32.3 144.8,33.7 142.6,35.8 141.2,37.2 138.3,39.9 138.3,29 139.1,28.2 140.6,26.8 142.3,25.2 143.7,23.7 
			143.7,23.7 147.1,20.5 150.4,23.6 150.4,23.6 151.9,25.1 151.9,25.1 153.6,26.7 153.6,26.7 155,28.1 155,28.1 157,30.1 
			158.9,28.2 163.6,23.7 166.9,20.5 170.2,23.6 170.2,23.7 171.7,25.1 171.7,25.1 173.4,26.7 		"/>
	</g>
	<g>
		<defs>
			<polygon id="SVGID_00000026148829848947928080000015561448219905745592_" points="175.8,29 175.8,40 167.8,32.2 166.9,31.4 
				157,41 153,37.1 151.5,35.7 149.4,33.6 147.9,32.2 147.1,31.4 146.2,32.3 144.8,33.7 142.6,35.8 141.2,37.2 138.3,39.9 138.3,29 
				139.1,28.2 140.6,26.8 142.3,25.2 147.1,20.5 150.4,23.6 151.9,25.1 155,28.1 157,30.1 158.9,28.2 163.6,23.7 166.9,20.5 
				170.2,23.7 171.7,25.1 173.4,26.7 			"/>
		</defs>
		<defs>
			<polygon id="SVGID_00000037681786697202770370000015624952889529434245_" points="175.8,29 175.8,40 167.8,32.2 166.9,31.4 
				157,41 153,37.1 151.5,35.7 149.4,33.6 147.9,32.2 147.1,31.4 146.2,32.3 144.8,33.7 142.6,35.8 141.2,37.2 138.3,39.9 138.3,29 
				139.1,28.2 140.6,26.8 142.3,25.2 143.7,23.7 143.7,23.7 147.1,20.5 150.4,23.6 150.4,23.6 151.9,25.1 151.9,25.1 153.6,26.7 
				153.6,26.7 155,28.1 155,28.1 157,30.1 158.9,28.2 163.6,23.7 166.9,20.5 170.2,23.6 170.2,23.7 171.7,25.1 171.7,25.1 
				173.4,26.7 			"/>
		</defs>
		<clipPath id="SVGID_00000107570904476661785610000017456865562498136465_">
			<use xlink:href="#SVGID_00000026148829848947928080000015561448219905745592_"  style="overflow:visible;"/>
		</clipPath>
		
			<clipPath id="SVGID_00000031168201077345425710000014413312456984285602_" style="clip-path:url(#SVGID_00000107570904476661785610000017456865562498136465_);">
			<use xlink:href="#SVGID_00000037681786697202770370000015624952889529434245_"  style="overflow:visible;"/>
		</clipPath>
		<g style="clip-path:url(#SVGID_00000031168201077345425710000014413312456984285602_);">
			<path class="st20" d="M166.9,39.6L145.3,18h43.2L166.9,39.6z M147.6,18.9l19.3,19.3l19.3-19.3H147.6z"/>
		</g>
		<g style="clip-path:url(#SVGID_00000031168201077345425710000014413312456984285602_);">
			<path class="st20" d="M166.9,32.1l-21.6-21.6h43.2L166.9,32.1z M147.6,11.4l19.3,19.3l19.3-19.3H147.6z"/>
		</g>
		<g style="clip-path:url(#SVGID_00000031168201077345425710000014413312456984285602_);">
			<path class="st20" d="M166.9,25.3L145.3,5l43.3-1.4L166.9,25.3z M147.6,5.9L166.9,24l19.3-19.3L147.6,5.9z"/>
		</g>
		<g style="clip-path:url(#SVGID_00000031168201077345425710000014413312456984285602_);">
			<path class="st20" d="M147.2,25.3L125.5,5l43.3-1.4L147.2,25.3z M127.9,5.9L147.1,24l19.3-19.3L127.9,5.9z"/>
		</g>
		<g style="clip-path:url(#SVGID_00000031168201077345425710000014413312456984285602_);">
			<path class="st20" d="M147.1,39.6L125.5,18h43.2L147.1,39.6z M127.8,18.9l19.3,19.3l19.3-19.3H127.8z"/>
		</g>
		<g style="clip-path:url(#SVGID_00000031168201077345425710000014413312456984285602_);">
			<path class="st20" d="M147.1,32.1l-21.6-21.6h43.2L147.1,32.1z M127.8,11.4l19.3,19.3l19.3-19.3H127.8z"/>
		</g>
	</g>
	<g>
		<path class="st24" d="M28.2,96.5c0,3.9-3.2,7.1-7.1,7.1s-7.1-3.2-7.1-7.1c0-3.9,3.2-7.1,7.1-7.1S28.2,92.6,28.2,96.5"/>
		<path class="st16" d="M14,96.5c0,3.9,3.2,7.1,7.1,7.1c3.9,0,7.1-3.2,7.1-7.1c0-3.9-3.2-7.1-7.1-7.1C17.2,89.4,14,92.6,14,96.5"/>
		<path class="st24" d="M40.5,108.7c0,3.9-3.2,7.1-7.1,7.1s-7.1-3.2-7.1-7.1s3.2-7.1,7.1-7.1S40.5,104.8,40.5,108.7"/>
		<path class="st24" d="M28.2,121c0,3.9-3.2,7.1-7.1,7.1S14,124.9,14,121c0-3.9,3.2-7.1,7.1-7.1S28.2,117,28.2,121"/>
		<path class="st16" d="M14,121c0,3.9,3.2,7.1,7.1,7.1c3.9,0,7.1-3.2,7.1-7.1c0-3.9-3.2-7.1-7.1-7.1C17.2,113.8,14,117,14,121"/>
		<path class="st24" d="M52.7,121c0,3.9-3.2,7.1-7.1,7.1c-3.9,0-7.1-3.2-7.1-7.1c0-3.9,3.2-7.1,7.1-7.1
			C49.5,113.8,52.7,117,52.7,121"/>
		<path class="st25" d="M52.7,96.5c0,3.9-3.2,7.1-7.1,7.1c-3.9,0-7.1-3.2-7.1-7.1c0-3.9,3.2-7.1,7.1-7.1
			C49.5,89.4,52.7,92.6,52.7,96.5"/>
		<g>
			<path class="st26" d="M33.3,114.2c-3,0-5.5-2.5-5.5-5.5c0-3,2.5-5.5,5.5-5.5s5.5,2.5,5.5,5.5C38.8,111.8,36.4,114.2,33.3,114.2z
				 M33.3,104.2c-2.5,0-4.5,2-4.5,4.5s2,4.5,4.5,4.5c2.5,0,4.5-2,4.5-4.5S35.8,104.2,33.3,104.2z"/>
		</g>
		<path class="st16" d="M14,121c0,3.9,3.2,7.1,7.1,7.1c3.9,0,7.1-3.2,7.1-7.1c0-3.9-3.2-7.1-7.1-7.1C17.2,113.8,14,117,14,121"/>
		<g>
			<defs>
				<path id="SVGID_00000071534779923121787820000012973098512271125907_" d="M28.2,121c0,3.9-3.2,7.1-7.1,7.1S14,124.9,14,121
					c0-3.9,3.2-7.1,7.1-7.1S28.2,117,28.2,121"/>
			</defs>
			<clipPath id="SVGID_00000031180280538892685330000006890174711095472307_">
				<use xlink:href="#SVGID_00000071534779923121787820000012973098512271125907_"  style="overflow:visible;"/>
			</clipPath>
			<g style="clip-path:url(#SVGID_00000031180280538892685330000006890174711095472307_);">
				<g>
					<path class="st26" d="M33.3,128.8c-11.1,0-20.1-9-20.1-20.1s9-20.1,20.1-20.1c11.1,0,20.1,9,20.1,20.1S44.4,128.8,33.3,128.8z
						 M33.3,89.6c-10.5,0-19.1,8.6-19.1,19.1s8.6,19.1,19.1,19.1c10.5,0,19.1-8.6,19.1-19.1S43.9,89.6,33.3,89.6z"/>
				</g>
				<g>
					<path class="st26" d="M33.3,126.4v-1c9.2,0,16.7-7.5,16.7-16.7S42.5,92,33.3,92s-16.7,7.5-16.7,16.7h-1
						c0-9.7,7.9-17.6,17.6-17.6c9.7,0,17.7,7.9,17.7,17.6S43.1,126.4,33.3,126.4z"/>
				</g>
				<g>
					<path class="st26" d="M33.3,123.9c-8.4,0-15.2-6.8-15.2-15.2c0-8.4,6.8-15.2,15.2-15.2s15.2,6.8,15.2,15.2
						C48.6,117.1,41.7,123.9,33.3,123.9z M33.3,94.5c-7.9,0-14.3,6.4-14.3,14.3c0,7.9,6.4,14.3,14.3,14.3c7.9,0,14.3-6.4,14.3-14.3
						C47.6,100.9,41.2,94.5,33.3,94.5z"/>
				</g>
				<g>
					<path class="st26" d="M33.3,121.5v-1c6.5,0,11.8-5.3,11.8-11.8s-5.3-11.8-11.8-11.8c-6.5,0-11.8,5.3-11.8,11.8h-1
						c0-7.1,5.7-12.8,12.8-12.8s12.8,5.7,12.8,12.8S40.4,121.5,33.3,121.5z"/>
				</g>
			</g>
		</g>
		<g>
			<defs>
				<path id="SVGID_00000174590247770635050200000009521495187934742685_" d="M52.7,121c0,3.9-3.2,7.1-7.1,7.1
					c-3.9,0-7.1-3.2-7.1-7.1c0-3.9,3.2-7.1,7.1-7.1C49.5,113.8,52.7,117,52.7,121"/>
			</defs>
			<clipPath id="SVGID_00000147206344007766232190000007052739757823988627_">
				<use xlink:href="#SVGID_00000174590247770635050200000009521495187934742685_"  style="overflow:visible;"/>
			</clipPath>
			<g style="clip-path:url(#SVGID_00000147206344007766232190000007052739757823988627_);">
				<g>
					<path class="st26" d="M33.3,128.8c-11.1,0-20.1-9-20.1-20.1s9-20.1,20.1-20.1c11.1,0,20.1,9,20.1,20.1S44.4,128.8,33.3,128.8z
						 M33.3,89.6c-10.5,0-19.1,8.6-19.1,19.1s8.6,19.1,19.1,19.1c10.5,0,19.1-8.6,19.1-19.1S43.9,89.6,33.3,89.6z"/>
				</g>
				<g>
					<path class="st26" d="M33.3,123.9c-8.4,0-15.2-6.8-15.2-15.2c0-8.4,6.8-15.2,15.2-15.2s15.2,6.8,15.2,15.2
						C48.6,117.1,41.7,123.9,33.3,123.9z M33.3,94.5c-7.9,0-14.3,6.4-14.3,14.3c0,7.9,6.4,14.3,14.3,14.3c7.9,0,14.3-6.4,14.3-14.3
						C47.6,100.9,41.2,94.5,33.3,94.5z"/>
				</g>
			</g>
		</g>
		<g>
			<defs>
				<path id="SVGID_00000029032620677463568320000006842329277868174765_" d="M52.7,96.5c0,3.9-3.2,7.1-7.1,7.1
					c-3.9,0-7.1-3.2-7.1-7.1c0-3.9,3.2-7.1,7.1-7.1C49.5,89.4,52.7,92.6,52.7,96.5"/>
			</defs>
			<clipPath id="SVGID_00000056410517790343281290000012353057825286513583_">
				<use xlink:href="#SVGID_00000029032620677463568320000006842329277868174765_"  style="overflow:visible;"/>
			</clipPath>
			<g style="clip-path:url(#SVGID_00000056410517790343281290000012353057825286513583_);">
				<g>
					<path class="st26" d="M33.3,128.8c-11.1,0-20.1-9-20.1-20.1s9-20.1,20.1-20.1c11.1,0,20.1,9,20.1,20.1S44.4,128.8,33.3,128.8z
						 M33.3,89.6c-10.5,0-19.1,8.6-19.1,19.1s8.6,19.1,19.1,19.1c10.5,0,19.1-8.6,19.1-19.1S43.9,89.6,33.3,89.6z"/>
				</g>
				<g>
					<path class="st26" d="M33.3,123.9c-8.4,0-15.2-6.8-15.2-15.2c0-8.4,6.8-15.2,15.2-15.2s15.2,6.8,15.2,15.2
						C48.6,117.1,41.7,123.9,33.3,123.9z M33.3,94.5c-7.9,0-14.3,6.4-14.3,14.3c0,7.9,6.4,14.3,14.3,14.3c7.9,0,14.3-6.4,14.3-14.3
						C47.6,100.9,41.2,94.5,33.3,94.5z"/>
				</g>
			</g>
		</g>
		<g>
			<defs>
				<path id="SVGID_00000170273856935378477460000013961337422800421311_" d="M28.2,96.5c0,3.9-3.2,7.1-7.1,7.1s-7.1-3.2-7.1-7.1
					c0-3.9,3.2-7.1,7.1-7.1S28.2,92.6,28.2,96.5"/>
			</defs>
			<clipPath id="SVGID_00000031178862337346943930000007228473068691731854_">
				<use xlink:href="#SVGID_00000170273856935378477460000013961337422800421311_"  style="overflow:visible;"/>
			</clipPath>
			<g style="clip-path:url(#SVGID_00000031178862337346943930000007228473068691731854_);">
				<g>
					<path class="st26" d="M33.3,128.8c-11.1,0-20.1-9-20.1-20.1s9-20.1,20.1-20.1c11.1,0,20.1,9,20.1,20.1S44.4,128.8,33.3,128.8z
						 M33.3,89.6c-10.5,0-19.1,8.6-19.1,19.1s8.6,19.1,19.1,19.1c10.5,0,19.1-8.6,19.1-19.1S43.9,89.6,33.3,89.6z"/>
				</g>
				<g>
					<path class="st26" d="M33.3,123.9c-8.4,0-15.2-6.8-15.2-15.2c0-8.4,6.8-15.2,15.2-15.2s15.2,6.8,15.2,15.2
						C48.6,117.1,41.7,123.9,33.3,123.9z M33.3,94.5c-7.9,0-14.3,6.4-14.3,14.3c0,7.9,6.4,14.3,14.3,14.3c7.9,0,14.3-6.4,14.3-14.3
						C47.6,100.9,41.2,94.5,33.3,94.5z"/>
				</g>
			</g>
		</g>
	</g>
</g>
</svg>
