<?xml version="1.0" encoding="UTF-8"?>
<svg xmlns="http://www.w3.org/2000/svg" version="1.1" xmlns:xlink="http://www.w3.org/1999/xlink" viewBox="0 0 1000 1000">
  <defs>
    <style>
      .cls-1 {
        fill: #fff;
      }

      .cls-2 {
        mask: url(#mask);
      }

      .cls-3 {
        fill: #2e2d2c;
      }

      .cls-4 {
        fill: none;
      }

      .cls-5 {
        clip-path: url(#clippath);
      }
    </style>
    <clipPath id="clippath">
      <rect class="cls-4" x="141" y="451.5" width="718" height="97.1"/>
    </clipPath>
    <mask id="mask" x="141" y="451.5" width="718" height="97.1" maskUnits="userSpaceOnUse">
      <g id="mask0_4384_2182">
        <path class="cls-1" d="M859,451.5H141v97.1h718v-97.1Z"/>
      </g>
    </mask>
  </defs>
  <!-- Generator: Adobe Illustrator 28.7.0, SVG Export Plug-In . SVG Version: 1.2.0 Build 23)  -->
  <g>
    <g id="Layer_2">
      <g class="cls-5">
        <g class="cls-2">
          <g>
            <path class="cls-3" d="M827.1,509.3c-.8-2.7-2-5.3-3.6-7.6-1.5-2.1-3.2-4.1-5.3-5.7-3.7-3-8.1-5.1-12.7-6.1-2-.5-4.1-.7-6.2-.8h-38.5c-1,0-2,0-3-.4-1-.3-1.8-.9-2.6-1.6-1.4-1.6-2.1-3.7-1.9-5.8-.1-2.1.6-4.3,2-5.9.7-.7,1.6-1.3,2.5-1.6,1-.4,2-.5,3-.4h59.2v-21.8h-59.2c-3.2,0-6.4.6-9.5,1.6-3.6,1.1-7,3-9.9,5.4-2.9,2.5-5.3,5.5-7,8.9-1.9,4.4-2.9,9.1-2.9,13.8s1,9.5,2.9,13.8c1.8,3.6,4.3,6.7,7.3,9.2,2.8,2.3,6.1,4,9.5,5.1,3.1,1,6.3,1.5,9.5,1.6h38.3c1.1,0,2.2.2,3.2.6.9.3,1.6.9,2.3,1.5.7.7,1.2,1.6,1.5,2.5.4,1.1.6,2.2.5,3.3.1,2.1-.6,4.2-2,5.8-.7.7-1.6,1.3-2.6,1.6-1,.3-2,.5-3,.4h-66.8v21.8h66.8c2.1,0,4.2-.2,6.3-.7,2.2-.5,4.4-1.2,6.5-2.2,2.2-1,4.3-2.3,6.2-3.7,2.1-1.6,3.9-3.5,5.3-5.7,1.6-2.3,2.8-4.9,3.6-7.6.9-3.1,1.4-6.4,1.4-9.6,0-3.2-.4-6.5-1.3-9.6"/>
            <path class="cls-3" d="M335.3,463.2c-3.7-3.7-8.1-6.6-12.9-8.5-5.2-2.1-10.7-3.1-16.2-3.1h-22.5c-5.6,0-11.1,1-16.3,3.1-4.9,2-9.3,4.8-13,8.5-3.7,3.7-6.6,8.1-8.6,13-2.1,5.2-3.2,10.8-3.1,16.4v15c0,5.6,1,11.2,3.1,16.4,2,4.9,4.9,9.3,8.6,13,3.7,3.7,8.1,6.6,13,8.5,5.2,2.1,10.7,3.1,16.3,3h22.5c5.6,0,11.1-1,16.2-3,4.9-1.9,9.3-4.8,13-8.5,3.7-3.7,6.6-8.1,8.6-13,2.1-5.2,3.1-10.8,3.1-16.4v-15c0-5.6-1-11.2-3.1-16.4-1.9-4.9-4.9-9.3-8.6-13M283.6,473.3h22.5c2.7,0,5.4.4,7.9,1.4,2.2.8,4.3,2.2,6,3.9,1.7,1.7,3,3.7,3.8,6,1,2.6,1.4,5.3,1.4,8v15c0,2.7-.4,5.4-1.4,8-.9,2.2-2.2,4.3-3.9,6-1.7,1.7-3.8,3-6,3.9-2.5,1-5.2,1.4-7.9,1.4h-22.4c-2.7,0-5.4-.4-7.9-1.4-2.2-.9-4.3-2.2-6-3.9-1.7-1.7-3-3.7-3.9-6-1-2.6-1.4-5.3-1.4-8v-15c0-2.7.4-5.4,1.4-8,.9-2.2,2.2-4.3,3.9-6,1.7-1.7,3.8-3,6-3.9,2.5-1,5.2-1.4,7.9-1.4Z"/>
            <path class="cls-3" d="M453.2,463.2c-3.7-3.7-8.1-6.5-12.9-8.5-5.2-2.1-10.7-3.1-16.2-3.1h-22.5c-5.6,0-11.1,1-16.3,3.1-4.9,2-9.3,4.8-13,8.5-3.7,3.7-6.6,8.1-8.6,13-2.1,5.2-3.2,10.8-3.1,16.4v15c0,5.6,1,11.2,3.1,16.4,2,4.9,4.9,9.3,8.6,13,3.7,3.7,8.1,6.6,13,8.5,5.2,2.1,10.7,3.1,16.3,3h22.5c5.6,0,11.1-1,16.2-3,4.9-1.9,9.3-4.8,13-8.6,3.7-3.7,6.6-8.1,8.6-13,2.1-5.2,3.1-10.8,3.1-16.4v-15c0-5.6-1-11.2-3.1-16.4-2-4.9-4.9-9.3-8.6-13M401.5,473.3h22.5c2.7,0,5.4.4,7.9,1.4,2.2.8,4.3,2.2,6,3.9,1.7,1.7,3,3.7,3.8,6,1,2.6,1.4,5.3,1.4,8v15c0,2.7-.4,5.4-1.4,8-.8,2.2-2.2,4.3-3.9,6-1.7,1.7-3.8,3-6,3.9-2.5,1-5.2,1.4-7.9,1.4h-22.4c-2.7,0-5.4-.4-7.9-1.4-2.3-.9-4.3-2.2-6-3.9-1.7-1.7-3-3.7-3.9-6-1-2.6-1.4-5.3-1.4-8v-15c0-2.7.4-5.4,1.4-8,.9-2.2,2.2-4.3,3.9-6,1.7-1.7,3.8-3,6-3.9,2.5-1,5.2-1.4,7.9-1.4"/>
            <path class="cls-3" d="M564.7,463.2c-3.7-3.7-8.2-6.6-13-8.5-5.2-2.1-10.7-3.1-16.3-3.1h-44.9c-1.5,0-2.9.3-4.3.8-1.3.5-2.5,1.3-3.5,2.4-1,1-1.8,2.2-2.3,3.5-.6,1.3-.8,2.8-.8,4.3v75.1c0,1.5.3,2.9.8,4.3.5,1.3,1.3,2.5,2.3,3.5,1,1,2.2,1.8,3.5,2.3,1.4.6,2.8.8,4.3.8h44.9c5.6,0,11.1-1,16.3-3.1,4.9-2,9.3-4.8,13-8.5,3.7-3.7,6.6-8.1,8.6-13,2.1-5.2,3.2-10.8,3.1-16.4v-15c0-5.6-1-11.2-3.1-16.4-2-4.9-4.9-9.3-8.6-13M535.4,526.8h-34.1v-53.4h34.1c2.7,0,5.4.4,7.9,1.4,2.3.9,4.3,2.2,6,3.9,1.7,1.7,3,3.7,3.9,6,1,2.6,1.4,5.3,1.4,8v15c0,2.7-.4,5.4-1.4,8-.9,2.2-2.2,4.3-3.9,6-1.7,1.7-3.8,3-6,3.9-2.5.9-5.2,1.4-7.9,1.4"/>
            <path class="cls-3" d="M612.9,451.6h-21.8v96.9h21.8v-96.9Z"/>
            <path class="cls-3" d="M652.4,454.6c-4.9,1.9-9.3,4.8-13,8.5-3.7,3.7-6.6,8.1-8.6,13-2.1,5.2-3.1,10.8-3.1,16.4v15c0,5.6,1,11.2,3.1,16.4,2,4.9,4.9,9.3,8.6,13s8.1,6.6,13,8.5c5.2,2.1,10.7,3.1,16.3,3.1h47.5v-21.8h-47.5c-2.7,0-5.4-.4-7.9-1.4-2.2-.9-4.3-2.2-6-3.9-1.7-1.7-3-3.7-3.9-6-1-2.6-1.4-5.3-1.4-8v-15c0-2.7.4-5.5,1.4-8,.9-2.2,2.2-4.3,3.9-6,1.7-1.7,3.8-3,6-3.9,2.5-1,5.2-1.4,7.9-1.4h47.5v-21.8h-47.5c-5.6,0-11.1,1.1-16.3,3.1Z"/>
            <path class="cls-3" d="M161.3,529.3c-.8-.8-1.8-1.4-2.8-1.8-1.1-.5-2.3-.7-3.6-.7h-4.9c-1.2,0-2.4.2-3.6.7-1.1.4-2,1.1-2.8,1.9-.8.8-1.4,1.8-1.9,2.8-.5,1.1-.7,2.4-.7,3.6v3.8c0,1.2.2,2.4.7,3.6.4,1.1,1.1,2,1.9,2.9.8.8,1.8,1.4,2.8,1.8,1.1.4,2.3.7,3.6.7h4.9c1.2,0,2.4-.2,3.6-.7,1.1-.4,2-1.1,2.8-1.8.8-.8,1.4-1.8,1.9-2.9.5-1.1.7-2.4.7-3.6v-3.8c0-1.2-.2-2.4-.7-3.6-.4-1.1-1.1-2-1.9-2.9"/>
            <path class="cls-3" d="M844.3,457.3h5.3c.4,0,.7,0,1.1.2.4.1.7.3.9.6.3.3.5.6.6.9.1.3.2.7.2,1.1,0,.5,0,1.1-.4,1.5-.3.4-.7.8-1.2,1h0c1.1.3,1.4,1.3,1.4,2.3,0,.8.1,1.6.4,2.4h-2.2c-.2-.8-.3-1.6-.3-2.4-.1-1-.6-1.5-1.7-1.5h-2.2v3.9h-2.2v-9.9h0ZM846.4,461.8h2.4c1,0,1.5-.4,1.5-1.4s-.5-1.4-1.5-1.4h-2.4v2.8Z"/>
            <path class="cls-3" d="M848.1,473.3c-2.2,0-4.3-.6-6.1-1.8-1.8-1.2-3.2-2.9-4-4.9-.8-2-1-4.2-.6-6.3.4-2.1,1.5-4.1,3-5.6,1.5-1.5,3.5-2.6,5.6-3,2.1-.4,4.3-.2,6.3.6,2,.8,3.7,2.2,4.9,4,1.2,1.8,1.8,3.9,1.8,6.1,0,2.9-1.2,5.7-3.2,7.7-2,2-4.8,3.2-7.7,3.2ZM848.1,453.9c-1.7,0-3.4.5-4.8,1.4-1.4.9-2.5,2.3-3.2,3.8-.6,1.6-.8,3.3-.5,4.9.3,1.7,1.1,3.2,2.3,4.4,1.2,1.2,2.7,2,4.4,2.3,1.7.3,3.4.2,4.9-.5,1.6-.6,2.9-1.7,3.8-3.2.9-1.4,1.4-3.1,1.4-4.8,0-2.3-.9-4.4-2.5-6.1-1.6-1.6-3.8-2.5-6.1-2.5Z"/>
            <path class="cls-3" d="M163.2,479.7c0-.8.2-1.6.5-2.4.3-.8.8-1.4,1.4-2,.6-.6,1.3-1,2-1.3.8-.3,1.6-.5,2.4-.5h59.8v-22h-59.3c-7.6,0-14.9,3-20.3,8.4-5.4,5.4-8.4,12.7-8.4,20.3v9.5c0,3.8.7,7.5,2.2,11,1.4,3.5,3.6,6.7,6.2,9.3s5.8,4.8,9.3,6.2c3.5,1.4,7.2,2.2,11,2.2h31.3v-22h-31.8c-.8,0-1.6-.2-2.4-.5-.8-.3-1.4-.8-2-1.3-.6-.6-1-1.3-1.3-2s-.5-1.6-.5-2.4v-10.6Z"/>
          </g>
        </g>
      </g>
    </g>
  </g>
</svg>