<?xml version="1.0" encoding="UTF-8"?>
<svg xmlns="http://www.w3.org/2000/svg" version="1.1" xmlns:xlink="http://www.w3.org/1999/xlink" viewBox="0 0 1000 1000">
  <defs>
    <style>
      .cls-1 {
        mask: url(#mask-1);
      }

      .cls-2 {
        fill: #fff;
      }

      .cls-3 {
        mask: url(#mask);
      }

      .cls-4 {
        fill: #000027;
      }
    </style>
    <mask id="mask" x="536.9" y="411.9" width="159.6" height="78.1" maskUnits="userSpaceOnUse">
      <g id="mask0_166_31868">
        <path class="cls-2" d="M696.4,411.9h-159.5v78.1h159.5v-78.1Z"/>
      </g>
    </mask>
    <mask id="mask-1" x="247" y="404.1" width="189.5" height="191.8" maskUnits="userSpaceOnUse">
      <g id="mask1_166_31868">
        <path class="cls-2" d="M436.5,404.1h-189.5v191.8h189.5v-191.8Z"/>
      </g>
    </mask>
  </defs>
  <!-- Generator: Adobe Illustrator 28.7.0, SVG Export Plug-In . SVG Version: 1.2.0 Build 23)  -->
  <g>
    <g id="Layer_2">
      <g>
        <g class="cls-3">
          <path class="cls-4" d="M566.3,430.6c3.9,0,5.9-2,5.9-6,0-.8,0-1.6-.4-2.3-.3-.7-.7-1.4-1.2-2-.6-.5-1.2-1-2-1.2-.7-.3-1.5-.4-2.3-.3-.8,0-1.6,0-2.3.4-.7.3-1.4.7-2,1.3-.5.6-1,1.2-1.2,1.9-.3.7-.4,1.5-.4,2.3,0,.8,0,1.6.4,2.4.3.8.7,1.5,1.3,2,.6.6,1.3,1,2,1.3.7.3,1.5.4,2.3.4ZM643.6,478.1h-13.9c-4,0-6,1.9-6,5.8,0,.8,0,1.6.4,2.4.3.8.7,1.5,1.3,2,.6.5,1.3,1,2,1.3.7.3,1.5.4,2.3.4h13.9c3.9,0,5.9-2,5.9-6,0-.8,0-1.6-.3-2.3-.3-.7-.7-1.4-1.3-2-.6-.6-1.2-1-2-1.3-.7-.3-1.5-.4-2.3-.3ZM690.3,415.2c-1.6.8-2.9,2.1-3.8,3.6-.9,1.5-1.4,3.3-1.4,5v27.4c0,2.9-.6,4.9-1.8,6.1-1.2,1.2-3.2,1.8-5.9,1.8h-5.7v10.9h6.3c5.4,0,9.8-1.6,13-4.8,3.6-3.5,5.3-8.1,5.3-14v-39.3l-6.2,3.3ZM648.3,457.6c-1-1-1.4-2.6-1.4-5v-19.8l-6.2,3.3c-1.6.8-2.9,2.1-3.8,3.6-.9,1.5-1.4,3.3-1.4,5v7.9c0,2.3-.5,4-1.4,5-1,1-2.6,1.5-4.9,1.5h-26.7c-2.3,0-3.9-.5-4.9-1.5-1-1-1.5-2.6-1.5-5v-19.8l-6.2,3.3c-1.6.8-2.9,2.1-3.8,3.6-.9,1.5-1.4,3.3-1.4,5v19.5c0,1.6-.2,3.3-.8,4.8-.6,1.5-1.5,2.9-2.7,4-2.4,2.1-5.6,3.1-9.7,3.1h-10.4c-1.8,0-3.6-.3-5.3-1-1.7-.7-3.2-1.8-4.4-3.1-2.7-3.1-4.1-7-3.9-11.1,0-4.5,1.3-9,3.6-12.9l-8.4,1.7c-.8.2-1.6.5-2.3,1.1-.7.5-1.2,1.2-1.6,2-1.4,3.1-2,6.5-2,9.9-.1,5.7,1.7,11.2,5.2,15.7,4.5,5.7,10.8,8.6,18.9,8.6h10.4c5.4.2,10.8-1.3,15.4-4.3,2.3-1.6,4.2-3.6,5.7-5.9,1.5-2.3,2.5-4.9,3-7.7,1.8.6,3.7.8,5.7.8h28.9c3.9.1,7.8-1.1,10.9-3.5,3.1,2.4,7,3.7,10.9,3.5h19.7v-10.9h-18.6c-2.3,0-3.9-.5-4.9-1.5Z"/>
        </g>
        <path class="cls-4" d="M486.7,529.1h7.5v47h32.5v11.2h-46.4v-51.7c0-1.7.7-3.3,1.9-4.5s2.8-1.9,4.5-1.9Z"/>
        <path class="cls-4" d="M589.8,562.6h-29.8v13.4h34.7v11.2h-48.6v-51.7c0-1.7.7-3.3,1.9-4.5s2.8-1.9,4.5-1.9h41.7v8c0,.4,0,.8-.2,1.2-.2.4-.4.7-.7,1-.3.3-.7.5-1,.7-.4.2-.8.2-1.2.2h-31v11.2h29.8v11.2Z"/>
        <path class="cls-4" d="M631.9,573.9l-5.1,13.3h-14.3l21.8-54.1c.5-1.2,1.3-2.2,2.4-2.9,1.1-.7,2.3-1.1,3.6-1.1h13.5l24.6,58.1h-15.1l-5.5-13.3h-25.9ZM653.9,562.7c-5.4-13.4-8.1-20.2-9.5-24.6h0c-1.3,4.3-4.4,13.2-8.8,24.6h18.4Z"/>
        <path class="cls-4" d="M697.4,587.2v-58.1h13c1.1,0,2.1.3,3,.8s1.7,1.2,2.3,2.1c14.8,22.6,21.3,31.6,24.7,38.2h.2c-.6-6.1-.5-17-.5-26.5v-14.5h12.8v58.1h-12c-1.1,0-2.1-.3-3.1-.8-.9-.5-1.7-1.3-2.3-2.2-7-11-22.7-35.4-25.8-41.4h-.2c.5,7.2.5,15.5.5,25.8v18.6h-12.8Z"/>
        <g class="cls-1">
          <g>
            <path class="cls-4" d="M341.8,404.1c-52.3,0-94.8,42.9-94.8,95.9s42.4,95.9,94.8,95.9,94.8-42.9,94.8-95.9-42.4-95.9-94.8-95.9ZM392.2,508.2l-18.1,31.6c-1.4,2.5-3.5,4.6-6,6-2.5,1.4-5.3,2.2-8.2,2.2h-36.2c-2.9,0-5.7-.8-8.2-2.2-2.5-1.4-4.6-3.5-6-6l-18.1-31.6c-1.4-2.5-2.2-5.3-2.2-8.2s.8-5.7,2.2-8.2l18.1-31.6c1.4-2.5,3.5-4.6,6-6,2.5-1.4,5.3-2.2,8.2-2.2h36.2c2.9,0,5.7.8,8.2,2.2,2.5,1.4,4.6,3.5,6,6l18.1,31.6c1.4,2.5,2.2,5.3,2.2,8.2s-.8,5.7-2.2,8.2Z"/>
            <path class="cls-4" d="M377.5,496.1h-3.9c-.7,0-1.3-.2-1.9-.5-.6-.3-1.1-.8-1.4-1.4l-4.6-8-4.6-8c-.3-.6-.5-1.3-.5-1.9s.2-1.4.5-1.9l2-3.4c.5-.9.6-1.9.3-2.9-.3-1-.9-1.8-1.8-2.3-.9-.5-1.9-.6-2.9-.4-1,.2-1.8.8-2.3,1.7l-2,3.4c-.3.6-.8,1.1-1.4,1.4-.6.3-1.3.5-1.9.5h-18.4c-.7,0-1.3-.2-1.9-.5-.6-.3-1.1-.8-1.4-1.4l-2-3.4c-.2-.5-.6-.9-1-1.2-.4-.3-.9-.6-1.4-.7-.5-.1-1-.2-1.5-.1-.5,0-1,.2-1.5.5-.5.3-.8.6-1.2,1-.3.4-.5.9-.7,1.4-.1.5-.1,1,0,1.6,0,.5.3,1,.6,1.5l2,3.4c.3.6.5,1.3.5,1.9s-.2,1.4-.5,1.9l-4.6,8-4.6,8c-.3.6-.8,1.1-1.4,1.4-.6.3-1.3.5-1.9.5h-3.9c-1,0-2,.4-2.7,1.1-.7.7-1.1,1.7-1.1,2.8s.4,2,1.1,2.8c.7.7,1.7,1.1,2.7,1.1h3.9c.7,0,1.3.2,1.9.5.6.3,1.1.8,1.4,1.4l4.6,8,4.6,8c.3.6.5,1.3.5,1.9s-.2,1.4-.5,1.9l-2,3.4c-.3.4-.5.9-.6,1.5,0,.5,0,1,0,1.6.1.5.4,1,.7,1.4.3.4.7.8,1.2,1,.5.3,1,.4,1.5.5.5,0,1,0,1.5-.1.5-.1,1-.4,1.4-.7.4-.3.7-.7,1-1.2l2-3.4c.3-.6.8-1.1,1.4-1.4.6-.3,1.3-.5,1.9-.5h18.4c.7,0,1.3.2,1.9.5.6.3,1.1.8,1.4,1.4l2,3.4c.5.8,1.4,1.5,2.3,1.7,1,.2,2,0,2.9-.4.9-.5,1.5-1.3,1.8-2.3.3-1,.2-2-.3-2.9l-2-3.4c-.3-.6-.5-1.3-.5-1.9s.2-1.4.5-1.9l4.6-8,4.6-8c.3-.6.8-1.1,1.4-1.4.6-.3,1.3-.5,1.9-.5h3.9c1,0,2-.4,2.7-1.1.7-.7,1.1-1.7,1.1-2.8s-.4-2-1.1-2.8c-.7-.7-1.7-1.1-2.7-1.1Z"/>
          </g>
        </g>
      </g>
    </g>
  </g>
</svg>