<?xml version="1.0" encoding="UTF-8"?>
<svg id="Layer_2" xmlns="http://www.w3.org/2000/svg" xmlns:xlink="http://www.w3.org/1999/xlink" viewBox="0 0 1000 1000">
  <defs>
    <style>
      .cls-1 {
        fill: url(#radial-gradient);
      }

      .cls-2 {
        fill: #19294e;
      }

      .cls-3 {
        fill: #3167ac;
      }
    </style>
    <radialGradient id="radial-gradient" cx="5563.66" cy="8279.8" fx="5563.66" fy="8279.8" r="4.48" gradientTransform="translate(-233412.89 347130.6) rotate(.08) scale(41.91 -41.91)" gradientUnits="userSpaceOnUse">
      <stop offset="0" stop-color="#483f87"/>
      <stop offset=".13" stop-color="#425096"/>
      <stop offset=".38" stop-color="#407bbc"/>
      <stop offset=".51" stop-color="#4694d2"/>
      <stop offset=".6" stop-color="#438bca"/>
      <stop offset=".75" stop-color="#3f74b6"/>
      <stop offset=".94" stop-color="#444e94"/>
      <stop offset="1" stop-color="#483f87"/>
    </radialGradient>
  </defs>
  <path class="cls-1" d="M391.91,420.08h-34.6c-1.96,0-3.56,1.59-3.57,3.55l-.1,70.58c-.05,36.53-29.7,66.1-66.23,66.06l-48.34-.11c-1.96,0-3.54,1.59-3.54,3.55v34.6c0,1.96,1.59,3.55,3.54,3.55h48.35c15.73.21,31.35-2.63,46-8.37v-32.82h42.2c12.54-17.47,19.6-39.92,19.72-66.39v-70.57c.05-1.95-1.48-3.57-3.43-3.63h0Z"/>
  <path class="cls-2" d="M391.91,415.44h-34.6c-3.88,0-7.03,3.14-7.04,7.02v70.58c-.09,34.58-28.16,62.57-62.74,62.57h-48.35c-3.89-.07-7.11,3.04-7.17,6.93,0,.02,0,.04,0,.06v34.6c0,3.87,3.13,7.01,7,7.02h48.35c15.74.17,31.36-2.61,46.07-8.22v-7.61c-14.58,6.1-30.25,9.17-46.05,9.02l-48.43-.14.12-34.76h48.35c38.4.01,69.58-31.04,69.72-69.45l.16-70.74h34.6v70.58c0,26.9-7.84,49.98-21.76,67.54h8.92c12.72-18.1,19.84-41.17,19.88-67.54v-70.58c-.07-3.83-3.19-6.89-7.02-6.9Z"/>
  <path class="cls-3" d="M575.75,366.17l24.98-10.76c-1.48-3.03-2.63-6.22-3.41-9.51-2.43-11.61,4.9-21.94,16.74-24.43,10.71-2.23,19.02,3.39,20.98,12.72,2.29,10.94-3.93,18.66-14.18,23.17l-41.17,17.77c-1.76.75-3.8-.04-4.58-1.79l-1.14-2.51c-.8-1.78,0-3.87,1.78-4.67ZM617.73,348.06c4.78-2.2,7.43-6.55,6.53-10.88-.52-3.71-3.94-6.3-7.65-5.78-.38.05-.75.14-1.11.25-5.06.77-8.55,5.49-7.78,10.56.05.34.12.68.21,1.01.67,2.7,1.77,5.27,3.25,7.63l6.55-2.78h0Z"/>
  <path class="cls-2" d="M376.52,639.01h-4.69c-.51,0-.96.31-1.14.78l-9.57,23.74-10.29-23.82c-.19-.44-.63-.73-1.12-.73h-4.76c-.66-.01-1.2.51-1.21,1.17,0,.02,0,.03,0,.05v37.08c0,.68.55,1.23,1.23,1.24h4.1c.67,0,1.22-.54,1.24-1.21v-21.37l6.98,16.27c.19.45.63.73,1.12.73h4.84c.5-.01.95-.32,1.14-.79l6.61-16.55v-.13,21.82c0,.67.54,1.22,1.21,1.24h4.27c.67,0,1.21-.54,1.22-1.21v-37.1c-.01-.65-.53-1.17-1.18-1.19ZM443.9,639.14h-4.45c-.33,0-.64.13-.86.37-.23.23-.36.54-.35.86v20.98c.21,2.68-.08,5.37-.84,7.94-.48,1.05-1.32,1.89-2.37,2.35-2.67,1.08-5.65,1.08-8.32,0-1.08-.44-1.99-1.22-2.56-2.24-.77-2.04-1.06-4.23-.86-6.41v-22.68c0-.67-.55-1.22-1.22-1.22h-4.86c-.32,0-.64.12-.86.35-.23.23-.35.54-.35.86v23.33c-.25,3.23.37,6.46,1.79,9.37,1.3,2.01,3.25,3.53,5.53,4.3,2.47.87,5.07,1.31,7.68,1.29,2.65.09,5.29-.48,7.67-1.66,2.02-1.04,3.7-2.64,4.82-4.61,1.35-3.08,1.92-6.44,1.66-9.8v-22.25c-.04-.65-.59-1.15-1.24-1.14ZM506.48,641.38c-2.51-1.49-6.3-2.19-11.57-2.22h-10.2c-.68,0-1.24.55-1.24,1.24h0v37.08c0,.67.54,1.22,1.21,1.24h10.97c3.92.26,7.83-.65,11.23-2.61,2.56-1.75,4.56-4.2,5.76-7.06,1.34-3.23,2-6.7,1.96-10.2.11-3.68-.6-7.34-2.06-10.72-1.27-2.83-3.4-5.18-6.08-6.74h0ZM506.97,659.2c.07,2.57-.36,5.14-1.28,7.55-.67,1.71-1.89,3.16-3.47,4.1-2.22,1.03-4.66,1.49-7.1,1.33h-4.33v-26.84h4.35c2.56-.18,5.13.32,7.43,1.45,1.59,1.07,2.76,2.66,3.32,4.49.83,2.56,1.21,5.24,1.14,7.92h-.06ZM571.77,640.07c-.18-.47-.63-.79-1.14-.81h-4.88c-.49,0-.94.3-1.12.76l-15.28,37.06c-.26.62.03,1.33.65,1.59.15.06.31.09.47.09h4.51c.49,0,.94-.31,1.12-.77l3.92-9.45h14.7l3.54,9.43c.18.47.63.79,1.13.79h5.24c.4,0,.78-.2,1-.53.23-.33.28-.76.13-1.14l-14-37.04h0ZM572.38,662.45h-9.92l5.16-12.67,4.77,12.67ZM650.9,648.4c-1.22-2.8-3.28-5.15-5.88-6.74-3.61-1.7-7.59-2.45-11.57-2.19h-10.28c-.67,0-1.21.54-1.21,1.21v37.09c0,.68.56,1.22,1.24,1.22h10.94c3.93.25,7.84-.66,11.26-2.61,2.56-1.75,4.56-4.2,5.76-7.06,1.33-3.23,1.99-6.7,1.96-10.2.06-3.69-.7-7.35-2.22-10.72ZM644.31,651.57c.83,2.53,1.22,5.18,1.15,7.84.08,2.58-.35,5.14-1.27,7.55-.66,1.71-1.87,3.16-3.45,4.1-2.22,1.03-4.66,1.49-7.1,1.33h-4.48v-26.84h4.35c2.56-.18,5.11.32,7.41,1.45,1.61,1.05,2.8,2.63,3.37,4.47v.1ZM729.99,420.75c-20.58-18-45.29-24.24-72.37-21.23-21.09,2.1-40.86,11.25-56.11,25.98-32.92,31.49-42.39,83.5-22.9,124.69,1.03,2.74,3.8,4.41,6.7,4.04,15.69-.12,31.37,0,47.06,0,1,.08,2.01.08,3.02,0,1.83-.05,3.27-1.56,3.23-3.39-.02-.73-.28-1.43-.74-2-.89-1.13-1.89-2.18-2.96-3.14-25.25-27-20.88-64.48,1.96-86.03,19.13-18.1,49.38-14.84,64.93,0,11.82,10.94,18.27,26.51,17.65,42.6-.53,25.09-20.31,57.19-59.05,57.29h-88.52c-7.63,0-15.29.37-22.88-.31-23.78-2.12-46.01-21.97-50.44-45.44-1.58-8.92-2.37-17.97-2.34-27.04-.16-19.61.2-39.21.59-58.7.13-7.04-1.84-10.72-10.51-10.31-7.31.33-14.67,0-22.02,0h-9.92c-3.51-.1-6.47,2.59-6.7,6.1-.05.86-.05,1.73,0,2.59,0,19,.19,38.02.09,57.02,0,7.74-.21,15.54-1,23.25-1.8,20.12-13.98,37.84-32.13,46.72-7.71,3.51-16.08,5.32-24.54,5.31h-55.56c-1.9-.01-3.46,1.49-3.51,3.39v41.8c0,1.92,1.55,3.48,3.47,3.49h55.56c7.49-.15,14.96-.87,22.33-2.16l1.27-.19,1.12-.18c6.64-1.37,13.06-3.62,19.11-6.68,6.01-2.83,11.74-6.21,17.12-10.1,6.47-4.71,12.43-10.08,17.79-16.02l3.63-3.92c.52.86,1.09,1.7,1.71,2.49,6.9,7.76,14.81,14.55,23.53,20.19,14.9,9.94,31.11,16.53,49.15,16.73,38.43.41,76.88.66,115.29.19,28.64.1,56.02-11.78,75.52-32.76,17.41-18.29,28.16-40.15,30.06-65.42,2.74-35.92-10.98-65.52-37.67-88.84h0ZM761.17,505.68c-.53,11.09-3.11,22-7.61,32.15-6.74,16.64-17.67,31.25-31.72,42.41-16.74,13.26-37.46,20.49-58.82,20.51-36.57.31-73.13-.12-109.7,0-17.23.23-34.14-4.64-48.6-14.02-10.82-6.94-21.06-14.59-28.96-24.96-2.69-3.53-4.67-3.43-7.47.18-7.65,9.96-17.06,18.43-27.76,25-3.94,2.45-8.07,4.59-12.33,6.41-12.13,4.9-25.12,7.32-38.21,7.12h-52.07v-34.84h52.07c8.41.02,16.75-1.57,24.57-4.66,19.98-8.76,34.37-26.78,38.5-48.19.81-4.39,1.2-8.83,1.18-13.29.16-23.53.16-46.92.21-70.39,0-1.41.12-2.82.2-4.51h35.19v5.21c0,23.04,0,46.05.14,69.09-.02,5.47.43,10.92,1.35,16.31,2.67,14.71,11.1,26.04,22.2,35.5,11.56,10.25,26.53,15.8,41.97,15.57,34.82-.26,69.66-.13,104.5,0,27.05.63,51.59-15.81,61.28-41.08,9.81-24.49,5.43-47.05-11.21-66.95-21.1-25.29-62-24.25-83.21,1.32-18.33,21.83-21.05,52.78-6.83,77.48,1.96,3.22,3.93,6.37,6.1,10.16-13.96.35-27.45,0-41.17,0-1.27-3.28-2.65-6.41-3.76-9.65-13.2-37.84-2.53-81.66,26.33-108.34,14.59-13.51,32.05-20.48,51.6-22.76,11.32-1.32,22.78-.54,33.82,2.31,14.64,3.58,27.96,11.23,38.43,22.08,20.04,20.88,30.8,45.56,29.8,74.84,0,0-.02,0-.02,0Z"/>
  <path class="cls-2" d="M610.08,579.66h60.02c20.01,0,36.76-7.63,49.46-23.15,14.37-17.65,21.9-37.86,20.37-60.78-1.96-29.94-22-58.66-52.43-67.03-5.04-1.12-10.15-1.93-15.29-2.43-.85-.12-1.75,0-2.59-.13-1.81-.14-3.18-1.68-3.11-3.49-.04-1.72,1.32-3.15,3.04-3.19.1,0,.21,0,.31,0,3.45-.09,6.89.09,10.31.53,25.94,4.06,44.45,18.57,56.86,41.17,6.85,11.92,10.37,25.46,10.2,39.21-.77,27.04-10.21,50.63-30.63,68.99-12.43,11.27-28.64,17.47-45.43,17.37-33.33.3-66.48,0-99.73,0-8.19,0-16.39,0-24.61-.21-10.7-.29-21.14-3.39-30.27-8.98-25.49-15.14-40.6-37.25-44.88-66.66-.56-5.29-.74-10.62-.55-15.94v-56.54c.26-2.39,1.47-3.92,3.24-3.92s3.41,1.51,3.61,3.93v3.45c0,19.61-.64,39.45.16,59.14,1.39,33.46,17.45,58.03,47.37,73.25,7.61,3.81,16.04,5.71,24.55,5.55,20.01-.2,40.01-.12,60.03-.12h0Z"/>
  <path class="cls-2" d="M600.92,517.96c0,1.96-.63,3.24-2.49,3.67-1.6.56-3.36-.3-3.91-1.9-.04-.13-.08-.26-.11-.4-.88-4.06-1.53-8.16-1.96-12.29,0-1.84,1.49-3.33,3.33-3.34,1.53,0,2.86,1.03,3.23,2.51.67,3.94,1.25,7.92,1.9,11.74ZM601.32,526.02c.39.2,1.49.39,1.78,1,1.11,2.1,1.93,4.35,2.43,6.68.13.88-1.33,2.51-2.42,2.96-1.19.26-2.43-.1-3.29-.96-1.13-1.95-1.93-4.08-2.35-6.29-.35-2.02,1.39-3.49,3.84-3.39ZM654.74,423.08c-.34-1.68-1.98-2.76-3.65-2.42-.09.02-.18.04-.27.07-3.39.66-6.72,1.6-9.96,2.8-24.39,9.69-39.21,27.94-46.29,52.76-.47,1.65-.88,3.31-1.28,4.98h.24c-.63,3.1-1.1,6.23-1.41,9.37l-.12,1.3c-.26,3.92.51,5.5,2.84,5.88,2.34.37,3.79-1.32,4.04-5.35.36-6.01,1.51-11.94,3.43-17.65h-.1c5.39-17.51,17.38-32.24,33.43-41.08,4.67-2.2,9.47-4.12,14.37-5.74.81-.31,1.71-.37,2.49-.71,1.78-.54,2.78-2.43,2.24-4.21,0,0,0,0,0,0h0Z"/>
</svg>