<?xml version="1.0" encoding="UTF-8"?>
<svg xmlns="http://www.w3.org/2000/svg" version="1.1" viewBox="0 0 1000 1000">
  <defs>
    <style>
      .cls-1 {
        fill: #e3803a;
      }
    </style>
  </defs>
  <!-- Generator: Adobe Illustrator 28.7.0, SVG Export Plug-In . SVG Version: 1.2.0 Build 23)  -->
  <g>
    <g id="Layer_2">
      <g>
        <path class="cls-1" d="M223,625.1c0,1.1.6,1.7,1.7,1.7h10.6c1.1,0,1.7-.6,1.7-1.7v-78.9h.5l28.2,62.4c.6,1.3,1.6,2,3.2,2h6.7c1.5,0,2.5-.7,3-2l28.2-62.4h.5v78.9c0,1.1.6,1.7,1.7,1.7h10.6c1.1,0,1.7-.6,1.7-1.7v-110.1c0-1.1-.6-1.7-1.7-1.7h-10.9c-1.4,0-2.2.6-2.7,1.7l-33.3,76.4h-.5l-34-76.4c-.5-1.1-1.4-1.7-2.7-1.7h-10.9c-1.1,0-1.7.6-1.7,1.7v110.1ZM401.9,626.7c1.1,0,1.7-.6,1.7-1.7v-76.6c0-1.1-.6-1.7-1.7-1.7h-10.7c-1.1,0-1.7.6-1.7,1.7v47.4c0,6-1.6,10.8-4.9,14.3-3.3,3.6-7.7,5.3-13.1,5.3s-10.5-1.8-13.4-5.3c-2.9-3.5-4.4-8.6-4.4-15.2v-46.6c0-1.1-.6-1.7-1.7-1.7h-10.7c-1.1,0-1.7.6-1.7,1.7v49.9c0,9.1,2.4,16.4,7.3,21.9,4.9,5.5,11.7,8.3,20.5,8.3s9.7-1,13.3-3c3.6-2,6.5-4.7,8.6-8h.2v7.5c0,1.1.6,1.7,1.7,1.7h10.7ZM484.5,656.8c1.1,0,1.7-.6,1.7-1.7v-106.6c0-1.1-.6-1.7-1.7-1.7h-10.7c-1.1,0-1.7.6-1.7,1.7v7.5h-.2c-1.9-3.2-4.7-5.9-8.3-7.9-3.6-2.1-8.5-3.1-14.5-3.1s-12.9,1.6-17.5,4.8c-4.7,3.2-8,8-10,14.4-1.1,3.2-1.9,6.5-2.2,9.9-.4,3.4-.6,7.6-.6,12.6s.2,9.2.6,12.7c.4,3.4,1.1,6.8,2.2,10,2,6.3,5.4,11.1,10,14.4,4.7,3.2,10.5,4.8,17.5,4.8s10.8-1.1,14.5-3.2c3.6-2.1,6.4-4.8,8.3-8h.2v37.7c0,1.1.6,1.7,1.7,1.7h10.7ZM435.1,603.4c-.7-2.1-1.1-4.5-1.4-7.2-.3-2.7-.4-5.8-.4-9.5s.1-6.7.4-9.4c.3-2.7.7-5.1,1.4-7.3,2.8-8,8.6-12,17.5-12s15,4,17.7,12c.7,2,1.1,4.3,1.4,6.9.3,2.6.4,5.8.4,9.8s-.1,7.3-.4,9.9c-.3,2.6-.7,4.9-1.4,6.8-2.7,8.1-8.6,12.2-17.7,12.2s-14.8-4.1-17.5-12.2M554.6,624.8c5.3-2.6,9.5-5.8,12.8-9.8.7-.9.6-1.7-.2-2.3l-6.9-6.2c-.8-.7-1.6-.6-2.5.3-2.2,2.6-5,4.7-8.4,6.3-3.3,1.7-7.4,2.5-12.2,2.5s-9.3-1.1-12.7-3.4c-3.4-2.3-6-5.8-7.5-10.4-.4-1.4-.8-2.7-1-4.2-.2-1.4-.3-3.3-.3-5.5s.3-1,1-1h50.6c1.2,0,1.8-.6,1.8-1.7,0-3,0-5.6-.2-7.9-.1-2.3-.3-4.3-.5-6.1-.2-1.8-.5-3.4-.8-4.8-.3-1.4-.6-2.7-1.1-4.1-2.2-6.9-6.1-12.2-11.6-15.9-5.5-3.7-12.1-5.6-19.8-5.6s-14.3,1.8-19.8,5.5c-5.5,3.7-9.4,9-11.6,16-.9,2.4-1.5,5.3-1.9,8.4-.4,3.2-.6,7.1-.6,11.8s.2,8.6.7,11.7c.4,3.1,1.1,6,2,8.5,2.2,7,6.1,12.4,11.6,16.1,5.5,3.7,12.4,5.6,20.5,5.6s13.2-1.3,18.5-3.8M516.7,579.7c-.7,0-1-.3-1-1,0-3.7.4-6.6,1.2-8.9,1.3-4,3.6-7,6.8-9.2,3.2-2.2,7.1-3.2,11.6-3.2s8.5,1.1,11.6,3.2c3.2,2.2,5.4,5.2,6.8,9.2.8,2.3,1.2,5.3,1.2,8.9s-.3,1-1,1h-37.1ZM633.3,624.8c5.3-2.6,9.5-5.8,12.8-9.8.7-.9.6-1.7-.2-2.3l-6.8-6.2c-.8-.7-1.6-.6-2.5.3-2.2,2.6-5,4.7-8.4,6.3-3.3,1.7-7.4,2.5-12.2,2.5s-9.3-1.1-12.7-3.4c-3.4-2.3-6-5.8-7.5-10.4-.4-1.4-.8-2.7-1-4.2-.2-1.4-.3-3.3-.3-5.5s.3-1,1-1h50.6c1.2,0,1.8-.6,1.8-1.7,0-3,0-5.6-.2-7.9-.1-2.3-.3-4.3-.5-6.1-.2-1.8-.5-3.4-.8-4.8-.3-1.4-.6-2.7-1.1-4.1-2.2-6.9-6.1-12.2-11.6-15.9-5.5-3.7-12.1-5.6-19.8-5.6s-14.3,1.8-19.8,5.5c-5.5,3.7-9.4,9-11.6,16-.9,2.4-1.5,5.3-1.9,8.4-.4,3.2-.6,7.1-.6,11.8s.2,8.6.7,11.7c.5,3.1,1.1,6,2,8.5,2.2,7,6.1,12.4,11.6,16.1,5.5,3.7,12.3,5.6,20.5,5.6s13.2-1.3,18.5-3.8M595.4,579.7c-.7,0-1-.3-1-1,0-3.7.4-6.6,1.2-8.9,1.3-4,3.6-7,6.8-9.2,3.2-2.2,7.1-3.2,11.6-3.2s8.4,1.1,11.6,3.2c3.2,2.2,5.4,5.2,6.8,9.2.8,2.3,1.2,5.3,1.2,8.9s-.3,1-1,1h-37.1ZM775.3,626.7c1.1,0,1.7-.6,1.7-1.7v-50.1c0-9.1-2.4-16.4-7.3-21.9-4.8-5.4-11.9-8.2-21.3-8.2s-11.3,1.1-15.5,3.3c-4.2,2.2-7.7,5.3-10.4,9.2h-.2c-2.2-4-5.3-7.1-9.3-9.3-3.9-2.2-8.7-3.2-14.1-3.2s-10.1,1-13.9,3.1c-3.8,2.1-6.6,4.7-8.5,7.8h-.2v-7.3c0-1.1-.6-1.7-1.7-1.7h-10.7c-1.1,0-1.7.6-1.7,1.7v76.6c0,1.1.6,1.7,1.7,1.7h10.7c1.1,0,1.7-.6,1.7-1.7v-47.6c0-6,1.7-10.8,5.1-14.3,3.4-3.5,7.8-5.3,13.3-5.3s10.5,1.8,13.5,5.3c3,3.6,4.4,8.6,4.4,15v46.7c0,1.1.6,1.7,1.7,1.7h10.7c1.1,0,1.7-.6,1.7-1.7v-47.6c0-6,1.7-10.8,5.2-14.3,3.4-3.5,7.8-5.3,13.2-5.3s10.5,1.8,13.4,5.3c3,3.6,4.4,8.6,4.4,15v46.7c0,1.1.6,1.7,1.7,1.7h10.7Z"/>
        <path class="cls-1" d="M294.2,448.4c4.2-1.5,7.9-4,10.8-7.4,1.2,1.9,2.6,3.4,4.3,4.5,1.6,1.1,3.4,2,5.2,2.6,1.8.6,3.7,1,5.6,1.1,1.9.2,3.7.3,5.3.3h3.7c2.5,0,4.3-.4,5.4-1.3,1.1-.9,1.7-2.9,1.7-5.9s-.6-4-1.8-5c-1.2-1-2.9-1.5-5.3-1.5h-4.9c-2.6,0-5-1.1-7.3-3.3-2.3-2.2-3.5-6.3-3.7-12.3.1-1.2.2-2.4.3-3.7,0-1.3.1-2.6.1-3.9,0-13.6-3-23.4-9-29.5-6-6.1-14.3-9.1-24.8-9.1s-18.8,3-24.8,9.1c-6,6.1-9,15.9-9,29.5s0,3,0,4.3c0,1.4.1,2.7.3,4-.2,2.2-1,4-2.2,5.4-1.3,1.4-2.7,2.6-4.4,3.6-1.7,1-3.5,2.1-5.5,3.2-1.9,1-3.8,2.4-5.4,4-1.7,1.6-3,3.6-4.1,6-1,2.4-1.6,5.4-1.6,9.1v32.5h14.9v-28.8c0-3.3.5-5.7,1.6-7.2,1.1-1.5,2.3-2.8,3.8-3.7,1.5-.9,3-1.8,4.6-2.6,1.6-.8,3-2.2,4.2-4.1,3,4.4,6.8,7.6,11.4,9.6,4.7,2,10.1,3,16.2,3s10.3-.8,14.5-2.3M294.1,394.3c3,4.4,4.5,10.4,4.5,18.2s-1.5,14.7-4.5,18.6c-3,3.9-7.8,5.8-14.4,5.8s-11.4-1.9-14.4-5.8c-3-3.9-4.5-10.1-4.5-18.6s1.5-13.8,4.5-18.2c3-4.4,7.8-6.5,14.4-6.5s11.4,2.2,14.4,6.5M344.9,449.5c9.3,0,15.5-3.1,18.4-9.2,1.5,3.1,3.7,5.4,6.5,6.9,2.8,1.5,6.1,2.3,9.9,2.3h3.9c2.5,0,4.3-.4,5.4-1.3,1.1-.9,1.7-2.9,1.7-5.9s-.6-4-1.8-5c-1.2-1-2.9-1.5-5.3-1.5h-2.1c-4.8,0-8.7-1-11.6-3-2.9-2-4.3-5-4.3-9v-44.8c0-1.2-.6-1.8-1.8-1.8h-11.3c-1.2,0-1.8.6-1.8,1.8v47.4c0,3.5-.7,6-2,7.3-1.4,1.4-3.5,2-6.5,2h-12c-2.5,0-4.3.5-5.4,1.6-1.1,1-1.7,3.1-1.7,6s.6,4.1,1.8,4.9c1.2.8,3,1.2,5.3,1.2h14.7ZM372.8,482.4c1.2,0,1.8-.6,1.8-1.8v-12.9c0-1.2-.6-1.8-1.8-1.8h-12c-1.2,0-1.8.6-1.8,1.8v12.9c0,1.2.6,1.8,1.8,1.8h12ZM351.2,482.4c1.2,0,1.8-.6,1.8-1.8v-12.9c0-1.2-.6-1.8-1.8-1.8h-12.1c-1.2,0-1.8.6-1.8,1.8v12.9c0,1.2.6,1.8,1.8,1.8h12.1ZM413.6,376.4c-4.4,1.6-8,3.8-10.9,6.6-2.9,2.8-5,6.2-6.5,10.2-1.4,3.9-2.1,8.3-2.1,13s1.4,11.6,4.2,16.7c2.8,5.1,6.6,9.4,11.4,12.8h-26c-2.5,0-4.3.4-5.4,1.1-1.1.8-1.7,2.6-1.7,5.6,0,4.7,2.4,7.1,7.1,7.1h21.4c3.4,0,7.3-.2,11.8-.5,4.4-.3,8.6-1.6,12.5-3.7,3.4,2.1,7,3.4,10.8,3.7,3.8.4,7.8.5,12,.5h23.6c2.5,0,4.3-.5,5.4-1.6,1.1-1,1.7-3.1,1.7-6s-.6-4.1-1.8-4.9c-1.2-.8-3-1.2-5.3-1.2h-24.6c-1.2,0-2.1,0-2.6.2,5-3.4,8.8-7.7,11.6-12.9,2.7-5.2,4.1-10.8,4.1-16.8s-.7-9-2.1-13c-1.4-3.9-3.6-7.3-6.5-10.2-2.9-2.8-6.5-5-10.9-6.6-4.4-1.6-9.6-2.4-15.6-2.4s-11.2.8-15.6,2.4M443.2,392.7c3.7,3.3,5.5,8.1,5.5,14.3s-1.9,11.7-5.7,16c-3.8,4.3-8.4,7.5-13.8,9.6-5.4-2.1-10-5.3-13.8-9.6-3.8-4.3-5.7-9.6-5.7-16s1.8-11,5.5-14.3c3.7-3.3,8.3-4.9,14-4.9s10.3,1.6,14,4.9M446,359.6c1.2,0,1.8-.6,1.8-1.8v-12.9c0-1.2-.6-1.8-1.8-1.8h-12c-1.2,0-1.8.6-1.8,1.8v12.9c0,1.2.6,1.8,1.8,1.8h12ZM424.4,359.6c1.2,0,1.8-.6,1.8-1.8v-12.9c0-1.2-.6-1.8-1.8-1.8h-12c-1.2,0-1.8.6-1.8,1.8v12.9c0,1.2.6,1.8,1.8,1.8h12ZM543.3,448.5c4.2-1.5,7.7-3.8,10.6-6.8,2.9-3.1,5.1-7,6.7-11.8,1.6-4.8,2.4-10.6,2.4-17.3,0-13.6-3-23.4-9-29.5-6-6.1-14.3-9.1-24.8-9.1s-18.8,3-24.8,9.1c-6,6.1-9,15.9-9,29.5v3.6c0,1.1,0,2.3.2,3.4,0,3.1-.3,5.6-1,7.7-.7,2.1-1.5,3.7-2.6,5-1,1.2-2.2,2.1-3.5,2.6-1.3.5-2.6.8-3.9.8h-8.9c-2.5,0-4.3.4-5.4,1.1-1.1.8-1.7,2.6-1.7,5.6,0,4.7,2.4,7.1,7.1,7.1h7.6c3.3,0,6.9-.5,10.8-1.5,3.9-1,7.1-3.4,9.6-7.2,3,3.4,6.6,5.9,10.8,7.5,4.2,1.6,9.2,2.4,14.7,2.4s9.9-.7,14.1-2.2M543.7,394.3c3,4.4,4.5,10.4,4.5,18.2s-1.5,14.7-4.5,18.6c-3,3.9-7.8,5.8-14.4,5.8s-11.4-1.9-14.4-5.8c-3-3.9-4.5-10.1-4.5-18.6s1.5-13.8,4.5-18.2c3-4.4,7.8-6.5,14.4-6.5s11.4,2.2,14.4,6.5"/>
      </g>
    </g>
  </g>
</svg>