<?xml version="1.0" encoding="utf-8"?>
<!-- Generator: Adobe Illustrator 22.0.1, SVG Export Plug-In . SVG Version: 6.00 Build 0)  -->
<svg version="1.1" id="Layer_1" xmlns="http://www.w3.org/2000/svg" xmlns:xlink="http://www.w3.org/1999/xlink" x="0px" y="0px"
	 viewBox="0 0 1000 1000" style="enable-background:new 0 0 1000 1000;" xml:space="preserve">
<style type="text/css">
	.st0{display:none;fill:#808184;}
	.st1{display:none;fill:#EC1C24;}
	.st2{fill:#FFFFFF;}
	.st3{fill:#EF3737;}
	.st4{fill:#250671;}
	.st5{fill:none;stroke:#FFFFFF;stroke-width:3.800000e-02;}
</style>
<g>
	<polygon class="st0" points="513.8,396 515.7,396 515.7,398.6 513.8,398.6 513.8,396 513.8,396 	"/>
	<polygon class="st0" points="509.6,396 511.5,396 511.5,398.6 509.6,398.6 509.6,396 509.6,396 	"/>
	<polygon class="st0" points="518,396 519.9,396 519.9,398.6 518,398.6 518,396 518,396 	"/>
	<polygon class="st0" points="522.2,396 524.1,396 524.1,398.6 522.2,398.6 522.2,396 522.2,396 	"/>
	<polygon class="st0" points="513.8,400.3 515.7,400.3 515.7,402.8 513.8,402.8 513.8,400.3 513.8,400.3 	"/>
	<polygon class="st0" points="509.6,400.3 511.5,400.3 511.5,402.8 509.6,402.8 509.6,400.3 509.6,400.3 	"/>
	<polygon class="st0" points="518,400.3 519.9,400.3 519.9,402.8 518,402.8 518,400.3 518,400.3 	"/>
	<polygon class="st0" points="522.2,400.3 524.1,400.3 524.1,402.8 522.2,402.8 522.2,400.3 522.2,400.3 	"/>
	<polygon class="st0" points="513.8,391.7 515.7,391.7 515.7,394.3 513.8,394.3 513.8,391.7 513.8,391.7 	"/>
	<polygon class="st1" points="509.6,387.5 511.5,387.5 511.5,394.3 509.6,394.3 509.6,387.5 509.6,387.5 	"/>
	<polygon class="st0" points="518,391.7 519.9,391.7 519.9,394.3 518,394.3 518,391.7 518,391.7 	"/>
	<polygon class="st0" points="513.8,387.5 515.7,387.5 515.7,390.1 513.8,390.1 513.8,387.5 513.8,387.5 	"/>
	<polygon class="st0" points="518,387.5 519.9,387.5 519.9,390.1 518,390.1 518,387.5 518,387.5 	"/>
	<polygon class="st1" points="513.8,382.2 515.7,382.2 515.7,385.8 513.8,385.8 513.8,382.2 513.8,382.2 	"/>
	<polygon class="st0" points="513.8,404.5 515.7,404.5 515.7,408.2 513.8,408.2 513.8,404.5 513.8,404.5 	"/>
	<polygon class="st0" points="509.6,404.5 511.5,404.5 511.5,408.7 509.6,408.7 509.6,404.5 509.6,404.5 	"/>
	<polygon class="st0" points="518,404.5 519.9,404.5 519.9,407.7 518,407.7 518,404.5 518,404.5 	"/>
	<polygon class="st1" points="505.4,396 507.3,396 507.3,409.5 505.4,409.5 505.4,396 505.4,396 	"/>
	<g>
		<polygon class="st0" points="522.2,404.5 524.1,404.5 524.1,407.2 522.2,407.2 522.2,404.5 522.2,404.5 		"/>
	</g>
	<path class="st1" d="M524.5,411.3c-0.3,0.3-0.6,0-0.9,0.2c0,0,0-0.2-0.1-0.1c-0.3,0.3-0.7,0.1-1.1-0.1l0-0.1
		c-0.1,0-0.2,0.1-0.2,0.1l0-0.1c0,0.1-0.1,0-0.2,0.1l-0.1-0.2l0,0.1c-0.1,0.3-0.3,0-0.4,0.1l0-0.1c-0.2,0.2-0.5,0.1-0.8,0.2l0-0.2
		c0,0.1-0.1,0.2-0.2,0.2c0-0.1-0.1,0.1-0.2,0l0,0c-0.1,0.1-0.1-0.1-0.1,0.1l0-0.1c0,0.2-0.1-0.1-0.1,0v0l-0.1,0l0,0
		c-0.1,0-0.2-0.1-0.2,0.1c0-0.1,0.1,0,0-0.2c-0.4,0.1-0.7,0.1-1.1,0.1l-0.1-0.1l-0.2,0.1l0-0.1c-0.1-0.1-0.1,0.2-0.1,0.1l0-0.1
		c-0.1,0.1-0.1,0.1-0.2,0.1l0-0.1c-0.1,0.1-0.1,0-0.2,0.1l0-0.1c-0.1-0.1,0,0.2-0.1,0.1l0-0.1c-0.1,0.2-0.2,0.1-0.3,0.2l0,0l-0.3,0
		c0,0,0-0.2-0.1-0.2c0,0.2-0.2,0.1-0.1,0.3c-0.1,0-0.2-0.1-0.3,0c0-0.1,0-0.2,0-0.2l-0.1-0.1c0-0.1,0.1,0,0-0.1l-0.2,0.1
		c-0.1,0.1-0.1,0.3-0.2,0.3l0-0.2l-0.1,0.3c0,0,0-0.1-0.1-0.1l0,0.1c0,0-0.1,0-0.2-0.1l0-0.1l-0.1,0.1l0,0c0,0-0.1,0.1-0.1,0.2
		c0,0,0-0.1,0-0.1l-0.2,0.1l0-0.1l-0.3,0.2c0,0.1,0-0.1,0-0.1c-0.1-0.1-0.3,0.2-0.4,0l0,0.1c-0.1,0-0.1-0.1-0.1-0.1c0-0.1,0,0-0.1,0
		c0,0,0,0,0,0c-0.1,0.1-0.3,0.2-0.4,0.1c0,0-0.1,0.2-0.1,0.2l0-0.1c0-0.1-0.1,0-0.1-0.1c-0.1,0.1,0.2-0.1,0.2,0c0-0.1-0.1,0.2-0.1,0
		c-0.1,0-0.1,0.1-0.2,0c0,0,0-0.1,0-0.1l-0.1,0.1l0,0c0,0.1-0.1,0,0,0.1c0-0.1-0.1,0.1-0.1-0.1v-0.1l-0.1,0.2l0-0.1
		c0,0.2-0.1,0-0.1,0.2c-0.1-0.1-0.2,0-0.2-0.1c-0.1,0.1-0.1,0.1-0.2,0.1l0-0.1c0-0.1-0.1,0-0.1,0c0,0-0.1-0.1-0.2-0.2l0,0.2
		c-0.1-0.2-0.2,0.1-0.2,0c0,0,0.1-0.1,0-0.2c-0.1-0.2-0.1,0.2-0.2,0.1l0,0.2c-0.1-0.1-0.1,0.1-0.1-0.1c0,0.1-0.1,0-0.1,0.1
		c-0.2-0.1-0.3,0.1-0.5-0.2l-0.1,0.1c0,0.1,0-0.1,0.1,0l0,0.1c0,0-0.1,0-0.1-0.2c-0.1-0.1-0.1,0.3-0.2,0.2l-0.1-0.1l-0.1,0.1
		c-0.1,0-0.1-0.1-0.1-0.3l-0.1,0.1l-0.1-0.1c0.1,0.1,0,0.1,0,0.1l0,0l-0.1,0l0.1,0.1l-0.1,0.1c0-0.1-0.1-0.1-0.1-0.1l0,0.1
		c0-0.1-0.1,0,0-0.1l0.1,0c0,0,0-0.1-0.1-0.1c0,0.1,0,0.2,0,0.2l0-0.1l-0.1,0l0,0.1l0,0c0,0.1-0.1,0.1-0.1,0.2l-0.1-0.1l0,0
		c-0.1,0-0.1,0-0.1,0.1v0l-0.1,0.1c-0.1-0.1-0.1-0.4-0.1-0.2c-0.1,0-0.1,0.2,0,0.3c-0.1,0-0.2,0.1-0.3,0l0,0.1c-0.2,0-0.3,0.2-0.5,0
		l0-0.2c0,0.1-0.1-0.1,0,0.1l0.1,0.2c-0.1,0.1-0.2,0.1-0.3,0l0,0.1c0-0.1-0.1-0.1-0.1-0.1l0,0.1l-0.1-0.1c0,0,0,0.2-0.1,0.1l0-0.1
		c0,0.1-0.1,0.2-0.2,0.2l-0.1-0.1l0,0.1l-0.2-0.2c-0.1,0.3-0.3,0.4-0.5,0.4l0-0.1c-0.1,0,0,0.1,0,0.1l-0.1-0.2
		c-0.1,0-0.1,0.1-0.1,0.2c0,0.1,0-0.1,0,0c0,0-0.1,0-0.1,0.1l-0.1-0.2l0,0.1c-0.1-0.1,0-0.3-0.1-0.5l0,0c-0.1-0.1,0.1-0.2,0-0.2
		c0,0.1,0,0.3,0,0.3c-0.1,0.1,0,0.3-0.1,0.3c0-0.1,0.1,0,0-0.1c-0.1-0.1-0.1,0.1-0.1,0.1l0,0.2l-0.1-0.1c0,0.1,0,0.2,0,0.2
		c0,0.2-0.1,0-0.1,0.1c-0.1-0.1,0-0.3-0.1-0.3c0,0.1,0,0.2,0,0.3l-0.1-0.2c-0.1-0.1,0,0.2-0.1,0l0,0.1l-0.1-0.1c0,0-0.1,0.2-0.1,0
		c0,0-0.1,0,0,0.1c0.1,0.1,0-0.1,0.1,0c-0.1-0.1-0.1,0-0.1,0.1l0-0.1l0,0.1l0-0.1l0,0.1c-0.1,0.1-0.1-0.2-0.1-0.1l0-0.1l-0.1,0
		l0,0.3c0,0.1-0.1-0.1-0.1,0l0-0.1c0,0-0.1-0.1-0.2-0.1c0,0,0,0.2,0,0.2l-0.1-0.1l0,0.2l-0.2-0.2l0-0.2l0,0c0-0.1-0.1-0.1-0.1-0.2
		l-0.1,0.1c0.2,0.2,0,0.3,0.1,0.5c-0.1,0.1-0.3-0.4-0.2-0.1c0,0,0.1,0.2,0.1,0.1c-0.1,0,0,0.2-0.1,0.2c0-0.1-0.1-0.2-0.1-0.3
		c0,0.1,0.1,0,0.1,0c-0.1-0.1-0.1-0.2-0.1-0.2c0,0-0.1,0.1,0,0.2c0,0.1,0.1,0,0.1,0.1c-0.1,0.1-0.1-0.1-0.1,0.1c0,0,0.1,0.1,0.1,0.1
		l0,0.1l0-0.1c-0.1,0,0,0.1-0.1,0.2l-0.1-0.1c0-0.1,0.1,0,0-0.2l-0.1,0.1l0-0.1c0,0-0.2-0.2-0.2-0.1l0.1,0.1l-0.1,0.2
		c-0.1-0.1-0.1,0-0.1-0.1c0.1,0.1,0.2,0,0.2-0.1c-0.1-0.1,0.1,0,0-0.2c-0.1,0-0.2-0.1-0.2-0.2l0,0.1l0.1,0.2c-0.1,0-0.1,0.1-0.1,0.2
		l-0.1-0.2l-0.3,0.1c0.1,0.1-0.1,0.1,0.1,0.2c0.1,0,0.2,0.1,0.2,0.2l-0.1-0.1c0,0.1-0.1-0.1-0.1,0.1c0-0.1-0.1-0.2-0.2-0.3
		c0,0.1-0.1-0.1-0.1,0l-0.1,0.3c-0.2,0-0.2,0.2-0.2,0.2c-0.1,0-0.2-0.2-0.2-0.1c0,0,0.2,0.1,0,0.1l0,0c0,0-0.2,0-0.1,0.2l-0.1-0.1
		l0,0.1l-0.1-0.1c-0.1,0-0.1,0.1-0.1,0.2l0.1,0c0,0.1-0.1,0.1-0.1,0.2l-0.1,0l0,0.1c-0.1,0-0.2,0-0.1,0l-0.2-0.2l0.2,0.1
		c0.1,0,0.1-0.1,0-0.1l0,0.1c-0.1,0-0.1-0.1-0.2-0.2l0,0.1v-0.2l0.1,0.1c-0.1-0.1-0.1-0.2,0-0.2c0.2,0.1,0-0.2,0.2-0.2l0.1,0.3
		l0.1,0c0-0.1-0.1-0.2-0.1-0.3l0.1,0.1c0-0.1-0.1-0.2,0-0.2l0.4-0.2l0.1,0.1c-0.1-0.2,0.1-0.2,0.2-0.3c0.2,0,0.2-0.2,0.4-0.1
		l0.6-0.4l0,0.1c0-0.1,0.1,0.1,0.1,0c-0.1-0.1,0-0.2,0-0.2c0.1,0,0.2-0.1,0.3-0.3l0,0.1c0-0.2,0.2-0.1,0.3-0.1l0.1,0.1
		c0-0.2,0.1-0.2,0.1-0.3l0.3,0c0.2-0.3,0.5-0.2,0.8-0.5l0,0.1c0.2-0.3,0.6-0.2,0.8-0.4l0,0.2c0.1,0,0.2-0.1,0.1-0.2
		c0.1,0,0.2-0.1,0.2,0c0.1,0,0.1-0.1,0.1-0.1l0.4,0l0,0l0,0.1c0-0.1,0.2,0,0.1-0.2c0.2,0.1,0.3-0.2,0.5,0l0-0.1
		c0.1,0,0.3,0.1,0.4-0.1l0,0.1l0-0.1c0.2-0.2,0.5,0,0.7,0c0.3-0.2,0.7-0.1,1.1-0.2l0,0c0.1-0.2,0.3,0.1,0.4-0.1l0.1,0.1
		c0.1-0.1,0.3,0.1,0.4-0.1l0,0c0.1,0.1,0.2-0.1,0.4,0l0,0.1c0.1,0.1,0.1-0.2,0.2,0l0-0.1c0.3,0,0.6-0.1,1-0.2c0.2,0.1,0,0.4,0.2,0.2
		l0,0c0.1-0.1,0.1,0.2,0.2,0.1c0-0.1,0-0.1,0-0.2c0.1,0.1,0.2,0.2,0.3,0.1l0,0.1c0.1-0.2,0.3-0.1,0.4-0.3l2.1-0.3
		c0.7,0,1.4-0.1,2.1,0c0.2,0.2,0.2,0.2,0.4,0.1l0,0.1c0-0.1,0.1,0,0.1-0.1l0.8,0l0,0.1l0.1-0.1l0,0l0-0.1c0.7-0.1,1.3,0.2,2,0.2
		c0.2,0.1,0.4,0,0.5,0c0.5,0.2,0.9,0.4,1.5,0.3C524.8,410.8,524.7,411.2,524.5,411.3L524.5,411.3L524.5,411.3z"/>
	<path class="st1" d="M505.9,414C506,414,506,413.9,505.9,414C506,413.9,506,414.1,505.9,414L505.9,414L505.9,414z"/>
	<polygon class="st1" points="506.2,413.8 506.3,413.7 506.3,413.8 506.2,413.8 506.2,413.8 	"/>
	<polygon class="st1" points="512.6,412.1 512.6,412.2 512.6,412.1 512.6,412.1 512.6,412.1 	"/>
	<path class="st1" d="M515.6,411.9C515.6,411.8,515.6,411.9,515.6,411.9L515.6,411.9L515.6,411.9L515.6,411.9z"/>
	<polygon class="st1" points="517.1,411.5 517.1,411.5 517.1,411.4 517.1,411.5 517.1,411.5 	"/>
	<path class="st1" d="M418.5,386.8c0.1,0.1,0.2,0.2,0.4,0.2c0.1,0.1,0.3,0.1,0.4,0.1c0.2,0,0.3,0,0.4-0.1c0.1-0.1,0.3-0.1,0.4-0.2
		c0.1-0.1,0.2-0.2,0.2-0.4c0.1-0.1,0.1-0.3,0.1-0.4c0-0.3-0.1-0.6-0.3-0.8c-0.2-0.2-0.5-0.3-0.8-0.3c-0.3,0-0.6,0.1-0.8,0.3
		c-0.2,0.2-0.3,0.5-0.3,0.8c0,0.2,0,0.3,0.1,0.4C418.4,386.5,418.4,386.6,418.5,386.8L418.5,386.8z"/>
	<path class="st1" d="M421.4,386.8c0.1,0.1,0.2,0.2,0.4,0.2c0.1,0.1,0.3,0.1,0.4,0.1c0.2,0,0.3,0,0.4-0.1c0.1-0.1,0.3-0.1,0.4-0.2
		c0.1-0.1,0.2-0.2,0.2-0.4c0.1-0.1,0.1-0.3,0.1-0.4c0-0.3-0.1-0.6-0.3-0.8c-0.2-0.2-0.5-0.3-0.8-0.3c-0.3,0-0.6,0.1-0.8,0.3
		c-0.2,0.2-0.3,0.5-0.3,0.8c0,0.2,0,0.3,0.1,0.4C421.3,386.5,421.3,386.6,421.4,386.8L421.4,386.8z"/>
	<path class="st1" d="M387.8,397.9c-0.1-0.1-0.2-0.2-0.3-0.2c-0.1-0.1-0.3-0.1-0.4-0.1c-0.3,0-0.6,0.1-0.8,0.3
		c-0.2,0.2-0.3,0.5-0.3,0.8c0,0.1,0,0.3,0.1,0.4c0.1,0.1,0.1,0.2,0.2,0.3c0.1,0.1,0.2,0.2,0.3,0.2c0.1,0.1,0.3,0.1,0.4,0.1
		c0.2,0,0.3,0,0.4-0.1c0.1-0.1,0.2-0.1,0.3-0.2c0.1-0.1,0.2-0.2,0.2-0.3c0.1-0.1,0.1-0.3,0.1-0.4c0-0.2,0-0.3-0.1-0.4
		C388,398.1,387.9,398,387.8,397.9L387.8,397.9z"/>
	<path class="st1" d="M390.9,397.9c-0.1-0.1-0.2-0.2-0.3-0.2c-0.1-0.1-0.3-0.1-0.4-0.1c-0.3,0-0.6,0.1-0.8,0.3
		c-0.2,0.2-0.3,0.5-0.3,0.8c0,0.1,0,0.3,0.1,0.4c0.1,0.1,0.1,0.2,0.2,0.3c0.1,0.1,0.2,0.2,0.3,0.2c0.1,0.1,0.3,0.1,0.4,0.1
		c0.2,0,0.3,0,0.4-0.1c0.1-0.1,0.2-0.1,0.3-0.2c0.1-0.1,0.2-0.2,0.2-0.3c0.1-0.1,0.1-0.3,0.1-0.4c0-0.2,0-0.3-0.1-0.4
		C391,398.1,391,398,390.9,397.9L390.9,397.9z"/>
	<path class="st1" d="M414.4,391.7c-0.2,0.3-0.4,0.6-0.7,0.9c-0.3,0.3-0.6,0.5-1,0.7c-0.4,0.2-0.8,0.4-1.3,0.5
		c-0.2-0.3-0.4-0.6-0.6-0.9c-0.3-0.3-0.6-0.6-0.9-1c-0.3-0.3-0.7-0.6-1-0.9c-0.3-0.3-0.7-0.6-1-0.8c0.5-0.1,1-0.1,1.6-0.2
		c0.6,0,1.2-0.1,1.8-0.1c0.4,0,0.8,0,1.1,0c0.4,0,0.7,0.1,1,0.1c0.3,0.1,0.6,0.1,0.8,0.2c0.2,0.1,0.3,0.1,0.4,0.2
		C414.6,391,414.5,391.3,414.4,391.7L414.4,391.7z M400.8,394.3c-0.2,0.3-0.4,0.6-0.7,0.8c-0.3,0.2-0.6,0.4-1,0.6
		c-0.4,0.1-0.8,0.2-1.2,0.2c-0.4,0-0.8-0.1-1.2-0.2c-0.4-0.1-0.7-0.3-1-0.6c-0.3-0.2-0.5-0.5-0.6-0.8c-0.2-0.3-0.2-0.7-0.2-1
		c0-0.4,0.1-0.7,0.2-1c0.2-0.3,0.4-0.6,0.7-0.8c0.3-0.2,0.6-0.4,1-0.6c0.4-0.1,0.8-0.2,1.2-0.2c0.4,0,0.8,0.1,1.2,0.2
		c0.4,0.1,0.7,0.3,1,0.6c0.3,0.2,0.5,0.5,0.7,0.8c0.2,0.3,0.2,0.7,0.2,1C401.1,393.6,401,394,400.8,394.3L400.8,394.3z M430.8,383.4
		v10.5h-1.9h-0.2h-0.6v-10.5h-2.3v10.5h-2h-0.1h-1.5v-5.3h-2.3v5.3H418h-0.1h-2.2c0.6-0.5,0.6-0.7,0.9-1.3c0.3-0.6,0.5-1.4,0.5-2.2
		c0-0.5-0.2-0.9-0.5-1.2c-0.3-0.3-0.7-0.6-1.2-0.8c-0.5-0.2-1.1-0.3-1.8-0.4c-0.7-0.1-1.4-0.1-2.1-0.1c-0.6,0-1.1,0-1.7,0.1
		c-0.6,0-1.1,0.1-1.7,0.2c-0.5,0.1-1,0.2-1.5,0.3c-0.4,0.1-0.8,0.2-1.1,0.3v2c0.1,0.1,0.3,0.2,0.5,0.4c0.2,0.2,0.4,0.3,0.7,0.5
		c0.2,0.2,0.5,0.4,0.7,0.6c0.3,0.2,0.5,0.4,0.8,0.7c0.2,0.2,0.1,0,0.3,0.3c0.2,0.2,0.4,0.4,0.6,0.6h-4.6h-0.2h-1.2
		c0-0.2,0-0.3,0.1-0.5c0-0.2,0-0.4,0-0.5c0-0.7-0.1-0.9-0.4-1.4c-0.3-0.6-0.6-1.1-1.1-1.5c-0.5-0.4-1-0.8-1.6-1
		c-0.6-0.2-1.3-0.4-2-0.4c-0.7,0-1.4,0.1-2,0.4c-0.6,0.2-1.2,0.6-1.6,1c-0.5,0.4-0.8,0.9-1.1,1.5c-0.3,0.6-0.4,1.2-0.4,1.8
		c0,0.3,0,0.2,0,0.6h-1.1h-0.2h-1.9v-5.3h-2.3v5.3H386h-0.2h-1.4c0.1-0.5,0.1-0.6,0.1-1.1c0-0.4,0-0.3,0-0.7l0-3.1h-2.3l0,3.2
		c0,0.5,0,0.9-0.1,1.3c0,0.4-0.1,0.8-0.3,1.3c-0.1,0.5-0.3,0.9-0.6,1.3c-0.2,0.4-0.5,0.7-0.8,1c-0.3,0.3-0.7,0.5-1.1,0.7
		c-0.4,0.2-0.9,0.2-1.4,0.2c-0.2,0-0.5,0-0.7-0.1c-0.2,0-0.5-0.1-0.8-0.2l-0.1,1.8c0.4,0.1,0.7,0.2,1.1,0.3c0.4,0.1,0.7,0.1,1,0.1
		c0.7,0,1.4-0.1,2.1-0.4c0.6-0.3,1.2-0.6,1.7-1.1c0.3-0.3,0.6-0.7,0.9-1c0.3-0.4,0.5-0.8,0.7-1.2h1.9h0.2h5.7h0.2h2.1
		c0.5,0.6,1.1,1,1.8,1.3c0.7,0.3,1.4,0.5,2.3,0.5c0.8,0,1.6-0.2,2.3-0.5c0.7-0.3,1.3-0.8,1.8-1.3h2.2h0.2h13.4h0.1h5.8h0.1h4.9h0.2
		h3.2c0.3,0,0.5-0.1,0.7-0.3c0.2-0.2,0.3-0.4,0.3-0.7v-11.8H430.8L430.8,383.4z"/>
	<path class="st1" d="M454.4,397.9c-0.1-0.1-0.2-0.2-0.4-0.2c-0.1-0.1-0.3-0.1-0.4-0.1c-0.3,0-0.6,0.1-0.8,0.3
		c-0.2,0.2-0.3,0.5-0.3,0.8c0,0.2,0,0.3,0.1,0.4c0.1,0.1,0.1,0.3,0.2,0.4c0.1,0.1,0.2,0.2,0.4,0.2c0.1,0.1,0.3,0.1,0.4,0.1
		c0.2,0,0.3,0,0.4-0.1c0.1-0.1,0.3-0.1,0.4-0.2c0.1-0.1,0.2-0.2,0.2-0.4c0.1-0.1,0.1-0.3,0.1-0.4c0-0.2,0-0.3-0.1-0.4
		C454.6,398.1,454.5,398,454.4,397.9L454.4,397.9z"/>
	<path class="st1" d="M457.5,397.9c-0.1-0.1-0.2-0.2-0.4-0.2c-0.1-0.1-0.3-0.1-0.4-0.1c-0.3,0-0.6,0.1-0.8,0.3
		c-0.2,0.2-0.3,0.5-0.3,0.8c0,0.2,0,0.3,0.1,0.4c0.1,0.1,0.1,0.3,0.2,0.4c0.1,0.1,0.2,0.2,0.4,0.2c0.1,0.1,0.3,0.1,0.4,0.1
		c0.2,0,0.3,0,0.4-0.1c0.1-0.1,0.3-0.1,0.4-0.2c0.1-0.1,0.2-0.2,0.2-0.4c0.1-0.1,0.1-0.3,0.1-0.4c0-0.2,0-0.3-0.1-0.4
		C457.7,398.1,457.6,398,457.5,397.9L457.5,397.9z"/>
	<path class="st1" d="M441.3,393.9c0.3-2.6,1.6-3.6,3.8-3.7c0.5,0,0.9,0.1,1.3,0.3c0.4,0.2,0.8,0.4,1.2,0.8c0.3,0.3,0.6,0.8,0.9,1.3
		c0.2,0.5,0.4,0.7,0.5,1.4L441.3,393.9L441.3,393.9z M491.5,383.4v10.5h-1.9h-0.2h-1.3c-0.1-0.6-0.2-1.1-0.4-1.6
		c-0.2-0.5-0.5-0.9-0.8-1.3c-0.3-0.4-0.7-0.8-1.2-1.1c-0.5-0.3-0.9-0.6-1.5-0.8c-0.5-0.2-1.1-0.4-1.7-0.5c-0.6-0.1-1.2-0.2-1.8-0.3
		c-0.6,0-1.3,0-1.9,0c-0.6,0.1-1.2,0.2-1.8,0.3l0.1,2.3c0.6-0.2,1.1-0.3,1.7-0.4c0.6-0.1,1.2-0.1,1.8,0c0.6,0,1.2,0.1,1.8,0.3
		c0.6,0.1,1.2,0.4,1.7,0.7c0.5,0.3,0.9,0.7,1.3,1.1c0.4,0.4,0.5,0.4,0.6,1.2h-11.1h-0.2h-1c0-0.3-0.1-0.6-0.2-1
		c-0.1-0.4-0.2-0.8-0.4-1.2c-0.2-0.4-0.4-0.8-0.8-1.2c-0.3-0.4-0.7-0.7-1.2-1c-0.5-0.3-1.1-0.5-1.8-0.7c-0.7-0.2-1.5-0.3-2.5-0.3
		h-4.1c0.5-0.7,0.5-0.7,1.1-1.2c0.6-0.5,1.3-0.7,2-1c0.5-0.1,1-0.3,1.4-0.3c0.5-0.1,1-0.1,1.4-0.2c0.5,0,0.9-0.1,1.3-0.1
		c0.4,0,0.8,0,1.1,0v-2.3c-0.4,0-0.8,0-1.2,0c-0.4,0-0.9,0-1.4,0.1c-0.5,0-1,0.1-1.6,0.2c-0.5,0.1-1.1,0.2-1.6,0.4
		c-0.5,0.2-1.1,0.4-1.6,0.7c-0.5,0.3-1,0.6-1.5,1c-0.5,0.4-0.9,0.8-1.3,1.3c-0.4,0.5-0.8,1-1,1.7c-0.1,0.5-0.1,0.8-0.1,1
		c0,0.2,0.1,0.4,0.2,0.5c0.1,0.2,0.3,0.3,0.5,0.4c0.2,0.1,0.4,0.1,0.7,0.1v0h5.6c0.7,0,1.2,0.1,1.7,0.2c0.5,0.1,0.7,0.3,1.1,0.5
		c0.4,0.2,0.7,0.4,0.9,0.6c0.2,0.2,0.4,0.5,0.6,0.7c0.1,0.3,0.3,0.5,0.3,0.8c0.1,0.3,0,0.1,0.1,0.3h-13.2h-0.2h-1.9v-5.3h-2.1v5.3
		h-1.7h-0.2h-1.2c-0.1-1-0.3-1.5-0.7-2.3c-0.4-0.8-0.8-1.4-1.4-1.9c-0.5-0.5-1.2-0.9-1.8-1.2c-0.7-0.3-1.4-0.4-2-0.4
		c-0.7,0-1.4,0.1-2.1,0.4c-0.7,0.3-1.3,0.7-1.9,1.2c-0.6,0.6-1,1.2-1.4,2.1c-0.4,0.8-0.6,1.6-0.6,2.7c-0.4,0.2-0.7,0.4-0.9,0.6
		c-0.3,0.2-0.7,0.7-0.9,1c-0.2,0.3-0.3,0.6-0.4,0.9c-0.1,0.3-0.1,0.7-0.1,1.1c0,0.6,0.1,1.3,0.4,2c0.3,0.7,0.6,1.3,1.2,1.9l1.6-1.2
		c-0.4-0.4-0.6-0.9-0.8-1.4c-0.2-0.5-0.3-0.9-0.3-1.4c0-0.3,0-0.5,0.1-0.7c0.1-0.2,0.2-0.4,0.4-0.6c0.2-0.2,0.4-0.3,0.7-0.4
		c0.3-0.1,0.6-0.2,1.1-0.2h11.1h0.2h5.7h0.2h16.4h0.2h14.5h0.2h3.2c0.3,0,0.5-0.1,0.7-0.3c0.2-0.2,0.3-0.4,0.3-0.7v-11.8H491.5
		L491.5,383.4z"/>
	<polygon class="st1" points="498.3,383.4 498.3,396.2 496,396.2 496,383.4 498.3,383.4 498.3,383.4 	"/>
	<polygon class="st0" points="380.2,409 376.4,409 376.4,404 380.2,404 380.2,405 378,405 378,405.9 380.1,405.9 380.1,406.9 
		378,406.9 378,408 380.2,408 380.2,409 	"/>
	<polygon class="st0" points="385.1,409 381.2,409 381.2,404 382.8,404 382.8,407.8 385.1,407.8 385.1,409 	"/>
	<polygon class="st0" points="393.5,409 392,409 392,407.1 389.7,407.1 389.7,409 388.2,409 388.2,404 389.7,404 389.7,405.8 
		392,405.8 392,404 393.5,404 393.5,409 	"/>
	<path class="st0" d="M397.9,407.1l-0.7-1.8l-0.7,1.8H397.9L397.9,407.1z M400.3,409h-1.6l-0.4-1h-2.2l-0.4,1h-1.6l2.2-5h1.7
		L400.3,409L400.3,409z"/>
	<polygon class="st0" points="406.2,409 404.4,409 402.4,406.7 402.4,409 400.9,409 400.9,404 402.4,404 402.4,406.2 404.3,404 
		405.9,404 404,406.4 406.2,409 	"/>
	<polygon class="st0" points="410.7,409 406.9,409 406.9,404 410.6,404 410.6,405 408.4,405 408.4,405.9 410.5,405.9 410.5,406.9 
		408.4,406.9 408.4,408 410.7,408 410.7,409 	"/>
	<polygon class="st0" points="415.5,409 411.7,409 411.7,404 415.4,404 415.4,405 413.2,405 413.2,405.9 415.3,405.9 415.3,406.9 
		413.2,406.9 413.2,408 415.5,408 415.5,409 	"/>
	<polygon class="st0" points="422.3,409 420.8,409 420.8,406.1 419.5,407.8 419.3,407.8 418,406.1 418,409 416.5,409 416.5,404 
		417.9,404 419.4,405.9 421,404 422.3,404 422.3,409 	"/>
	<polygon class="st0" points="425.8,404 428.5,404 428.5,404.6 426.5,404.6 426.5,406 428.5,406 428.5,406.7 426.5,406.7 426.5,409 
		425.8,409 425.8,404 	"/>
	<path class="st0" d="M431.7,404.6c-0.6,0-1.1,0.2-1.4,0.5c-0.4,0.4-0.6,0.8-0.6,1.4c0,0.5,0.2,1,0.6,1.4c0.4,0.4,0.8,0.5,1.4,0.5
		c0.6,0,1-0.2,1.4-0.6c0.4-0.4,0.6-0.8,0.6-1.4c0-0.5-0.2-1-0.6-1.4C432.8,404.8,432.3,404.6,431.7,404.6L431.7,404.6z M431.7,403.9
		c0.8,0,1.4,0.2,2,0.7c0.5,0.5,0.8,1.1,0.8,1.9s-0.3,1.4-0.8,1.9c-0.5,0.5-1.2,0.7-2,0.7c-0.8,0-1.4-0.2-1.9-0.7
		c-0.5-0.5-0.8-1.1-0.8-1.8c0-0.8,0.3-1.4,0.8-1.9C430.3,404.1,430.9,403.9,431.7,403.9L431.7,403.9z"/>
	<path class="st0" d="M436.3,404.6h-0.2v1.6h0.3c0.4,0,0.6,0,0.8-0.1c0.1-0.1,0.2-0.2,0.3-0.3c0.1-0.1,0.1-0.3,0.1-0.4
		c0-0.2,0-0.3-0.1-0.4c-0.1-0.1-0.2-0.2-0.4-0.3C436.9,404.6,436.7,404.6,436.3,404.6L436.3,404.6z M435.4,409V404h1.3
		c0.5,0,0.9,0.1,1.2,0.4c0.3,0.3,0.5,0.6,0.5,1c0,0.3-0.1,0.6-0.2,0.8c-0.1,0.2-0.4,0.4-0.6,0.5c0.2,0.1,0.3,0.3,0.5,0.4
		c0.2,0.2,0.4,0.5,0.7,1c0.2,0.3,0.3,0.5,0.4,0.6l0.3,0.4h-0.9l-0.2-0.3c0,0,0,0,0-0.1l-0.1-0.2l-0.2-0.4l-0.2-0.4
		c-0.1-0.2-0.3-0.4-0.4-0.5c-0.1-0.1-0.2-0.2-0.3-0.3c-0.1-0.1-0.3-0.1-0.5-0.1h-0.2v2.2H435.4L435.4,409z"/>
	<path class="st0" d="M446.3,407.9v0.8c-0.5,0.3-1.1,0.4-1.8,0.4c-0.6,0-1-0.1-1.4-0.3c-0.4-0.2-0.7-0.5-0.9-0.9
		c-0.2-0.4-0.3-0.8-0.3-1.3c0-0.7,0.3-1.4,0.8-1.9c0.5-0.5,1.2-0.8,1.9-0.8c0.5,0,1.1,0.1,1.8,0.4v0.8c-0.6-0.3-1.2-0.5-1.7-0.5
		c-0.6,0-1.1,0.2-1.4,0.5c-0.4,0.4-0.6,0.8-0.6,1.4c0,0.6,0.2,1,0.6,1.4c0.4,0.4,0.9,0.5,1.4,0.5
		C445.1,408.4,445.7,408.2,446.3,407.9L446.3,407.9z"/>
	<path class="st0" d="M449.7,404.6c-0.6,0-1.1,0.2-1.4,0.5c-0.4,0.4-0.6,0.8-0.6,1.4c0,0.5,0.2,1,0.6,1.4c0.4,0.4,0.8,0.5,1.4,0.5
		c0.6,0,1-0.2,1.4-0.6c0.4-0.4,0.6-0.8,0.6-1.4c0-0.5-0.2-1-0.6-1.4C450.7,404.8,450.2,404.6,449.7,404.6L449.7,404.6z M449.7,403.9
		c0.8,0,1.4,0.2,2,0.7c0.5,0.5,0.8,1.1,0.8,1.9s-0.3,1.4-0.8,1.9c-0.5,0.5-1.2,0.7-2,0.7c-0.8,0-1.4-0.2-1.9-0.7
		c-0.5-0.5-0.8-1.1-0.8-1.8c0-0.8,0.3-1.4,0.8-1.9C448.2,404.1,448.9,403.9,449.7,403.9L449.7,403.9z"/>
	<polygon class="st0" points="457.3,404 458,404 458,409 457.4,409 454,405.1 454,409 453.3,409 453.3,404 453.9,404 457.3,407.9 
		457.3,404 	"/>
	<path class="st0" d="M460.3,406.9l-0.6-0.3c-0.3-0.2-0.6-0.4-0.7-0.6c-0.1-0.2-0.2-0.4-0.2-0.7c0-0.4,0.1-0.7,0.4-1
		c0.3-0.2,0.6-0.4,1.1-0.4c0.4,0,0.8,0.1,1.2,0.4v0.8c-0.4-0.4-0.8-0.5-1.2-0.5c-0.2,0-0.4,0.1-0.6,0.2c-0.2,0.1-0.2,0.2-0.2,0.4
		c0,0.2,0.1,0.3,0.2,0.4c0.1,0.1,0.3,0.3,0.5,0.4l0.6,0.3c0.6,0.4,0.9,0.8,0.9,1.4c0,0.4-0.1,0.7-0.4,1c-0.3,0.3-0.6,0.4-1.1,0.4
		c-0.5,0-1-0.2-1.4-0.5v-0.9c0.4,0.5,0.8,0.7,1.4,0.7c0.2,0,0.4-0.1,0.6-0.2c0.2-0.1,0.2-0.3,0.2-0.5
		C461,407.5,460.8,407.2,460.3,406.9L460.3,406.9z"/>
	<polygon class="st0" points="462.1,404 466.3,404 466.3,404.6 464.5,404.6 464.5,409 463.8,409 463.8,404.6 462.1,404.6 462.1,404 
			"/>
	<path class="st0" d="M467.9,404.6h-0.2v1.6h0.3c0.4,0,0.6,0,0.8-0.1c0.1-0.1,0.2-0.2,0.3-0.3c0.1-0.1,0.1-0.3,0.1-0.4
		c0-0.2,0-0.3-0.1-0.4c-0.1-0.1-0.2-0.2-0.4-0.3S468.3,404.6,467.9,404.6L467.9,404.6z M467,409V404h1.3c0.5,0,0.9,0.1,1.2,0.4
		c0.3,0.3,0.5,0.6,0.5,1c0,0.3-0.1,0.6-0.2,0.8c-0.1,0.2-0.4,0.4-0.6,0.5c0.2,0.1,0.3,0.3,0.5,0.4c0.2,0.2,0.4,0.5,0.7,1
		c0.2,0.3,0.3,0.5,0.4,0.6l0.3,0.4H470l-0.2-0.3c0,0,0,0,0-0.1l-0.1-0.2l-0.2-0.4l-0.2-0.4c-0.1-0.2-0.3-0.4-0.4-0.5
		c-0.1-0.1-0.2-0.2-0.3-0.3c-0.1-0.1-0.3-0.1-0.5-0.1h-0.2v2.2H467L467,409z"/>
	<path class="st0" d="M474.8,404h0.7v2.9c0,0.4,0,0.7-0.1,0.9c-0.1,0.2-0.1,0.4-0.2,0.5c-0.1,0.1-0.2,0.2-0.3,0.4
		c-0.4,0.3-0.9,0.5-1.6,0.5c-0.7,0-1.2-0.2-1.6-0.5c-0.1-0.1-0.2-0.2-0.3-0.4c-0.1-0.1-0.2-0.3-0.2-0.5c-0.1-0.2-0.1-0.5-0.1-0.9
		V404h0.7v2.9c0,0.5,0.1,0.8,0.2,1c0.1,0.2,0.3,0.3,0.5,0.4c0.2,0.1,0.5,0.2,0.8,0.2c0.4,0,0.8-0.1,1.1-0.3c0.1-0.1,0.2-0.3,0.3-0.4
		c0.1-0.2,0.1-0.4,0.1-0.8V404L474.8,404z"/>
	<path class="st0" d="M480.9,407.9v0.8c-0.5,0.3-1.1,0.4-1.8,0.4c-0.6,0-1-0.1-1.4-0.3c-0.4-0.2-0.7-0.5-0.9-0.9
		c-0.2-0.4-0.3-0.8-0.3-1.3c0-0.7,0.3-1.4,0.8-1.9c0.5-0.5,1.2-0.8,1.9-0.8c0.5,0,1.1,0.1,1.8,0.4v0.8c-0.6-0.3-1.2-0.5-1.7-0.5
		c-0.6,0-1.1,0.2-1.4,0.5c-0.4,0.4-0.6,0.8-0.6,1.4c0,0.6,0.2,1,0.6,1.4c0.4,0.4,0.9,0.5,1.4,0.5
		C479.7,408.4,480.3,408.2,480.9,407.9L480.9,407.9z"/>
	<polygon class="st0" points="481.3,404 485.6,404 485.6,404.6 483.8,404.6 483.8,409 483.1,409 483.1,404.6 481.3,404.6 481.3,404 
			"/>
	<polygon class="st0" points="486.3,404 487,404 487,409 486.3,409 486.3,404 	"/>
	<path class="st0" d="M490.6,404.6c-0.6,0-1.1,0.2-1.4,0.5c-0.4,0.4-0.6,0.8-0.6,1.4c0,0.5,0.2,1,0.6,1.4c0.4,0.4,0.8,0.5,1.4,0.5
		c0.6,0,1-0.2,1.4-0.6c0.4-0.4,0.6-0.8,0.6-1.4c0-0.5-0.2-1-0.6-1.4C491.7,404.8,491.2,404.6,490.6,404.6L490.6,404.6z M490.6,403.9
		c0.8,0,1.4,0.2,2,0.7c0.5,0.5,0.8,1.1,0.8,1.9s-0.3,1.4-0.8,1.9c-0.5,0.5-1.2,0.7-2,0.7c-0.8,0-1.4-0.2-1.9-0.7
		c-0.5-0.5-0.8-1.1-0.8-1.8c0-0.8,0.3-1.4,0.8-1.9C489.2,404.1,489.8,403.9,490.6,403.9L490.6,403.9z"/>
	<polygon class="st0" points="498.3,404 499,404 499,409 498.3,409 494.9,405.1 494.9,409 494.3,409 494.3,404 494.8,404 
		498.3,407.9 498.3,404 	"/>
</g>
<g>
	<path class="st2" d="M599.9,866.7c-49.7,0-98.1-12.9-145-25.3c-47.3-12.6-96.3-25.6-147.1-25.6c-20.5,0-39.9,2-59.2,6.2L226.9,833
		l-0.1-26.2l0.1-614.8c-0.4-6.7-0.9-33.8,14.1-49.9c7-7.5,16.2-11.4,26.8-11.4c45.3,0,87.8,0,128.2,0l261.8,0h72.6
		c19.6,0,43.1,10.6,43.1,61v566.6l-0.1,48l-8,3.6C713.2,848.1,659.1,866.7,599.9,866.7 M307.9,783.4c55,0,106.1,13.5,155.4,26.6
		c46.9,12.5,91.2,24.2,136.7,24.2c50.8,0,95.8-14.9,141.1-46.9l0.1-29.3V191.6c0-28.6-6.4-28.6-10.6-28.6l-72.6,0l-261.8,0
		c-40.4,0-82.9,0-128.3,0c-1.8,0-2.4,0.5-3.1,1.1c-4.3,4.6-5.9,18.4-5.4,26.2l0,1.1l0,595.7C275.2,784.6,291.2,783.4,307.9,783.4"/>
	<path class="st2" d="M730.5,146.8c-139.5-0.1-277.6,0.1-462.7,0c-27.7,0-24.7,44.6-24.7,44.6l0,615.3
		c141.7-70.4,326.2,89.2,514.1-11l0.1-37.5V191.6C757.3,174.1,755.8,146.8,730.5,146.8"/>
	<path class="st3" d="M243.1,469.9v326.4c130.7-81.3,326.2,86.1,514.1-12.2v-37.9V469.9"/>
	<path class="st3" d="M757.2,795.7c-206,97-355.6-69.4-514,10.9C432,764.3,572.1,932.7,757.2,795.7"/>
	<path class="st4" d="M404.1,211.4c-18.5-0.4-36.7-1.6-36.7-1.6l-0.4,33.7h76v-34C442.9,209.4,423.8,211.7,404.1,211.4"/>
	<path class="st4" d="M462.5,207.9l-0.1,35.5h76.1v-48.1c0,0-18.5,4.5-41,7.9C479.1,206,462.5,207.9,462.5,207.9"/>
	<path class="st4" d="M557.9,191l0.2,52.4h76v-83.6c0,0-19.8,12.5-42.1,21C572.8,188.1,557.9,191,557.9,191"/>
	<polygon class="st4" points="366.9,345.4 442.9,345.4 442.9,266.9 367.4,266.9 	"/>
	<polygon class="st4" points="366.9,447.4 442.9,447.4 442.9,368.5 367.4,368.4 	"/>
	<polygon class="st4" points="462.3,345.4 538.4,345.4 538.4,266.9 462.7,266.9 	"/>
	<polygon class="st4" points="462.3,447.4 538.4,447.4 538.4,368.5 462.7,368.4 	"/>
	<polygon class="st4" points="557.5,345.4 633.5,345.4 633.5,266.9 558,266.9 	"/>
	<path class="st3" d="M633.9,406.4c0,20.9-17,37.9-37.9,37.9c-20.9,0-37.9-16.9-37.9-37.9c0-20.9,17-37.9,37.9-37.9
		C616.9,368.5,633.9,385.5,633.9,406.4"/>
	<path class="st2" d="M294,544.1h-3.8l-2.3,3l-7.6-3.5c-3.1-1.4-5.4-3-6.8-4.7c0.7-1.4,1.4-2.9,2.1-4.4c-0.1-0.1-0.1-0.1-0.2-0.1
		c-0.7,0-1.6,0.3-2.6,0.8c-1.3,0.6-1.8,1.2-1.7,1.8l1.5,12.8c0.1,1-0.9,3.8-3.3,8.3l-2.5-17.9c-0.2-1.1,0.6-3.1,2.2-5.9
		c0.4-0.8,1-1.8,1.9-3.1c1.9-1.9,6.9-3.7,15-5.1c0.2,1.9,0.7,4,1.4,6.3c1,3.3,2,4.9,3.1,4.9h3.7V544.1z M283.1,533.1
		c-0.7,0.2-1.4,0.5-2.1,0.7c-0.8,0.3-1.4,0.7-1.8,1.1c1.3,1.1,3,2,5,2.8C283.7,536.2,283.4,534.7,283.1,533.1"/>
	<rect x="291.3" y="537.3" class="st2" width="10.4" height="6.9"/>
	<rect x="298.8" y="537.3" class="st2" width="10.4" height="6.9"/>
	<rect x="306.4" y="537.3" class="st2" width="10.4" height="6.9"/>
	<rect x="313.9" y="537.3" class="st2" width="10.4" height="6.9"/>
	<path class="st2" d="M342.3,544.1h-4.1c-2.2,0-3.7-1.3-4.5-4c-0.4,0.6-1.1,1.9-2.3,4h-9.8v-6.9h11.2c0.3-0.6,0.5-1.4,0.5-2.3
		c-0.1,2.3-0.1,1.6-0.1-2.4c0-0.8,0.6-1.8,1.9-3.2l2.8-2.9v3.3c0,1-0.4,3.6-0.4,4.6c0,1.9,0.9,2.9,2.9,2.9h1.9V544.1z M339.7,550.7
		c-0.6,0.8-1.3,1.6-1.8,2.4c-1,1.3-1.6,1.9-1.8,1.9c-0.4,0-2-0.9-4.8-2.8c-0.7,0.4-1.5,1.3-2.6,2.6c-1.6-0.6-3.3-1.5-5-2.8
		c0.2-0.4,0.7-1.1,1.6-2.2c0.7-0.7,1.3-1.4,2-2.2c1.2,0.9,2.7,1.8,4.4,2.8l2.9-2.9L339.7,550.7z"/>
	<rect x="339.6" y="537.3" class="st2" width="10.4" height="6.9"/>
	<path class="st2" d="M367.5,544.2h-4.5c-1.9,0-3.3-1.3-4.1-4c-0.4,0.7-1.3,2-2.3,4h-9.8v-6.9h11.2c0.3-0.6,0.5-2.2,0.5-4.8
		c0-0.6,0.6-1.6,1.9-3.1l2.7-2.8v3.1c0,0.5-0.1,1.3-0.3,2.4c-0.1,1.1-0.2,1.8-0.2,2.4c0,2.3,0.6,2.8,2.2,2.8h2.6V544.2z
		 M362.6,523.2c-0.9,1.1-1.4,1.7-1.6,1.7c-0.4,0-1.9-0.9-4.4-2.6l-2.3,2.6c-2.1-1-3.6-1.8-4.5-2.7c0.7-1.2,1.8-2.5,3.2-3.8
		c2.2,1.5,3.5,2.3,4,2.3c0.2,0,0.6-0.4,1.4-1.2c0.8-0.8,1.3-1.2,1.4-1.2c0.1,0,1.6,0.9,4.4,2.7C363.8,521.5,363.3,522.3,362.6,523.2
		 M358.4,517.9c-0.8,0.6-1.4,0.9-1.8,0.9c-0.8,0-2-0.8-3.6-2.4c1.6-2.1,2.7-3.1,3.3-3.1c0.5,0,1.8,1,3.7,2.9
		C359.8,516.7,359.2,517.2,358.4,517.9"/>
	<path class="st2" d="M388.3,544.1h-7.9l-1.8-3.1c-0.4,0.7-1.1,1.8-2,3.1h-11.2v-6.9h10.5c-1.3-1.8-2.9-2.8-4.9-2.8
		c-0.1,0-0.9,0.1-2.3,0.3c1.4-3.2,2.5-5.2,3.3-6c1.4-1.4,3.5-2.2,6.5-2.2c1.8,0,3.5,0.6,5.2,1.7c1.8,1.3,2.8,2.8,2.8,4.5
		c0,0.6-0.2,1.3-0.8,2.3l-1.3,2.2c0.2-0.1,1.6-0.1,4-0.1V544.1z"/>
	<path class="st2" d="M396.5,527.3l0.8,8.5c0.1,0.6-0.1,1.9-0.6,4s-0.8,3.4-1.1,3.8c-0.1,0.1-0.4,0.3-1,0.6h-8.4v-6.9h6.6
		c0.1-0.2,0.2-0.4,0.2-0.6c0-1.2-0.3-3.5-0.8-7c-0.6-3.5-1-5.7-1.4-6.6c-0.6-0.4-1.3-1.1-1.9-1.9c1.6-3.5,3.1-5.9,4.5-7.4l0.4,0.3
		c0.1,0.8,0.2,1.5,0.4,2.1c0.2,0.6,1.3,1.4,3.3,2.6c1.6,0.9,2.9,1.7,4,2.2L396.5,527.3z"/>
	<path class="st2" d="M409.5,544.6l-2.8-20.2c0.8-2.3,2.3-5,4.6-8.2c1.2,8.1,1.8,14.1,1.8,17.8C413.1,538.2,411.9,541.8,409.5,544.6
		"/>
	<path class="st2" d="M481.4,535.6c0.1,0.3-0.2,1.6-0.7,3.9c-0.5,2.2-0.8,3.4-1,3.6c-0.3,0.4-0.8,0.7-1.4,1h-14.7
		c-0.5,0-0.8-0.6-1-1.7l-0.3-2.3c-0.6,0.9-1.3,2.2-2.3,4h-10.5c-1.3,0-2.3-0.9-3.1-2.6c-0.5-1.4-1-2.8-1.4-4.1
		c-0.1,0.1-0.8,1.1-2,2.8c-1,1.4-1.7,2-2.3,1.9l-11.7-1.8c1.2-3.6,2.2-6.2,3-7.5c0.9-1.3,2.2-2.5,3.9-3.4l7-3.5
		c-0.4-1.1-0.5-1.7-0.5-1.7c0-0.4,1.3-2.5,3.9-6.2c0.6,2.1,1.1,5,1.8,8.8c0.7,4.3,1.3,7.2,1.6,8.9c0.2,0.4,0.9,0.8,1.9,1.1
		c1,0.3,1.7,0.4,2.3,0.4h8.6l-2.9-16.7V520c1.1-1.5,2.9-3.7,5.3-6.5c0.6,1,1.2,4.5,1.7,10.6c0.4,4,0.8,7.8,1.1,11.8
		c0.1,0.9,0.5,1.3,1.1,1.3h7.7c0.2-0.3,0.3-0.7,0.2-1.1l-2.8-15.7c0,0,0-0.1,0.1-0.4l2.5-3.1c1.1-1.3,2-2.2,2.8-2.6L481.4,535.6z
		 M444.4,534.2l-1-5.1c-0.6,0.6-1.4,1.5-2.5,2.6c-1,0.4-2,1-3,1.8c2.7,0.5,4.3,0.8,4.8,0.8H444.4z M465.4,510.9
		c-0.3,0-1.3-0.6-1.6-0.6c-1,1-1.9,1.4-3,1.4c-1.3,0-1.9-0.8-1.9-2.2c0-0.6,0.3-1.6,0.9-2.9l0.4-0.2c0.1,0.3,0.2,0.7,0.1,1.1
		c-0.1,0.7-0.1,1.1-0.1,1.1c0,0.7,0.4,1.1,1.2,1.1c0.6,0,1.1-0.2,1.5-0.6c-0.3-0.5-0.4-1.2-0.4-1.9c0-0.8,0.4-1.3,1.1-1.8v0.3
		c0,0.6,0.1,1.1,0.3,1.8c0.3,0.8,0.6,1.3,1.1,1.3h0.9c-0.1-0.3-0.6-1.6-0.6-1.9c0-0.2,0.2-0.6,0.7-1.3c0.6,0.4,0.9,1.3,0.9,2.7
		C466.9,510.1,466.4,510.9,465.4,510.9 M463.4,503.8c-0.2-1.6-0.9-3.9-1.9-6.8c0.4-1.1,0.9-1.9,1.4-2.6c1.1,2,1.6,4,1.6,6.1
		C464.5,501.1,464.2,502.3,463.4,503.8"/>
	<path class="st2" d="M488.8,544.6l-2.8-20.2c0.8-2.3,2.3-5,4.6-8.2c1.2,8.1,1.8,14.1,1.8,17.8C492.4,538.2,491.2,541.8,488.8,544.6
		"/>
	<path class="st2" d="M525.1,544.1h-7c-0.3,0-0.7-0.6-1.1-1.6l-0.8-2.1c-0.3,0.2-0.8,0.9-1.3,2.1c-0.6,1.1-1.1,1.7-1.4,1.7h-13.3
		c-0.8,0-1.4-1.1-1.4-1.9c0-1.6,0.3-3.6,0.9-6c0.7-3.1,1.4-4.7,2.4-4.8c0,0.8-0.2,2.8-0.2,3.5c0,1.4,0.3,2.1,0.9,2.1h12.4l0.1-0.5
		l-2.6-10.4l3.6-7.1l2.6,9.9c1.4,5.1,2.4,7.9,3,8.2h3.2V544.1z"/>
	<rect x="522.1" y="537.3" class="st2" width="10.4" height="6.9"/>
	<rect x="529.6" y="537.3" class="st2" width="10.4" height="6.9"/>
	<path class="st2" d="M559.4,544.1h-5.6c-1.7,0-3.1-1.4-4.1-4.1l-2.4,4.1h-10.5v-6.9h12.1c0.2,0,0.2-0.6,0.2-1.8
		c0-2.1,0.1-3.4,0.4-4c0.4-0.9,1.1-1.8,2-2.8l2.4-2.5v4.2c0,0.8-0.5,3-0.5,3.8c0,1.9,0.9,2.9,2.8,2.9h3.2V544.1z M550.6,556.8
		c-1.3,1.1-2.2,1.6-2.7,1.6c-0.3,0-1.2-0.6-2.6-1.8c-1.4-1.1-2.1-1.9-2.1-2.2c0-0.3,0.7-1.1,2.1-2.5c1.4-1.3,2.3-1.9,2.6-1.9
		c0.3,0,1.2,0.7,2.8,2.1c1.6,1.4,2.3,2.2,2.3,2.5C552.5,555.2,551.8,555.9,550.6,556.8"/>
	<path class="st2" d="M587.1,537.1l-4.1,7h-25.9v-6.9h4.7c0-0.7,0.1-1.8,0.3-3.2c0.6-1.8,2.3-3.8,5.1-6c2.9-2.2,5.3-3.3,7.2-3.3
		c2.3,0,4.3,1,6,3c1.5,1.8,2.5,3.8,3.1,6.3c-2.8-1.5-4.2-2.3-4.4-2.4c-1.3-0.5-2.9-0.8-5-0.8c-3,0-5.3,0.4-6.8,1.1l-0.1-0.1
		c-0.1,0-0.1,0.1-0.1,0.2c0,0.3,0.9,1.2,2.8,2.7c1.9,1.5,3,2.3,3.4,2.3H587.1z"/>
	<path class="st2" d="M616.2,515.9c-0.3,0.5-0.9,1.3-1.8,2.4c-1.1,1.2-1.7,1.8-1.9,1.8c-0.6,0-2.3-0.9-5.2-2.6
		c-0.4,0.3-1.4,1.1-2.9,2.5c-1.3-0.4-3-1.3-5.2-2.7c0.4-0.5,1.6-1.9,3.7-4.2c2.5,1.8,4,2.6,4.7,2.6c-0.1,0,1.1-0.9,3.3-2.6
		L616.2,515.9z M627.5,544.1H621c-1.3,0-2.4-0.8-3.1-2.4l-1.3-4c-0.3,0.2-0.9,1.2-1.9,2.9c-0.9,1.5-1.6,2.2-2.1,2.1l-11.4-2
		c1-3.7,1.8-6.2,2.5-7.6c0.8-1.4,2-2.6,3.5-3.6l6.8-3.9c-0.3-0.7-0.5-1.3-0.6-1.9l3.8-6.5l0.3,0.2c0.4,1.4,1,4.6,1.8,9.4
		c0.7,4.1,1.4,7.1,1.9,8.9c0.3,0.9,1.3,1.4,3,1.4h3.2V544.1z M616,534.6l-1.1-5.5c-0.6,0.8-1.5,1.8-2.8,3.1
		c-0.7,0.3-1.4,0.8-2.4,1.6L616,534.6z"/>
	<rect x="624.7" y="537.3" class="st2" width="10.4" height="6.9"/>
	<rect x="632.3" y="537.3" class="st2" width="10.4" height="6.9"/>
	<rect x="639.8" y="537.3" class="st2" width="10.4" height="6.9"/>
	<rect x="647.3" y="537.3" class="st2" width="10.4" height="6.9"/>
	<path class="st2" d="M678.2,513.3c-0.4,2.1-1.1,4.4-1.8,6.9l-13.4,4l7.3,5.9c3.7,3.1,5.5,5.3,5.5,6.6c0,0.6-0.7,3.1-2,7.4h-19.6
		v-6.9h15.7l-7-5.4c-0.2,0.5-0.6,0.8-1.1,0.8c-0.4,0-1.4-0.8-2.9-2.3c-1.5-1.6-2.3-2.6-2.3-2.9c0-1,0.2-2.4,0.7-4.1l1-4.1
		L678.2,513.3z"/>
	<path class="st2" d="M705.7,544.1h-4.6c-0.6,0-1.4-0.2-2.4-0.8l-0.3,0.4l-3.9,6.8c-1.9,2.7-4,4.1-6.3,4.1c-1.6,0-3.8-0.8-6.8-2.2
		c-2.9-1.4-5-2.8-6.1-4.1v-0.8c0-0.1,0.1-0.1,0.3-0.1c-0.1,0,0.6,0.4,2.1,1.3c1.5,0.8,2.8,1.3,4,1.3c1.8,0,4.4-1.2,7.9-3.5
		c3.5-2.3,5.2-4.2,5.2-5.7c0-0.7-0.6-1.8-1.8-3.4c-1.2-1.6-1.8-2.5-1.8-2.5c0-0.3,0.5-1.2,1.5-2.9c1.1-1.7,1.7-2.7,2.1-3.1l3.8,5.7
		c1.4,1.8,3.4,2.7,6,2.7h1.2V544.1z"/>
	<path class="st2" d="M717.5,544.1h-5.5c-0.1-0.6-0.2-1.1-0.6-1.8c-0.4,0.3-1.5,1.8-2.3,1.8h-5.5v-6.9h7.1c0.6-1,0.8-2.1,0.8-3.3
		c0-0.6,0.6-1.6,1.8-2.9c1.2-1.4,2.1-2.2,2.8-2.5c0.1,1.1,0.1,1.6,0.1,1.6c0,1.1-0.6,3.5-1.9,7.1h3.1V544.1z"/>
	<path class="st2" d="M731.2,521.6c-0.3,0.5-0.9,1.3-1.8,2.4c-1.1,1.3-1.8,1.9-2.1,1.9c-0.2,0-2-1-5.2-2.8l-3,2.6
		c-1.1-0.1-2.9-1-5.3-2.8c0.2-0.4,0.9-1.2,1.9-2.3c1.1-1.2,1.7-1.8,2-1.8c2.6,1.7,4.1,2.6,4.7,2.6c0.2,0,0.7-0.4,1.6-1.2l1.7-1.6
		L731.2,521.6z M733.7,535.7c0,1.4-0.3,2.8-0.8,4.3c-0.5,1.3-1,2.7-1.6,4.1h-9.6c-0.1-0.3-0.4-0.6-0.7-1l-1,1h-5.2v-6.9h6
		c0-0.6,0.2-1.4,0.5-2.6c1.7-3.2,3.3-5,4.8-5.5v0.4c0,0.6-0.3,1.7-1,3.6c-0.6,1.8-0.9,3.1-0.9,3.9c0,0.1,0.1,0.2,0.2,0.2h4.5
		c0.1-0.1,0.2-0.2,0.2-0.4c0-0.5-0.2-1.7-0.2-2.2c0-0.8,0.6-2,1.9-3.5c1.1-1.4,2-2.4,2.8-2.9V535.7z M723.9,518.2
		c-1,0.8-1.6,1.3-1.9,1.3c-0.2,0-0.9-0.4-2-1.3c-1.1-0.9-1.6-1.4-1.6-1.6c0-0.2,0.6-0.8,1.6-1.9c1.1-1.1,1.7-1.6,1.9-1.6
		c0.3,0,1.6,1.1,3.9,3.3C725.5,516.8,724.9,517.4,723.9,518.2"/>
	<path class="st2" d="M298.5,591.9c-0.7,2-1.2,3.1-1.3,3.5c0.1-1.5-1.6-3.5-3.1-3.5c-1.2,0-2.9,0.8-5.3,2.2
		c-2.5,1.6-3.8,2.8-3.8,3.9c0,0.9,1,1.5,3,1.7l5.6,0.5c2.1,0.3,3.1,1.1,3.1,2.3c0,0.4-0.1,1.1-0.4,2c-1.1,3.6-2.1,5.8-2.8,6.6
		c-0.8,0.8-3,1.9-6.7,3.3l-2.4-1.3c-2.1,1.8-3.3,2.7-3.4,2.7c-0.4,0-1.2-0.4-2.4-1.1c-1-0.6-1.8-1.1-2.3-1.5l-2.3,2.1h-0.4
		c-1.8,0-3.3-0.8-4.5-2.5c-1-1.5-1.5-3.2-1.5-5.2c0-4.1,1.5-8.5,4.6-13.1c0,0.3,0.2,1.3,0.2,1.7c0,0.6-0.3,1.7-0.9,3.2
		c-0.6,1.5-0.9,2.8-0.9,3.8c0,3.8,3.3,5.8,9.8,5.8c4.3,0,8.5-1,12.7-3.1l-0.4-0.2c-0.6-0.2-1.4-0.2-2.5-0.2
		c-1.8,0.1-2.6,0.1-2.5,0.1c-4.2,0-6.3-1.2-6.3-3.7c0-3.3,1.5-6.8,4.5-10.5c3.2-4,6.3-5.9,9.5-5.9c2.5,0,3.7,0.9,3.7,2.9
		C299.4,589.3,299.1,590.3,298.5,591.9 M290,618.3c-1.3,2-2.7,3.3-4.1,4l-5.1-2.6l-3,2.9c-1.5-0.5-3.3-1.5-5.2-3.1
		c1.3-1.6,2.6-2.9,4-4c2.3,1.7,3.8,2.6,4.7,2.6c-0.1,0,1.1-0.9,3.3-2.7L290,618.3z"/>
	<path class="st2" d="M313.7,613c-1.9,4-4.3,6-6.8,6c-1.3,0-3.6-0.6-7-1.9c-3.6-1.4-5.4-2.6-5.4-3.5c0-0.2,0.1-0.4,0.2-0.7h0.8
		c2.8,1.3,4.8,1.9,6,1.9c1.7,0,4-1.3,7-3.8c3-2.5,4.5-4.5,4.5-6.1c0-0.8-1.8-3.1-5.4-6.7c0.4-1.4,1.3-3.6,2.5-6.4
		c2.2,2,3.7,3.7,4.6,5.2c1.1,1.9,1.7,4.1,1.7,6.6C316.3,606.5,315.4,609.6,313.7,613"/>
	<path class="st2" d="M331.3,608.8h-9.5l-2.2-24.6c0-0.3,0.6-1.3,1.9-2.9c1.2-1.5,2-2.5,2.4-2.8l0.8,11.4c0.4,5.1,0.8,8.8,1.4,11
		c0.1,0.7,0.8,1,2,1h3.3V608.8z"/>
	<path class="st2" d="M353.1,608.8h-25v-6.9h5.9c0-0.5,0.1-1.2,0.4-2.2c1.1-1.9,2.9-3.9,5.6-6c2.9-2.3,5.3-3.5,7.3-3.5
		c1.4,0,2.4,0.8,3.1,2.3c0.5,1.2,0.7,2.6,0.7,4.1c0,1.1-0.8,2.8-2.4,5.3h4.4V608.8z M349.1,583.1c-1.2,1.8-2.5,3.3-4,4.3l-5.3-2.8
		c-0.9,0.7-1.8,1.6-2.8,2.6c-1.4-0.3-3.3-1.3-5.6-2.9c1.3-1.6,2.6-3.1,4-4.3c2.5,1.7,4.1,2.6,4.8,2.6c0.2,0,0.8-0.4,1.7-1.2l1.7-1.6
		L349.1,583.1z M343,597.1c-0.5,0-1.4,0.3-2.6,0.9c-1.3,0.6-1.9,1.1-1.9,1.5c0,0.7,0.6,1.2,1.7,1.6c1,0.4,1.9,0.6,2.7,0.6
		c2,0,3-0.4,3-1.2C345.9,599,344.5,597.1,343,597.1"/>
	<path class="st2" d="M373.6,608.8h-7.9l-1.8-3.1c-0.4,0.7-1.1,1.8-2,3.1h-11.2v-6.9h10.5c-1.3-1.8-2.9-2.8-4.9-2.8
		c-0.1,0-0.9,0.1-2.3,0.3c1.4-3.2,2.5-5.2,3.3-6c1.4-1.4,3.5-2.2,6.5-2.2c1.8,0,3.5,0.6,5.2,1.7c1.8,1.3,2.8,2.8,2.8,4.5
		c0,0.6-0.2,1.3-0.8,2.3l-1.3,2.2c0.2-0.1,1.6-0.1,4-0.1V608.8z"/>
	<path class="st2" d="M381.8,591.9l0.8,8.5c0.1,0.6-0.1,1.9-0.6,4c-0.4,2.1-0.8,3.4-1.1,3.8c-0.1,0.1-0.4,0.3-1,0.6h-8.4v-6.9h6.6
		c0.1-0.2,0.2-0.4,0.2-0.6c0-1.2-0.3-3.5-0.8-7c-0.6-3.5-1-5.7-1.4-6.6c-0.6-0.4-1.3-1.1-1.9-1.9c1.6-3.5,3.1-5.9,4.5-7.4l0.4,0.3
		c0.1,0.8,0.2,1.5,0.4,2.1c0.2,0.6,1.3,1.4,3.3,2.6c1.6,0.9,2.9,1.7,4,2.2L381.8,591.9z"/>
	<path class="st2" d="M393.2,609.3l-2.8-20.2c0.8-2.3,2.3-5,4.6-8.2c1.2,8.1,1.8,14.1,1.8,17.8C396.8,602.9,395.6,606.5,393.2,609.3
		"/>
	<path class="st2" d="M428.4,608.8h-4.6c-0.6,0-1.4-0.2-2.4-0.8l-0.3,0.4l-3.9,6.8c-1.9,2.7-4,4.1-6.3,4.1c-1.6,0-3.8-0.8-6.8-2.2
		c-2.9-1.4-5-2.8-6.1-4.1v-0.8c0-0.1,0.1-0.1,0.3-0.1c-0.1,0,0.6,0.4,2.1,1.3c1.5,0.8,2.8,1.3,4,1.3c1.8,0,4.4-1.2,7.9-3.5
		c3.5-2.3,5.2-4.2,5.2-5.7c0-0.7-0.6-1.8-1.8-3.4c-1.2-1.6-1.8-2.5-1.8-2.5c0-0.3,0.5-1.2,1.5-2.9c1.1-1.7,1.7-2.7,2.1-3.1l3.8,5.7
		c1.4,1.8,3.4,2.7,6,2.7h1.2V608.8z"/>
	<path class="st2" d="M444.3,608.8h-18.2v-6.9h15.1c-0.8-2.3-2.1-4.6-3.9-7l3.6-6.1c3.2,3.8,4.9,7.3,4.9,10.3
		C445.7,600.7,445.2,604,444.3,608.8 M430.2,613.1c2.5,1.8,4,2.6,4.5,2.6c0.3,0,0.8-0.4,1.6-1.3c0.8-0.8,1.3-1.3,1.6-1.4l5,3.1
		c-1.3,2-2.5,3.5-3.7,4.3l-4.7-2.8c-0.6,0.6-1.6,1.4-2.8,2.7c-2.2-1.1-3.8-2.1-4.8-3C427.8,615.9,429,614.5,430.2,613.1"/>
	<path class="st2" d="M468,608.8h-4.8c-1.1,2.5-2.5,4.7-4.3,6.6c-2.3,2.5-4.5,3.7-6.6,3.7c-1.8,0-3.8-0.4-6.1-1.3
		c-2.5-1-4.1-2-5.2-3.2V614c0.2-0.1,0.4-0.2,0.5-0.2c0.6,0,1.6,0.2,2.8,0.5c1.2,0.3,2.1,0.5,2.7,0.5c1.8,0,4-0.6,6.5-2
		c2.2-1.2,4-2.5,5.5-4c-3.3-0.6-5.1-0.9-5.5-1.1c-2.1-0.7-3.2-2-3.2-3.8c0-1.9,0.8-4.5,2.5-7.7c1.8-3.5,3.7-5.3,5.5-5.3
		c2.8,0,4.8,3.6,6,10.8h3.8V608.8z M458,599.1c-0.6-1-1.2-1.5-1.8-1.5c-0.3,0-0.8,0.2-1.3,0.8c-0.6,0.6-0.8,0.9-0.8,1.3v0.2
		c0.7,1.2,2,1.8,3.8,1.8c0.4,0,0.8-0.1,1.3-0.3L458,599.1z"/>
	<path class="st2" d="M501.5,608.8h-36.1v-6.9h3.1c1.8,0,2.6-0.5,2.6-1.6c0-1.7-0.5-6.1-1.6-13.2c-0.2-1.1-1.4-2.1-1.4-3
		c0-1.1,1.3-3.1,3.8-6l1.1,1.9c1.2,1.8,3.2,3.3,6,4.4l-1.5,3.4c-0.8,1.3-1.6,2.1-2.6,2.2c-0.1,0.2-0.1,0.6,0,0.9
		c0.1,0.4,0.1,0.7,0.1,0.9v3.1c0,0.4-0.2,1.1-0.6,2.2c-0.4,0.9-0.6,1.7-0.6,2.1v0.3c2.5-1.5,5.4-3.1,8.7-4.6c4.4-2.1,7.4-3.1,9-3.1
		c1.3,0,3,1,5,2.9c2.1,2,3.1,3.6,3.1,4.8c0,0.1-0.3,0.9-1,2.4h2.8V608.8z M493.6,602c-0.4-1.1-1.3-2.1-2.5-3
		c-1.2-0.9-2.4-1.3-3.6-1.3c-2.7,0-6.3,1.4-10.8,4.3H493.6z"/>
	<path class="st2" d="M519.5,608.8h-4.4c-2.1,0-3.4-1.3-4.1-4c-0.4,0.7-1.3,2-2.3,4h-9.8v-6.9h11.2c0.3-0.6,0.5-2.1,0.5-4.8
		c0-0.6,0.6-1.6,1.9-3.1l2.7-2.8v2.9c0,0.6-0.1,1.5-0.3,2.7c-0.2,1.2-0.3,2.1-0.3,2.6c0,0.3,0.2,0.8,0.6,1.4c0.4,0.7,0.8,1,1.1,1
		h3.3V608.8z M517.7,582.4c-0.7,1.6-2,3-4,4.3l-5.4-2.8c-1.7,1.8-2.6,2.6-3,2.6c-0.9,0-2.7-1-5.4-2.9l4.1-4.1c2.4,1.7,4,2.6,4.8,2.6
		c0.1,0,0.7-0.4,1.6-1.3l1.7-1.5L517.7,582.4z"/>
	<path class="st2" d="M527.7,591.9l0.8,8.5c0.1,0.6-0.1,1.9-0.6,4c-0.4,2.1-0.8,3.4-1.1,3.8c-0.1,0.1-0.4,0.3-1,0.6h-8.4v-6.9h6.6
		c0.1-0.2,0.2-0.4,0.2-0.6c0-1.2-0.3-3.5-0.8-7c-0.6-3.5-1-5.7-1.4-6.6c-0.6-0.4-1.3-1.1-1.9-1.9c1.6-3.5,3.1-5.9,4.5-7.4l0.4,0.3
		c0.1,0.8,0.2,1.5,0.4,2.1c0.2,0.6,1.3,1.4,3.3,2.6c1.6,0.9,2.9,1.7,4,2.2L527.7,591.9z"/>
	<path class="st2" d="M539,609.3l-2.8-20.2c0.8-2.3,2.3-5,4.6-8.2c1.2,8.1,1.8,14.1,1.8,17.8C542.7,602.9,541.5,606.5,539,609.3"/>
	<path class="st2" d="M562.4,612.7c-2.1,4.5-4.8,6.7-8,6.7c-6.5,0-10.7-0.8-12.8-2.5v-0.4c0.9-0.3,2.3-0.4,4.1-0.5
		c2.1-0.1,3.5-0.2,4.3-0.4c1.9-0.4,4.1-1.8,6.6-4c2.6-2.1,4.3-4.1,5-5.8c0.2-0.7,0.4-1.3,0.4-1.7c0-0.3-0.1-0.6-0.2-0.8
		c-0.9,1.9-1.5,3-1.8,3.3c-0.7,0.8-1.9,1.2-3.6,1.2c-2.8,0-4.2-1.8-4.2-5.4c0-2.1,0.8-4.3,2.2-6.8c1.6-2.7,3.2-4.3,5.1-4.8
		c1.7,0.4,3.1,2,4.2,4.5c0.9,2.1,1.3,4.3,1.3,6.3C565,605.3,564.2,609,562.4,612.7 M559.8,600.7c0.1-1.2-0.9-2.8-2.2-2.8
		c-1.1,0-2.3,1.3-2.6,2.4c1.1,0.8,2.1,1.3,2.8,1.3c0.2,0,0.8-0.2,1.9-0.6V600.7z"/>
	<path class="st2" d="M585.7,613c-1.9,4-4.3,6-6.8,6c-1.3,0-3.6-0.6-7-1.9c-3.6-1.4-5.4-2.6-5.4-3.5c0-0.2,0.1-0.4,0.2-0.7h0.8
		c2.8,1.3,4.8,1.9,6,1.9c1.7,0,4-1.3,7-3.8c3-2.5,4.5-4.5,4.5-6.1c0-0.8-1.8-3.1-5.4-6.7c0.4-1.4,1.3-3.6,2.5-6.4
		c2.2,2,3.7,3.7,4.6,5.2c1.1,1.9,1.7,4.1,1.7,6.6C588.2,606.5,587.4,609.6,585.7,613"/>
	<path class="st2" d="M603.2,608.8h-9.5l-2.2-24.6c0-0.3,0.6-1.3,1.9-2.9c1.2-1.5,2-2.5,2.4-2.8l0.8,11.4c0.4,5.1,0.8,8.8,1.4,11
		c0.1,0.7,0.8,1,2,1h3.3V608.8z"/>
	<path class="st2" d="M626.5,608.8h-4.6c-0.2,0.3-0.6,0.8-1,1.6c-0.3,0.8-0.7,1.4-1.3,1.6l-12.2-6.8c-0.2,0.2-0.6,0.9-1,2.2
		c-0.4,1-1,1.4-1.8,1.4h-4.3v-6.9h6.5c0.3-0.2,0.8-1,1.4-2.3c0.7-1.3,1.3-2.2,1.7-2.6c1.1-1.1,2.5-2.1,4.1-2.9
		c1.7-0.8,3.2-1.3,4.6-1.3c1.3,0,1.7,0.3,1.8,1.4c-0.1,1.4,0.3,2.9,1.1,4.6c0.9,2,2,3,3.3,3h1.8V608.8z M616.9,600.5
		c0-0.9-0.6-1.4-1.8-1.4c-1,0-1.6,0.2-2.2,0.6l1.9,1.3c1,0.6,1.6,0.8,2.1,0.9V600.5z"/>
	<path class="st2" d="M644.4,608.8h-4.5c-1.9,0-3.3-1.3-4.1-4c-0.4,0.7-1.3,2-2.3,4h-9.8v-6.9H635c0.3-0.6,0.5-2.2,0.5-4.8
		c0-0.6,0.6-1.6,1.9-3.1l2.7-2.8v3.1c0,0.5-0.1,1.3-0.3,2.4c-0.1,1.1-0.2,1.8-0.2,2.4c0,2.3,0.6,2.8,2.2,2.8h2.6V608.8z
		 M639.4,587.9c-0.9,1.1-1.4,1.7-1.6,1.7c-0.4,0-1.9-0.9-4.4-2.6l-2.3,2.6c-2.1-1-3.6-1.8-4.5-2.7c0.7-1.2,1.8-2.5,3.2-3.8
		c2.2,1.5,3.5,2.3,4,2.3c0.2,0,0.6-0.4,1.4-1.2c0.8-0.8,1.3-1.2,1.4-1.2c0.1,0,1.6,0.9,4.4,2.7C640.7,586.2,640.2,587,639.4,587.9
		 M635.3,582.6c-0.8,0.6-1.4,0.9-1.8,0.9c-0.8,0-2-0.8-3.6-2.4c1.6-2.1,2.7-3.1,3.3-3.1c0.5,0,1.8,1,3.7,2.9
		C636.7,581.4,636.1,581.9,635.3,582.6"/>
	<path class="st2" d="M662.7,608.8h-4.4c-2.1,0-3.4-1.3-4.1-4c-0.4,0.7-1.3,2-2.3,4h-9.8v-6.9h11.2c0.3-0.6,0.5-2.1,0.5-4.8
		c0-0.6,0.6-1.6,1.9-3.1l2.7-2.8v2.9c0,0.6-0.1,1.5-0.3,2.7c-0.2,1.2-0.3,2.1-0.3,2.6c0,0.3,0.2,0.8,0.6,1.4c0.4,0.7,0.8,1,1.1,1
		h3.3V608.8z M660.9,582.4c-0.7,1.6-2,3-4,4.3l-5.4-2.8c-1.7,1.8-2.6,2.6-3,2.6c-0.9,0-2.7-1-5.4-2.9l4.1-4.1c2.4,1.7,4,2.6,4.8,2.6
		c0.1,0,0.7-0.4,1.6-1.3l1.7-1.5L660.9,582.4z"/>
	<path class="st2" d="M674.7,608.8h-5.5c-0.1-0.6-0.3-1.1-0.6-1.8c-0.4,0.3-1.5,1.8-2.3,1.8h-5.5v-6.9h7.1c0.6-1,0.8-2.1,0.8-3.3
		c0-0.6,0.6-1.6,1.8-2.9c1.2-1.4,2.1-2.2,2.8-2.5c0.1,1.1,0.1,1.6,0.1,1.6c0,1.1-0.6,3.5-1.9,7.1h3.1V608.8z"/>
	<path class="st2" d="M691,600.4c0,1.4-0.2,2.8-0.8,4.3c-0.5,1.3-1,2.7-1.6,4.1H679c-0.1-0.3-0.4-0.6-0.7-1l-1,1h-5.2v-6.9h6
		c0-0.6,0.2-1.4,0.5-2.6c1.7-3.2,3.3-5,4.8-5.5v0.4c0,0.6-0.3,1.7-0.9,3.6c-0.6,1.8-1,3.1-1,3.9c0,0.1,0.1,0.2,0.2,0.2h4.5
		c0.1-0.1,0.2-0.2,0.2-0.4c0-0.5-0.3-1.7-0.3-2.2c0-0.8,0.6-2,2-3.5c1.1-1.4,2-2.4,2.8-2.9V600.4z"/>
	<path class="st2" d="M704.1,613.8c-0.2,0.4-0.7,1.1-1.4,1.9c-2,0-4.3,0.9-6.8,2.6c0.3-1,1.6-1.8,2.6-2.5c-0.7-0.1-1.6-0.5-2.8-1.1
		c-0.1-1.2,0.4-2.4,1.3-3.4c0.9-1.1,2-1.6,3.2-1.6c0.3,0,0.7,0.1,1.1,0.3c0.4,0.4,0.6,0.8,0.6,1c0,0.2-0.1,0.4-0.4,0.9l-0.6,0.9
		c-1.2-0.8-1.8-1.1-1.8-1.1c-0.4,0-1,0.3-1.7,1c0.6,0.7,1.6,1.1,3.3,1.2H704.1z"/>
	<path class="st2" d="M726.6,601.9v6.9h-7.5l-0.4-5.9c-0.1-2.3-0.4-4.3-1-5.8c-0.4,1.5-1.3,3.8-2.5,6.7c-2.7,5.6-9.6,8.3-20.6,8.2
		h-2.3v-0.6l10.4-4.9c5.2-2.6,7.8-4.6,7.8-5.9c0-0.4-0.5-1.8-1.6-4.3c-0.6-1.4-2-3.3-4.3-5.6c-0.2,0.2-0.5,0.8-0.9,1.9l-3.8-2.2
		c-1.9-1.1-3-1.9-3.4-2.4c-0.1-0.2-0.2-0.6-0.2-1.2c0-2.7,0.5-5.6,1.4-8.9c3,1.2,6.1,3.5,9.2,6.9c3.3,3.7,5.1,7,5.3,9.9
		c0.1,1.6,0.2,4.3,0.2,8.2c0.6-0.6,0.9-1.3,1-2.4c0.1-1.3,0.2-2.1,0.3-2.4c0.1-0.3,0.3-0.6,0.6-1c1.2-1.6,2-3.7,2.3-6.2
		c0.2-1.3,0.2-3.4,0.2-6.6c0-2.2,1.6-4.8,3.4-6.1c0.2,1.2,0.4,3,0.6,5.5l0.6,8.7c0.2,3.6,0.6,6.4,1.2,8.5c0.1,0.4,0.5,0.7,1.1,0.7
		H726.6z"/>
	<path class="st2" d="M734.5,591.9l0.8,8.5c0.1,0.6-0.1,1.9-0.6,4c-0.4,2.1-0.8,3.4-1.1,3.8c-0.1,0.1-0.4,0.3-1,0.6h-8.4v-6.9h6.6
		c0.1-0.2,0.2-0.4,0.2-0.6c0-1.2-0.3-3.5-0.8-7c-0.6-3.5-1-5.7-1.4-6.6c-0.6-0.4-1.3-1.1-1.9-1.9c1.6-3.5,3.1-5.9,4.5-7.4l0.4,0.3
		c0.1,0.8,0.2,1.5,0.4,2.1c0.2,0.6,1.3,1.4,3.3,2.6c1.6,0.9,2.9,1.7,4,2.2L734.5,591.9z"/>
	<path class="st2" d="M275,679.6v-2.1c1.9-0.5,2.1-1,1.7-3.3c-0.4-1.8-0.9-4.4-1.4-6.9H269c-0.4,1.8-0.8,3.8-1.2,6.1
		c-0.5,3.1-0.4,3.7,1.9,4.1v2.1h-7.2v-2.1c2.1-0.5,2.5-0.9,3.6-5.7l6.4-29.5l1.5-0.7c1.9,9.7,4,20.4,6,30c1,4.9,1.4,5.4,3.5,5.9v2.1
		H275z M272.2,650.9h-0.1c-0.9,4.5-1.8,8.9-2.7,13.3h5.3L272.2,650.9z"/>
	<path class="st5" d="M275,679.6v-2.1c1.9-0.5,2.1-1,1.7-3.3c-0.4-1.8-0.9-4.4-1.4-6.9H269c-0.4,1.8-0.8,3.8-1.2,6.1
		c-0.5,3.1-0.4,3.7,1.9,4.1v2.1h-7.2v-2.1c2.1-0.5,2.5-0.9,3.6-5.7l6.4-29.5l1.5-0.7c1.9,9.7,4,20.4,6,30c1,4.9,1.4,5.4,3.5,5.9v2.1
		H275z M272.2,650.9h-0.1c-0.9,4.5-1.8,8.9-2.7,13.3h5.3L272.2,650.9z"/>
	<path class="st2" d="M298.3,659.4c3.3,0.9,5.7,3.5,5.7,9c0,3.8-1.2,6.9-3.1,8.7c-1.6,1.7-3.9,2.4-6.5,2.4h-7.7v-2.1
		c2.6-0.4,2.8-0.7,2.8-5.5v-22.1c0-4.7-0.2-5.1-2.6-5.4v-2.1h8.9c2.4,0,3.9,0.6,5.1,1.9c1.2,1.4,1.8,3.8,1.8,6.5
		c0,5.4-2.6,7.7-4.5,8.4V659.4z M294.4,658.6c3.1,0,4.6-2.1,4.6-6.9c0-4.5-1.5-6.9-3.8-6.9c-0.8,0-1.4,0.2-1.6,0.6
		c-0.3,0.4-0.4,1.1-0.4,2.5v10.7H294.4z M293.2,672c0,4,0.6,5.2,2.5,5.1c2.2,0,4.4-2.3,4.4-8c0-5.5-2.1-8-5.7-8h-1.1V672z"/>
	<path class="st5" d="M298.3,659.4c3.3,0.9,5.7,3.5,5.7,9c0,3.8-1.2,6.9-3.1,8.7c-1.6,1.7-3.9,2.4-6.5,2.4h-7.7v-2.1
		c2.6-0.4,2.8-0.7,2.8-5.5v-22.1c0-4.7-0.2-5.1-2.6-5.4v-2.1h8.9c2.4,0,3.9,0.6,5.1,1.9c1.2,1.4,1.8,3.8,1.8,6.5
		c0,5.4-2.6,7.7-4.5,8.4V659.4z M294.4,658.6c3.1,0,4.6-2.1,4.6-6.9c0-4.5-1.5-6.9-3.8-6.9c-0.8,0-1.4,0.2-1.6,0.6
		c-0.3,0.4-0.4,1.1-0.4,2.5v10.7H294.4z M293.2,672c0,4,0.6,5.2,2.5,5.1c2.2,0,4.4-2.3,4.4-8c0-5.5-2.1-8-5.7-8h-1.1V672z"/>
	<path class="st2" d="M317.3,642.4c4,0,7,1.4,9.1,4.9c1.5,2.7,2.7,6.8,2.7,12.2c0,7-1.5,12-3.9,15.3c-2.3,3.3-5.5,4.8-9.5,4.8h-7.8
		v-2.1c2.6-0.4,2.9-0.7,2.9-5.4v-22c0-4.8-0.3-5.1-2.6-5.4v-2.1H317.3z M314.4,671.7c0,4,0.7,5.3,2.9,5.3c4.8,0,7.6-6.7,7.6-16.6
		c0-5.5-1-10.2-2.9-12.7c-1.3-2.1-3.1-3-5.2-3c-1.2,0-1.9,0.4-2.2,0.8c-0.3,0.5-0.4,1.3-0.4,3.1V671.7z"/>
	<path class="st5" d="M317.3,642.4c4,0,7,1.4,9.1,4.9c1.5,2.7,2.7,6.8,2.7,12.2c0,7-1.5,12-3.9,15.3c-2.3,3.3-5.5,4.8-9.5,4.8h-7.8
		v-2.1c2.6-0.4,2.9-0.7,2.9-5.4v-22c0-4.8-0.3-5.1-2.6-5.4v-2.1H317.3z M314.4,671.7c0,4,0.7,5.3,2.9,5.3c4.8,0,7.6-6.7,7.6-16.6
		c0-5.5-1-10.2-2.9-12.7c-1.3-2.1-3.1-3-5.2-3c-1.2,0-1.9,0.4-2.2,0.8c-0.3,0.5-0.4,1.3-0.4,3.1V671.7z"/>
	<path class="st2" d="M354.6,644.5c-1.8,0.2-2.5,1-2.7,3.1c-0.1,1.7-0.2,3.9-0.2,8.6v5.4c0,6.4-0.5,11.3-2.4,14.7
		c-1.4,2.7-3.6,4-5.8,4c-2,0-3.9-0.8-5.4-2.9c-1.8-2.5-2.7-6.7-2.7-13.4v-13.9c0-5-0.3-5.3-2.7-5.6v-2.1h9.1v2.1
		c-2.4,0.3-2.7,0.7-2.7,5.6V663c0,8.9,1.9,13.6,5.4,13.6c3.9,0,5.5-5.5,5.5-15v-5.3c0-4.7-0.1-6.9-0.3-8.6c-0.2-2-0.9-2.8-3.2-3.1
		v-2.1h8V644.5z"/>
	<path class="st5" d="M354.6,644.5c-1.8,0.2-2.5,1-2.7,3.1c-0.1,1.7-0.2,3.9-0.2,8.6v5.4c0,6.4-0.5,11.3-2.4,14.7
		c-1.4,2.7-3.6,4-5.8,4c-2,0-3.9-0.8-5.4-2.9c-1.8-2.5-2.7-6.7-2.7-13.4v-13.9c0-5-0.3-5.3-2.7-5.6v-2.1h9.1v2.1
		c-2.4,0.3-2.7,0.7-2.7,5.6V663c0,8.9,1.9,13.6,5.4,13.6c3.9,0,5.5-5.5,5.5-15v-5.3c0-4.7-0.1-6.9-0.3-8.6c-0.2-2-0.9-2.8-3.2-3.1
		v-2.1h8V644.5z"/>
	<path class="st2" d="M373.7,670.1c-0.2,2.2-0.9,7.9-1.2,9.5h-15v-2.1c2.7-0.4,3-0.7,3-5.5v-22c0-4.8-0.3-5.1-2.8-5.4v-2.1h9.2v2.1
		c-2.5,0.3-2.8,0.7-2.8,5.4v22.1c0,2.8,0.1,3.9,0.8,4.4c0.5,0.5,1.5,0.6,2.6,0.6c1.4,0,2.6-0.3,3.3-1.8c0.5-1.2,1.1-3,1.7-5.7
		L373.7,670.1z"/>
	<path class="st5" d="M373.7,670.1c-0.2,2.2-0.9,7.9-1.2,9.5h-15v-2.1c2.7-0.4,3-0.7,3-5.5v-22c0-4.8-0.3-5.1-2.8-5.4v-2.1h9.2v2.1
		c-2.5,0.3-2.8,0.7-2.8,5.4v22.1c0,2.8,0.1,3.9,0.8,4.4c0.5,0.5,1.5,0.6,2.6,0.6c1.4,0,2.6-0.3,3.3-1.8c0.5-1.2,1.1-3,1.7-5.7
		L373.7,670.1z"/>
	<path class="st2" d="M392.6,670.1c-0.2,2.2-0.9,7.9-1.2,9.5h-15v-2.1c2.7-0.4,3-0.7,3-5.5v-22c0-4.8-0.3-5.1-2.8-5.4v-2.1h9.2v2.1
		c-2.5,0.3-2.8,0.7-2.8,5.4v22.1c0,2.8,0.1,3.9,0.8,4.4c0.5,0.5,1.5,0.6,2.6,0.6c1.4,0,2.6-0.3,3.3-1.8c0.5-1.2,1.1-3,1.7-5.7
		L392.6,670.1z"/>
	<path class="st5" d="M392.6,670.1c-0.2,2.2-0.9,7.9-1.2,9.5h-15v-2.1c2.7-0.4,3-0.7,3-5.5v-22c0-4.8-0.3-5.1-2.8-5.4v-2.1h9.2v2.1
		c-2.5,0.3-2.8,0.7-2.8,5.4v22.1c0,2.8,0.1,3.9,0.8,4.4c0.5,0.5,1.5,0.6,2.6,0.6c1.4,0,2.6-0.3,3.3-1.8c0.5-1.2,1.1-3,1.7-5.7
		L392.6,670.1z"/>
	<path class="st2" d="M408,679.6v-2.1c1.9-0.5,2.1-1,1.7-3.3c-0.4-1.8-0.9-4.4-1.4-6.9h-6.3c-0.4,1.8-0.8,3.8-1.2,6.1
		c-0.5,3.1-0.4,3.7,1.9,4.1v2.1h-7.2v-2.1c2.1-0.5,2.5-0.9,3.6-5.7l6.4-29.5l1.5-0.7c1.9,9.7,4,20.4,6,30c1,4.9,1.4,5.4,3.5,5.9v2.1
		H408z M405.2,650.9h-0.1c-0.9,4.5-1.8,8.9-2.7,13.3h5.3L405.2,650.9z"/>
	<path class="st5" d="M408,679.6v-2.1c1.9-0.5,2.1-1,1.7-3.3c-0.4-1.8-0.9-4.4-1.4-6.9h-6.3c-0.4,1.8-0.8,3.8-1.2,6.1
		c-0.5,3.1-0.4,3.7,1.9,4.1v2.1h-7.2v-2.1c2.1-0.5,2.5-0.9,3.6-5.7l6.4-29.5l1.5-0.7c1.9,9.7,4,20.4,6,30c1,4.9,1.4,5.4,3.5,5.9v2.1
		H408z M405.2,650.9h-0.1c-0.9,4.5-1.8,8.9-2.7,13.3h5.3L405.2,650.9z"/>
	<path class="st2" d="M442,644.5c-2.5,0.3-2.8,0.7-2.8,5.4v22.2c0,4.7,0.3,5,2.8,5.4v2.1h-9.3v-2.1c2.6-0.4,2.9-0.7,2.9-5.4v-10.7
		h-9.4v10.7c0,4.7,0.3,5,2.7,5.4v2.1h-9.1v-2.1c2.4-0.4,2.7-0.7,2.7-5.4v-22.2c0-4.7-0.3-5.1-2.8-5.4v-2.1h9.1v2.1
		c-2.3,0.3-2.6,0.7-2.6,5.4v8.5h9.4v-8.5c0-4.7-0.3-5.1-2.6-5.4v-2.1h9.1V644.5z"/>
	<path class="st5" d="M442,644.5c-2.5,0.3-2.8,0.7-2.8,5.4v22.2c0,4.7,0.3,5,2.8,5.4v2.1h-9.3v-2.1c2.6-0.4,2.9-0.7,2.9-5.4v-10.7
		h-9.4v10.7c0,4.7,0.3,5,2.7,5.4v2.1h-9.1v-2.1c2.4-0.4,2.7-0.7,2.7-5.4v-22.2c0-4.7-0.3-5.1-2.8-5.4v-2.1h9.1v2.1
		c-2.3,0.3-2.6,0.7-2.6,5.4v8.5h9.4v-8.5c0-4.7-0.3-5.1-2.6-5.4v-2.1h9.1V644.5z"/>
	<path class="st2" d="M466.3,679.6v-2.1c1.9-0.5,2.1-1,1.7-3.3c-0.4-1.8-0.9-4.4-1.4-6.9h-6.3c-0.4,1.8-0.8,3.8-1.2,6.1
		c-0.5,3.1-0.4,3.7,1.9,4.1v2.1h-7.2v-2.1c2.1-0.5,2.5-0.9,3.6-5.7l6.4-29.5l1.5-0.7c1.9,9.7,4,20.4,6,30c1,4.9,1.4,5.4,3.5,5.9v2.1
		H466.3z M463.5,650.9h-0.1c-0.9,4.5-1.8,8.9-2.7,13.3h5.3L463.5,650.9z"/>
	<path class="st5" d="M466.3,679.6v-2.1c1.9-0.5,2.1-1,1.7-3.3c-0.4-1.8-0.9-4.4-1.4-6.9h-6.3c-0.4,1.8-0.8,3.8-1.2,6.1
		c-0.5,3.1-0.4,3.7,1.9,4.1v2.1h-7.2v-2.1c2.1-0.5,2.5-0.9,3.6-5.7l6.4-29.5l1.5-0.7c1.9,9.7,4,20.4,6,30c1,4.9,1.4,5.4,3.5,5.9v2.1
		H466.3z M463.5,650.9h-0.1c-0.9,4.5-1.8,8.9-2.7,13.3h5.3L463.5,650.9z"/>
	<path class="st2" d="M494.1,670.1c-0.2,2.2-0.9,7.9-1.2,9.5h-15v-2.1c2.7-0.4,3-0.7,3-5.5v-22c0-4.8-0.3-5.1-2.8-5.4v-2.1h9.2v2.1
		c-2.5,0.3-2.8,0.7-2.8,5.4v22.1c0,2.8,0.1,3.9,0.8,4.4c0.5,0.5,1.5,0.6,2.6,0.6c1.4,0,2.6-0.3,3.3-1.8c0.5-1.2,1.1-3,1.7-5.7
		L494.1,670.1z"/>
	<path class="st5" d="M494.1,670.1c-0.2,2.2-0.9,7.9-1.2,9.5h-15v-2.1c2.7-0.4,3-0.7,3-5.5v-22c0-4.8-0.3-5.1-2.8-5.4v-2.1h9.2v2.1
		c-2.5,0.3-2.8,0.7-2.8,5.4v22.1c0,2.8,0.1,3.9,0.8,4.4c0.5,0.5,1.5,0.6,2.6,0.6c1.4,0,2.6-0.3,3.3-1.8c0.5-1.2,1.1-3,1.7-5.7
		L494.1,670.1z"/>
	<path class="st2" d="M516.5,641.6c5.5,0,10.2,7.5,10.2,19c0,12.4-4.8,19.8-10.6,19.8c-6,0-10.4-8.1-10.4-19.2
		C505.7,651.2,509.6,641.6,516.5,641.6L516.5,641.6z M515.8,644c-3.2,0-5.9,5.9-5.9,15.8c0,10.1,2.6,18,6.8,18
		c3.2,0,5.8-5.2,5.8-15.7C522.5,650.6,519.6,644,515.8,644L515.8,644z"/>
	<path class="st5" d="M516.5,641.6c5.5,0,10.2,7.5,10.2,19c0,12.4-4.8,19.8-10.6,19.8c-6,0-10.4-8.1-10.4-19.2
		C505.7,651.2,509.6,641.6,516.5,641.6L516.5,641.6z M515.8,644c-3.2,0-5.9,5.9-5.9,15.8c0,10.1,2.6,18,6.8,18
		c3.2,0,5.8-5.2,5.8-15.7C522.5,650.6,519.6,644,515.8,644L515.8,644z"/>
	<path class="st2" d="M547.1,651.9c-0.4-2.9-0.7-4.6-1.2-5.5c-0.6-1.1-1.1-1.5-3.1-1.5H541V672c0,4.7,0.3,5.1,3.2,5.4v2.1h-9.9v-2.1
		c2.8-0.4,3.1-0.8,3.1-5.4v-27.2h-1.5c-2.4,0-3,0.6-3.4,1.6c-0.5,0.9-0.7,2.8-1.1,5.4H530c0.2-3.9,0.3-7.9,0.4-10.9h0.8
		c0.5,1.3,0.9,1.5,1.7,1.5h12.5c0.9,0,1.2-0.4,1.7-1.5h0.9c0,2.5,0.2,7.2,0.3,10.7L547.1,651.9z"/>
	<path class="st5" d="M547.1,651.9c-0.4-2.9-0.7-4.6-1.2-5.5c-0.6-1.1-1.1-1.5-3.1-1.5H541V672c0,4.7,0.3,5.1,3.2,5.4v2.1h-9.9v-2.1
		c2.8-0.4,3.1-0.8,3.1-5.4v-27.2h-1.5c-2.4,0-3,0.6-3.4,1.6c-0.5,0.9-0.7,2.8-1.1,5.4H530c0.2-3.9,0.3-7.9,0.4-10.9h0.8
		c0.5,1.3,0.9,1.5,1.7,1.5h12.5c0.9,0,1.2-0.4,1.7-1.5h0.9c0,2.5,0.2,7.2,0.3,10.7L547.1,651.9z"/>
	<path class="st2" d="M574.1,644.5c-2.5,0.3-2.8,0.7-2.8,5.4v22.2c0,4.7,0.3,5,2.8,5.4v2.1h-9.3v-2.1c2.6-0.4,2.9-0.7,2.9-5.4v-10.7
		h-9.4v10.7c0,4.7,0.3,5,2.7,5.4v2.1h-9.1v-2.1c2.4-0.4,2.7-0.7,2.7-5.4v-22.2c0-4.7-0.3-5.1-2.8-5.4v-2.1h9.1v2.1
		c-2.3,0.3-2.6,0.7-2.6,5.4v8.5h9.4v-8.5c0-4.7-0.3-5.1-2.6-5.4v-2.1h9.1V644.5z"/>
	<path class="st5" d="M574.1,644.5c-2.5,0.3-2.8,0.7-2.8,5.4v22.2c0,4.7,0.3,5,2.8,5.4v2.1h-9.3v-2.1c2.6-0.4,2.9-0.7,2.9-5.4v-10.7
		h-9.4v10.7c0,4.7,0.3,5,2.7,5.4v2.1h-9.1v-2.1c2.4-0.4,2.7-0.7,2.7-5.4v-22.2c0-4.7-0.3-5.1-2.8-5.4v-2.1h9.1v2.1
		c-2.3,0.3-2.6,0.7-2.6,5.4v8.5h9.4v-8.5c0-4.7-0.3-5.1-2.6-5.4v-2.1h9.1V644.5z"/>
	<path class="st2" d="M588.6,679.6v-2.1c1.9-0.5,2.1-1,1.7-3.3c-0.4-1.8-0.9-4.4-1.4-6.9h-6.3c-0.4,1.8-0.8,3.8-1.2,6.1
		c-0.5,3.1-0.4,3.7,1.9,4.1v2.1h-7.2v-2.1c2.1-0.5,2.5-0.9,3.6-5.7l6.4-29.5l1.5-0.7c1.9,9.7,4,20.4,6,30c1,4.9,1.4,5.4,3.5,5.9v2.1
		H588.6z M585.8,650.9h-0.1c-0.9,4.5-1.8,8.9-2.7,13.3h5.3L585.8,650.9z"/>
	<path class="st5" d="M588.6,679.6v-2.1c1.9-0.5,2.1-1,1.7-3.3c-0.4-1.8-0.9-4.4-1.4-6.9h-6.3c-0.4,1.8-0.8,3.8-1.2,6.1
		c-0.5,3.1-0.4,3.7,1.9,4.1v2.1h-7.2v-2.1c2.1-0.5,2.5-0.9,3.6-5.7l6.4-29.5l1.5-0.7c1.9,9.7,4,20.4,6,30c1,4.9,1.4,5.4,3.5,5.9v2.1
		H588.6z M585.8,650.9h-0.1c-0.9,4.5-1.8,8.9-2.7,13.3h5.3L585.8,650.9z"/>
	<path class="st2" d="M600.4,679.6v-2.1c2.4-0.4,2.8-0.7,2.8-5.4v-22c0-4.8-0.3-5.2-2.8-5.5v-2.1h9.1v2.1c-2.4,0.3-2.7,0.7-2.7,5.5
		v22c0,4.8,0.3,5.1,2.7,5.4v2.1H600.4z"/>
	<path class="st5" d="M600.4,679.6v-2.1c2.4-0.4,2.8-0.7,2.8-5.4v-22c0-4.8-0.3-5.2-2.8-5.5v-2.1h9.1v2.1c-2.4,0.3-2.7,0.7-2.7,5.5
		v22c0,4.8,0.3,5.1,2.7,5.4v2.1H600.4z"/>
	<path class="st2" d="M630.6,679.6v-2.1c2.5-0.5,2.6-0.7,2.6-6.2l-0.1-22.6H633l-7.2,30.5h-1l-6.6-29.8h-0.1l-0.4,15.6
		c-0.2,4.7-0.2,7.2-0.1,9.1c0.1,2.6,0.8,3,2.9,3.3v2.2H613v-2.2c1.8-0.3,2.4-1,2.6-3.2c0.2-1.9,0.4-4.6,0.6-10.3l0.5-11.9
		c0.3-6.6,0.1-7-2.7-7.4v-2.1h6.2l6.4,26.2l6.6-26.2h6.2v2.1c-2.7,0.4-2.8,0.6-2.7,5.7l0.3,21c0.1,5.4,0.2,5.7,2.8,6.2v2.1H630.6z"
		/>
	<path class="st5" d="M630.6,679.6v-2.1c2.5-0.5,2.6-0.7,2.6-6.2l-0.1-22.6H633l-7.2,30.5h-1l-6.6-29.8h-0.1l-0.4,15.6
		c-0.2,4.7-0.2,7.2-0.1,9.1c0.1,2.6,0.8,3,2.9,3.3v2.2H613v-2.2c1.8-0.3,2.4-1,2.6-3.2c0.2-1.9,0.4-4.6,0.6-10.3l0.5-11.9
		c0.3-6.6,0.1-7-2.7-7.4v-2.1h6.2l6.4,26.2l6.6-26.2h6.2v2.1c-2.7,0.4-2.8,0.6-2.7,5.7l0.3,21c0.1,5.4,0.2,5.7,2.8,6.2v2.1H630.6z"
		/>
	<path class="st2" d="M671,680c-0.3,0-0.7-0.1-1.1-0.1c-3.3-0.2-4.6-1.7-5.9-5.4c-1-2.5-2-5.9-2.9-8.7c-0.5-1.6-1.1-2.3-2.3-2.3H658
		v8.4c0,4.7,0.3,5.1,2.7,5.4v2.1h-9.1v-2.1c2.5-0.4,2.8-0.7,2.8-5.4v-22.1c0-4.7-0.3-5-2.7-5.3v-2.1h8.6c2.5,0,4.1,0.5,5.4,2
		c1.3,1.5,2.2,4,2.2,7.6c0,5-1.7,7.9-4,9.6c0.5,1.7,1.8,5.5,2.7,8.1c1.1,3.1,1.7,4.7,2.4,5.9c0.8,1.5,1.4,2.1,2.1,2.6L671,680z
		 M659.3,661.2c1.4,0,2.4-0.5,3.1-1.6c1.2-1.6,1.7-3.9,1.7-6.8c0-5.9-2.2-8.1-4.2-8.1c-0.8,0-1.3,0.2-1.5,0.6
		c-0.2,0.3-0.3,0.9-0.3,2.3v13.5H659.3z"/>
	<path class="st5" d="M671,680c-0.3,0-0.7-0.1-1.1-0.1c-3.3-0.2-4.6-1.7-5.9-5.4c-1-2.5-2-5.9-2.9-8.7c-0.5-1.6-1.1-2.3-2.3-2.3H658
		v8.4c0,4.7,0.3,5.1,2.7,5.4v2.1h-9.1v-2.1c2.5-0.4,2.8-0.7,2.8-5.4v-22.1c0-4.7-0.3-5-2.7-5.3v-2.1h8.6c2.5,0,4.1,0.5,5.4,2
		c1.3,1.5,2.2,4,2.2,7.6c0,5-1.7,7.9-4,9.6c0.5,1.7,1.8,5.5,2.7,8.1c1.1,3.1,1.7,4.7,2.4,5.9c0.8,1.5,1.4,2.1,2.1,2.6L671,680z
		 M659.3,661.2c1.4,0,2.4-0.5,3.1-1.6c1.2-1.6,1.7-3.9,1.7-6.8c0-5.9-2.2-8.1-4.2-8.1c-0.8,0-1.3,0.2-1.5,0.6
		c-0.2,0.3-0.3,0.9-0.3,2.3v13.5H659.3z"/>
	<path class="st2" d="M690.5,670.2c-0.2,2.2-0.8,7.7-1.1,9.3h-15.9v-2.1c2.7-0.4,3.1-0.7,3.1-5.4v-22c0-4.8-0.3-5.1-2.6-5.5v-2.1
		h14.7c0,1.1,0.2,5.1,0.3,8.4l-1.3,0.3c-0.3-2.2-0.7-3.7-1.1-4.8c-0.4-1-1.3-1.5-3.2-1.5h-2c-1.1,0-1.2,0.1-1.2,2V659h2.5
		c2.7,0,3-0.4,3.4-4.3h1.2v11.5H686c-0.4-4.2-0.7-4.4-3.4-4.4h-2.5v10.1c0,2.7,0.2,4,0.8,4.6c0.6,0.5,1.7,0.7,3.1,0.7
		c1.9,0,2.9-0.4,3.6-1.8c0.6-1.2,1.1-3,1.7-5.5L690.5,670.2z"/>
	<path class="st5" d="M690.5,670.2c-0.2,2.2-0.8,7.7-1.1,9.3h-15.9v-2.1c2.7-0.4,3.1-0.7,3.1-5.4v-22c0-4.8-0.3-5.1-2.6-5.5v-2.1
		h14.7c0,1.1,0.2,5.1,0.3,8.4l-1.3,0.3c-0.3-2.2-0.7-3.7-1.1-4.8c-0.4-1-1.3-1.5-3.2-1.5h-2c-1.1,0-1.2,0.1-1.2,2V659h2.5
		c2.7,0,3-0.4,3.4-4.3h1.2v11.5H686c-0.4-4.2-0.7-4.4-3.4-4.4h-2.5v10.1c0,2.7,0.2,4,0.8,4.6c0.6,0.5,1.7,0.7,3.1,0.7
		c1.9,0,2.9-0.4,3.6-1.8c0.6-1.2,1.1-3,1.7-5.5L690.5,670.2z"/>
	<path class="st2" d="M705.6,679.6v-2.1c1.9-0.5,2.1-1,1.7-3.3c-0.4-1.8-0.9-4.4-1.4-6.9h-6.3c-0.4,1.8-0.8,3.8-1.2,6.1
		c-0.5,3.1-0.4,3.7,1.9,4.1v2.1h-7.2v-2.1c2.1-0.5,2.5-0.9,3.6-5.7l6.4-29.5l1.5-0.7c1.9,9.7,4,20.4,6,30c1,4.9,1.4,5.4,3.5,5.9v2.1
		H705.6z M702.8,650.9h-0.1c-0.9,4.5-1.8,8.9-2.7,13.3h5.3L702.8,650.9z"/>
	<path class="st5" d="M705.6,679.6v-2.1c1.9-0.5,2.1-1,1.7-3.3c-0.4-1.8-0.9-4.4-1.4-6.9h-6.3c-0.4,1.8-0.8,3.8-1.2,6.1
		c-0.5,3.1-0.4,3.7,1.9,4.1v2.1h-7.2v-2.1c2.1-0.5,2.5-0.9,3.6-5.7l6.4-29.5l1.5-0.7c1.9,9.7,4,20.4,6,30c1,4.9,1.4,5.4,3.5,5.9v2.1
		H705.6z M702.8,650.9h-0.1c-0.9,4.5-1.8,8.9-2.7,13.3h5.3L702.8,650.9z"/>
	<path class="st2" d="M733.4,670.1c-0.2,2.2-0.9,7.9-1.2,9.5h-15v-2.1c2.7-0.4,3-0.7,3-5.5v-22c0-4.8-0.3-5.1-2.8-5.4v-2.1h9.2v2.1
		c-2.5,0.3-2.8,0.7-2.8,5.4v22.1c0,2.8,0.1,3.9,0.8,4.4c0.5,0.5,1.5,0.6,2.6,0.6c1.4,0,2.6-0.3,3.3-1.8c0.5-1.2,1.1-3,1.7-5.7
		L733.4,670.1z"/>
	<path class="st5" d="M733.4,670.1c-0.2,2.2-0.9,7.9-1.2,9.5h-15v-2.1c2.7-0.4,3-0.7,3-5.5v-22c0-4.8-0.3-5.1-2.8-5.4v-2.1h9.2v2.1
		c-2.5,0.3-2.8,0.7-2.8,5.4v22.1c0,2.8,0.1,3.9,0.8,4.4c0.5,0.5,1.5,0.6,2.6,0.6c1.4,0,2.6-0.3,3.3-1.8c0.5-1.2,1.1-3,1.7-5.7
		L733.4,670.1z"/>
	<path class="st2" d="M279.9,738.9c-0.2,2.2-0.8,7.7-1.1,9.3h-15.9v-2.1c2.7-0.4,3.1-0.7,3.1-5.4v-22c0-4.9-0.3-5.1-2.6-5.5v-2.1
		H278c0,1.1,0.2,5.1,0.3,8.4l-1.3,0.3c-0.3-2.2-0.7-3.7-1.1-4.8c-0.4-1-1.3-1.5-3.2-1.5h-2c-1.1,0-1.2,0.1-1.2,2v12.1h2.5
		c2.7,0,3-0.4,3.4-4.3h1.2v11.5h-1.2c-0.4-4.2-0.7-4.4-3.4-4.4h-2.5v10.1c0,2.7,0.2,4,0.8,4.6c0.5,0.5,1.7,0.7,3,0.7
		c1.9,0,2.9-0.4,3.6-1.8c0.6-1.2,1.1-3,1.7-5.5L279.9,738.9z"/>
	<path class="st5" d="M279.9,738.9c-0.2,2.2-0.8,7.7-1.1,9.3h-15.9v-2.1c2.7-0.4,3.1-0.7,3.1-5.4v-22c0-4.9-0.3-5.1-2.6-5.5v-2.1
		H278c0,1.1,0.2,5.1,0.3,8.4l-1.3,0.3c-0.3-2.2-0.7-3.7-1.1-4.8c-0.4-1-1.3-1.5-3.2-1.5h-2c-1.1,0-1.2,0.1-1.2,2v12.1h2.5
		c2.7,0,3-0.4,3.4-4.3h1.2v11.5h-1.2c-0.4-4.2-0.7-4.4-3.4-4.4h-2.5v10.1c0,2.7,0.2,4,0.8,4.6c0.5,0.5,1.7,0.7,3,0.7
		c1.9,0,2.9-0.4,3.6-1.8c0.6-1.2,1.1-3,1.7-5.5L279.9,738.9z"/>
	<path class="st2" d="M292.6,720.2c-0.6-3.6-1.5-7.6-4.2-7.6c-2.1,0-3.3,2.6-3.3,5.7c0,3.5,1.4,5.4,4,7.8c3,2.6,5.6,5.6,5.6,11.7
		c0,6.3-3,11.2-7.5,11.2c-1.2,0-2.3-0.4-3.1-0.8c-0.9-0.4-1.4-0.9-1.8-1.2c-0.3-1.5-0.7-5.9-0.9-9.3l1.3-0.6
		c0.5,3.5,2.1,9.5,5.3,9.5c2.1,0,3.4-2.5,3.4-6.3c0-3.7-1.6-5.8-4-8c-2.8-2.5-5.4-5.5-5.4-11.4c0-6,2.6-10.7,7-10.7
		c1.8,0,3.4,0.9,4.3,1.4c0.1,2,0.4,4.4,0.6,8.1L292.6,720.2z"/>
	<path class="st5" d="M292.6,720.2c-0.6-3.6-1.5-7.6-4.2-7.6c-2.1,0-3.3,2.6-3.3,5.7c0,3.5,1.4,5.4,4,7.8c3,2.6,5.6,5.6,5.6,11.7
		c0,6.3-3,11.2-7.5,11.2c-1.2,0-2.3-0.4-3.1-0.8c-0.9-0.4-1.4-0.9-1.8-1.2c-0.3-1.5-0.7-5.9-0.9-9.3l1.3-0.6
		c0.5,3.5,2.1,9.5,5.3,9.5c2.1,0,3.4-2.5,3.4-6.3c0-3.7-1.6-5.8-4-8c-2.8-2.5-5.4-5.5-5.4-11.4c0-6,2.6-10.7,7-10.7
		c1.8,0,3.4,0.9,4.3,1.4c0.1,2,0.4,4.4,0.6,8.1L292.6,720.2z"/>
	<path class="st2" d="M313.2,720.6c-0.4-2.9-0.7-4.6-1.2-5.5c-0.6-1.1-1.1-1.5-3.1-1.5h-1.8v27.2c0,4.7,0.3,5.1,3.2,5.4v2.1h-9.9
		v-2.1c2.8-0.4,3.1-0.8,3.1-5.4v-27.2H302c-2.4,0-3,0.6-3.4,1.6c-0.5,0.9-0.7,2.8-1.1,5.4h-1.3c0.2-3.9,0.3-7.9,0.4-10.9h0.8
		c0.5,1.3,0.9,1.5,1.7,1.5h12.5c0.9,0,1.2-0.4,1.7-1.5h0.9c0,2.5,0.2,7.2,0.3,10.7L313.2,720.6z"/>
	<path class="st5" d="M313.2,720.6c-0.4-2.9-0.7-4.6-1.2-5.5c-0.6-1.1-1.1-1.5-3.1-1.5h-1.8v27.2c0,4.7,0.3,5.1,3.2,5.4v2.1h-9.9
		v-2.1c2.8-0.4,3.1-0.8,3.1-5.4v-27.2H302c-2.4,0-3,0.6-3.4,1.6c-0.5,0.9-0.7,2.8-1.1,5.4h-1.3c0.2-3.9,0.3-7.9,0.4-10.9h0.8
		c0.5,1.3,0.9,1.5,1.7,1.5h12.5c0.9,0,1.2-0.4,1.7-1.5h0.9c0,2.5,0.2,7.2,0.3,10.7L313.2,720.6z"/>
	<path class="st2" d="M325.6,748.3v-2.1c1.9-0.5,2.1-1,1.7-3.3c-0.4-1.8-0.9-4.4-1.4-6.9h-6.3c-0.4,1.8-0.8,3.8-1.2,6.1
		c-0.5,3.1-0.4,3.7,1.9,4.1v2.1h-7.2v-2.1c2.1-0.5,2.5-0.9,3.6-5.7l6.4-29.5l1.5-0.7c1.9,9.7,4,20.4,6,30c1,4.9,1.4,5.4,3.5,5.9v2.1
		H325.6z M322.8,719.6h-0.1c-0.9,4.5-1.8,8.9-2.7,13.3h5.3L322.8,719.6z"/>
	<path class="st5" d="M325.6,748.3v-2.1c1.9-0.5,2.1-1,1.7-3.3c-0.4-1.8-0.9-4.4-1.4-6.9h-6.3c-0.4,1.8-0.8,3.8-1.2,6.1
		c-0.5,3.1-0.4,3.7,1.9,4.1v2.1h-7.2v-2.1c2.1-0.5,2.5-0.9,3.6-5.7l6.4-29.5l1.5-0.7c1.9,9.7,4,20.4,6,30c1,4.9,1.4,5.4,3.5,5.9v2.1
		H325.6z M322.8,719.6h-0.1c-0.9,4.5-1.8,8.9-2.7,13.3h5.3L322.8,719.6z"/>
	<path class="st2" d="M350.2,720.6c-0.4-2.9-0.7-4.6-1.2-5.5c-0.6-1.1-1.1-1.5-3.1-1.5h-1.8v27.2c0,4.7,0.3,5.1,3.2,5.4v2.1h-9.9
		v-2.1c2.8-0.4,3.1-0.8,3.1-5.4v-27.2H339c-2.4,0-3,0.6-3.4,1.6c-0.5,0.9-0.7,2.8-1.1,5.4h-1.3c0.2-3.9,0.3-7.9,0.4-10.9h0.8
		c0.5,1.3,0.9,1.5,1.7,1.5h12.5c0.9,0,1.2-0.4,1.7-1.5h0.9c0,2.5,0.2,7.2,0.3,10.7L350.2,720.6z"/>
	<path class="st5" d="M350.2,720.6c-0.4-2.9-0.7-4.6-1.2-5.5c-0.6-1.1-1.1-1.5-3.1-1.5h-1.8v27.2c0,4.7,0.3,5.1,3.2,5.4v2.1h-9.9
		v-2.1c2.8-0.4,3.1-0.8,3.1-5.4v-27.2H339c-2.4,0-3,0.6-3.4,1.6c-0.5,0.9-0.7,2.8-1.1,5.4h-1.3c0.2-3.9,0.3-7.9,0.4-10.9h0.8
		c0.5,1.3,0.9,1.5,1.7,1.5h12.5c0.9,0,1.2-0.4,1.7-1.5h0.9c0,2.5,0.2,7.2,0.3,10.7L350.2,720.6z"/>
	<path class="st2" d="M369.9,738.9c-0.2,2.2-0.8,7.7-1.1,9.3h-15.9v-2.1c2.7-0.4,3.1-0.7,3.1-5.4v-22c0-4.9-0.3-5.1-2.6-5.5v-2.1
		H368c0,1.1,0.2,5.1,0.3,8.4l-1.3,0.3c-0.3-2.2-0.7-3.7-1.1-4.8c-0.4-1-1.3-1.5-3.2-1.5h-2c-1.1,0-1.2,0.1-1.2,2v12.1h2.5
		c2.7,0,3-0.4,3.4-4.3h1.2v11.5h-1.2c-0.4-4.2-0.7-4.4-3.4-4.4h-2.5v10.1c0,2.7,0.2,4,0.8,4.6c0.5,0.5,1.7,0.7,3,0.7
		c1.9,0,2.9-0.4,3.6-1.8c0.6-1.2,1.1-3,1.7-5.5L369.9,738.9z"/>
	<path class="st5" d="M369.9,738.9c-0.2,2.2-0.8,7.7-1.1,9.3h-15.9v-2.1c2.7-0.4,3.1-0.7,3.1-5.4v-22c0-4.9-0.3-5.1-2.6-5.5v-2.1
		H368c0,1.1,0.2,5.1,0.3,8.4l-1.3,0.3c-0.3-2.2-0.7-3.7-1.1-4.8c-0.4-1-1.3-1.5-3.2-1.5h-2c-1.1,0-1.2,0.1-1.2,2v12.1h2.5
		c2.7,0,3-0.4,3.4-4.3h1.2v11.5h-1.2c-0.4-4.2-0.7-4.4-3.4-4.4h-2.5v10.1c0,2.7,0.2,4,0.8,4.6c0.5,0.5,1.7,0.7,3,0.7
		c1.9,0,2.9-0.4,3.6-1.8c0.6-1.2,1.1-3,1.7-5.5L369.9,738.9z"/>
	<path class="st2" d="M378,748.3v-2.1c2.4-0.4,2.8-0.7,2.8-5.4v-22c0-4.8-0.3-5.2-2.8-5.5v-2.1h9.1v2.1c-2.4,0.3-2.7,0.7-2.7,5.5v22
		c0,4.8,0.3,5.1,2.7,5.4v2.1H378z"/>
	<path class="st5" d="M378,748.3v-2.1c2.4-0.4,2.8-0.7,2.8-5.4v-22c0-4.8-0.3-5.2-2.8-5.5v-2.1h9.1v2.1c-2.4,0.3-2.7,0.7-2.7,5.5v22
		c0,4.8,0.3,5.1,2.7,5.4v2.1H378z"/>
	<path class="st2" d="M411,713.2c-1.7,0.2-2.4,1-2.6,3.3c-0.1,1.8-0.2,4.4-0.2,9.5v22.9h-1.5L393.7,720h-0.1v13.3
		c0,4.8,0.1,7.6,0.2,9.3c0.1,2.5,0.8,3.4,3,3.6v2.1H389v-2.1c1.8-0.2,2.6-1,2.7-3.4c0.1-1.8,0.3-4.6,0.3-9.4v-12.2
		c0-3.8,0-4.6-0.6-5.9c-0.6-1.4-1.4-1.8-2.7-2v-2.1h5.4l12.2,26.4h0.1v-11.7c0-5-0.1-7.7-0.2-9.4c-0.2-2.3-0.9-3.1-3.1-3.3v-2.1h7.8
		V713.2z"/>
	<path class="st5" d="M411,713.2c-1.7,0.2-2.4,1-2.6,3.3c-0.1,1.8-0.2,4.4-0.2,9.5v22.9h-1.5L393.7,720h-0.1v13.3
		c0,4.8,0.1,7.6,0.2,9.3c0.1,2.5,0.8,3.4,3,3.6v2.1H389v-2.1c1.8-0.2,2.6-1,2.7-3.4c0.1-1.8,0.3-4.6,0.3-9.4v-12.2
		c0-3.8,0-4.6-0.6-5.9c-0.6-1.4-1.4-1.8-2.7-2v-2.1h5.4l12.2,26.4h0.1v-11.7c0-5-0.1-7.7-0.2-9.4c-0.2-2.3-0.9-3.1-3.1-3.3v-2.1h7.8
		V713.2z"/>
	<path class="st2" d="M433.4,713.2c-2.1,0.4-2.6,1-3.9,6.2c-0.9,4-4,17.7-6.4,29.4h-1.5c-2.1-10.4-5-23.8-6.5-30.5
		c-0.9-4-1.4-4.7-3.4-5v-2.1h8.8l-0.1,2.1c-2.2,0.4-2.3,1-1.8,3.3c0.9,4.5,3.3,15.9,4.8,22.9h0.1c1.7-8.1,3.5-16.6,4.4-21.5
		c0.7-3.6,0.6-4.3-2-4.7v-2.1h7.4V713.2z"/>
	<path class="st5" d="M433.4,713.2c-2.1,0.4-2.6,1-3.9,6.2c-0.9,4-4,17.7-6.4,29.4h-1.5c-2.1-10.4-5-23.8-6.5-30.5
		c-0.9-4-1.4-4.7-3.4-5v-2.1h8.8l-0.1,2.1c-2.2,0.4-2.3,1-1.8,3.3c0.9,4.5,3.3,15.9,4.8,22.9h0.1c1.7-8.1,3.5-16.6,4.4-21.5
		c0.7-3.6,0.6-4.3-2-4.7v-2.1h7.4V713.2z"/>
	<path class="st2" d="M451.5,738.9c-0.2,2.2-0.8,7.7-1.1,9.3h-15.9v-2.1c2.7-0.4,3.1-0.7,3.1-5.4v-22c0-4.9-0.3-5.1-2.6-5.5v-2.1
		h14.7c0,1.1,0.2,5.1,0.3,8.4l-1.3,0.3c-0.3-2.2-0.7-3.7-1.1-4.8c-0.4-1-1.3-1.5-3.2-1.5h-2c-1.1,0-1.2,0.1-1.2,2v12.1h2.5
		c2.7,0,3-0.4,3.4-4.3h1.2v11.5H447c-0.4-4.2-0.7-4.4-3.4-4.4h-2.5v10.1c0,2.7,0.2,4,0.8,4.6c0.5,0.5,1.7,0.7,3,0.7
		c1.9,0,2.9-0.4,3.6-1.8c0.6-1.2,1.1-3,1.7-5.5L451.5,738.9z"/>
	<path class="st5" d="M451.5,738.9c-0.2,2.2-0.8,7.7-1.1,9.3h-15.9v-2.1c2.7-0.4,3.1-0.7,3.1-5.4v-22c0-4.9-0.3-5.1-2.6-5.5v-2.1
		h14.7c0,1.1,0.2,5.1,0.3,8.4l-1.3,0.3c-0.3-2.2-0.7-3.7-1.1-4.8c-0.4-1-1.3-1.5-3.2-1.5h-2c-1.1,0-1.2,0.1-1.2,2v12.1h2.5
		c2.7,0,3-0.4,3.4-4.3h1.2v11.5H447c-0.4-4.2-0.7-4.4-3.4-4.4h-2.5v10.1c0,2.7,0.2,4,0.8,4.6c0.5,0.5,1.7,0.7,3,0.7
		c1.9,0,2.9-0.4,3.6-1.8c0.6-1.2,1.1-3,1.7-5.5L451.5,738.9z"/>
	<path class="st2" d="M464.2,720.2c-0.6-3.6-1.5-7.6-4.2-7.6c-2.1,0-3.3,2.6-3.3,5.7c0,3.5,1.4,5.4,4,7.8c3,2.6,5.6,5.6,5.6,11.7
		c0,6.3-3,11.2-7.5,11.2c-1.2,0-2.3-0.4-3.1-0.8c-0.9-0.4-1.4-0.9-1.8-1.2c-0.3-1.5-0.7-5.9-0.9-9.3l1.3-0.6
		c0.5,3.5,2.1,9.5,5.3,9.5c2.1,0,3.4-2.5,3.4-6.3c0-3.7-1.6-5.8-4-8c-2.8-2.5-5.4-5.5-5.4-11.4c0-6,2.6-10.7,7-10.7
		c1.8,0,3.4,0.9,4.3,1.4c0.1,2,0.4,4.4,0.6,8.1L464.2,720.2z"/>
	<path class="st5" d="M464.2,720.2c-0.6-3.6-1.5-7.6-4.2-7.6c-2.1,0-3.3,2.6-3.3,5.7c0,3.5,1.4,5.4,4,7.8c3,2.6,5.6,5.6,5.6,11.7
		c0,6.3-3,11.2-7.5,11.2c-1.2,0-2.3-0.4-3.1-0.8c-0.9-0.4-1.4-0.9-1.8-1.2c-0.3-1.5-0.7-5.9-0.9-9.3l1.3-0.6
		c0.5,3.5,2.1,9.5,5.3,9.5c2.1,0,3.4-2.5,3.4-6.3c0-3.7-1.6-5.8-4-8c-2.8-2.5-5.4-5.5-5.4-11.4c0-6,2.6-10.7,7-10.7
		c1.8,0,3.4,0.9,4.3,1.4c0.1,2,0.4,4.4,0.6,8.1L464.2,720.2z"/>
	<path class="st2" d="M484.9,720.6c-0.4-2.9-0.7-4.6-1.2-5.5c-0.6-1.1-1.1-1.5-3.1-1.5h-1.8v27.2c0,4.7,0.3,5.1,3.2,5.4v2.1h-9.9
		v-2.1c2.8-0.4,3.1-0.8,3.1-5.4v-27.2h-1.5c-2.4,0-3,0.6-3.4,1.6c-0.5,0.9-0.7,2.8-1.1,5.4h-1.3c0.1-3.9,0.3-7.9,0.4-10.9h0.8
		c0.5,1.3,0.9,1.5,1.7,1.5h12.5c0.9,0,1.2-0.4,1.7-1.5h0.9c0,2.5,0.2,7.2,0.3,10.7L484.9,720.6z"/>
	<path class="st5" d="M484.9,720.6c-0.4-2.9-0.7-4.6-1.2-5.5c-0.6-1.1-1.1-1.5-3.1-1.5h-1.8v27.2c0,4.7,0.3,5.1,3.2,5.4v2.1h-9.9
		v-2.1c2.8-0.4,3.1-0.8,3.1-5.4v-27.2h-1.5c-2.4,0-3,0.6-3.4,1.6c-0.5,0.9-0.7,2.8-1.1,5.4h-1.3c0.1-3.9,0.3-7.9,0.4-10.9h0.8
		c0.5,1.3,0.9,1.5,1.7,1.5h12.5c0.9,0,1.2-0.4,1.7-1.5h0.9c0,2.5,0.2,7.2,0.3,10.7L484.9,720.6z"/>
	<path class="st2" d="M504.8,748.3v-2.1c2.5-0.5,2.6-0.7,2.6-6.2l-0.1-22.6h-0.1l-7.2,30.5h-1l-6.6-29.8h-0.1l-0.4,15.6
		c-0.2,4.7-0.2,7.2-0.1,9.1c0.1,2.6,0.8,3,2.9,3.3v2.2h-7.7v-2.2c1.8-0.3,2.4-1,2.6-3.2c0.2-1.9,0.4-4.6,0.6-10.3l0.5-11.9
		c0.3-6.6,0.1-7-2.7-7.4v-2.1h6.2l6.4,26.2l6.6-26.2h6.2v2.1c-2.7,0.4-2.8,0.6-2.7,5.7l0.3,21c0.1,5.4,0.2,5.7,2.8,6.2v2.1H504.8z"
		/>
	<path class="st5" d="M504.8,748.3v-2.1c2.5-0.5,2.6-0.7,2.6-6.2l-0.1-22.6h-0.1l-7.2,30.5h-1l-6.6-29.8h-0.1l-0.4,15.6
		c-0.2,4.7-0.2,7.2-0.1,9.1c0.1,2.6,0.8,3,2.9,3.3v2.2h-7.7v-2.2c1.8-0.3,2.4-1,2.6-3.2c0.2-1.9,0.4-4.6,0.6-10.3l0.5-11.9
		c0.3-6.6,0.1-7-2.7-7.4v-2.1h6.2l6.4,26.2l6.6-26.2h6.2v2.1c-2.7,0.4-2.8,0.6-2.7,5.7l0.3,21c0.1,5.4,0.2,5.7,2.8,6.2v2.1H504.8z"
		/>
	<path class="st2" d="M532.4,738.9c-0.2,2.2-0.8,7.7-1.1,9.3h-15.9v-2.1c2.7-0.4,3.1-0.7,3.1-5.4v-22c0-4.9-0.3-5.1-2.6-5.5v-2.1
		h14.7c0,1.1,0.2,5.1,0.3,8.4l-1.3,0.3c-0.3-2.2-0.7-3.7-1.1-4.8c-0.4-1-1.3-1.5-3.2-1.5h-2c-1.1,0-1.2,0.1-1.2,2v12.1h2.5
		c2.7,0,3-0.4,3.4-4.3h1.2v11.5h-1.2c-0.4-4.2-0.7-4.4-3.4-4.4H522v10.1c0,2.7,0.2,4,0.8,4.6c0.5,0.5,1.7,0.7,3,0.7
		c1.9,0,2.9-0.4,3.6-1.8c0.6-1.2,1.1-3,1.7-5.5L532.4,738.9z"/>
	<path class="st5" d="M532.4,738.9c-0.2,2.2-0.8,7.7-1.1,9.3h-15.9v-2.1c2.7-0.4,3.1-0.7,3.1-5.4v-22c0-4.9-0.3-5.1-2.6-5.5v-2.1
		h14.7c0,1.1,0.2,5.1,0.3,8.4l-1.3,0.3c-0.3-2.2-0.7-3.7-1.1-4.8c-0.4-1-1.3-1.5-3.2-1.5h-2c-1.1,0-1.2,0.1-1.2,2v12.1h2.5
		c2.7,0,3-0.4,3.4-4.3h1.2v11.5h-1.2c-0.4-4.2-0.7-4.4-3.4-4.4H522v10.1c0,2.7,0.2,4,0.8,4.6c0.5,0.5,1.7,0.7,3,0.7
		c1.9,0,2.9-0.4,3.6-1.8c0.6-1.2,1.1-3,1.7-5.5L532.4,738.9z"/>
	<path class="st2" d="M555.4,713.2c-1.7,0.2-2.4,1-2.6,3.3c-0.1,1.8-0.2,4.4-0.2,9.5v22.9h-1.5L538.2,720h-0.1v13.3
		c0,4.8,0.1,7.6,0.2,9.3c0.1,2.5,0.8,3.4,3,3.6v2.1h-7.9v-2.1c1.8-0.2,2.6-1,2.7-3.4c0.1-1.8,0.3-4.6,0.3-9.4v-12.2
		c0-3.8,0-4.6-0.6-5.9c-0.6-1.4-1.4-1.8-2.7-2v-2.1h5.4l12.2,26.4h0.1v-11.7c0-5-0.1-7.7-0.2-9.4c-0.2-2.3-0.9-3.1-3.1-3.3v-2.1h7.8
		V713.2z"/>
	<path class="st5" d="M555.4,713.2c-1.7,0.2-2.4,1-2.6,3.3c-0.1,1.8-0.2,4.4-0.2,9.5v22.9h-1.5L538.2,720h-0.1v13.3
		c0,4.8,0.1,7.6,0.2,9.3c0.1,2.5,0.8,3.4,3,3.6v2.1h-7.9v-2.1c1.8-0.2,2.6-1,2.7-3.4c0.1-1.8,0.3-4.6,0.3-9.4v-12.2
		c0-3.8,0-4.6-0.6-5.9c-0.6-1.4-1.4-1.8-2.7-2v-2.1h5.4l12.2,26.4h0.1v-11.7c0-5-0.1-7.7-0.2-9.4c-0.2-2.3-0.9-3.1-3.1-3.3v-2.1h7.8
		V713.2z"/>
	<path class="st2" d="M573.7,720.6c-0.4-2.9-0.7-4.6-1.2-5.5c-0.6-1.1-1.1-1.5-3.1-1.5h-1.8v27.2c0,4.7,0.3,5.1,3.2,5.4v2.1h-9.9
		v-2.1c2.8-0.4,3.1-0.8,3.1-5.4v-27.2h-1.5c-2.4,0-3,0.6-3.4,1.6c-0.5,0.9-0.7,2.8-1.1,5.4h-1.3c0.1-3.9,0.3-7.9,0.4-10.9h0.8
		c0.5,1.3,0.9,1.5,1.7,1.5H572c0.9,0,1.2-0.4,1.7-1.5h0.9c0,2.5,0.2,7.2,0.3,10.7L573.7,720.6z"/>
	<path class="st5" d="M573.7,720.6c-0.4-2.9-0.7-4.6-1.2-5.5c-0.6-1.1-1.1-1.5-3.1-1.5h-1.8v27.2c0,4.7,0.3,5.1,3.2,5.4v2.1h-9.9
		v-2.1c2.8-0.4,3.1-0.8,3.1-5.4v-27.2h-1.5c-2.4,0-3,0.6-3.4,1.6c-0.5,0.9-0.7,2.8-1.1,5.4h-1.3c0.1-3.9,0.3-7.9,0.4-10.9h0.8
		c0.5,1.3,0.9,1.5,1.7,1.5H572c0.9,0,1.2-0.4,1.7-1.5h0.9c0,2.5,0.2,7.2,0.3,10.7L573.7,720.6z"/>
	<path class="st2" d="M605.2,725.8c-2.1,0.4-2.7,1.3-3.7,3.9c-0.9,2.1-1.7,4.3-2.8,7.1c1.7,3,4.1,7.9,5.3,11.7l-0.2,0.7
		c-2.5-0.1-4.3-1.4-4.8-2.2c-0.4-0.8-1.5-3-2.5-5c-2.1,5-4.2,7.1-6.5,7.1c-4.2,0-6.5-5.6-6.5-10.6c0-5,1.8-7.2,4.6-10.8
		c-1.3-2.3-2.2-4.7-2.2-8c0-5.1,2.6-9.3,5.6-9.3c2.9,0,5.2,3.5,5.1,8.2c0,2.1-0.6,3.6-1.3,4.8c-0.6,1.1-1.4,2.2-2.5,3.5
		c0.9,1.4,2.9,4.5,4.9,8.1c0.7-1.7,1.1-3.3,1.7-5.5c0.6-2.5,0.3-3.2-1.8-3.7v-2.1h7.6V725.8z M591.4,744.3c1.7,0,3.4-1.9,4.3-4.1
		c-1.9-3.7-3.7-6.6-6.5-10.9c-1.5,2.2-2.1,4.7-2.1,7.1C587.1,741.7,589.2,744.3,591.4,744.3L591.4,744.3z M591.3,712.8
		c-1.3,0-2.4,2.3-2.4,5.2c0,2.8,0.9,4.6,3,7.5c1.2-1.6,2-3.8,2-6.9C593.8,715.6,592.9,712.8,591.3,712.8L591.3,712.8z"/>
	<path class="st5" d="M605.2,725.8c-2.1,0.4-2.7,1.3-3.7,3.9c-0.9,2.1-1.7,4.3-2.8,7.1c1.7,3,4.1,7.9,5.3,11.7l-0.2,0.7
		c-2.5-0.1-4.3-1.4-4.8-2.2c-0.4-0.8-1.5-3-2.5-5c-2.1,5-4.2,7.1-6.5,7.1c-4.2,0-6.5-5.6-6.5-10.6c0-5,1.8-7.2,4.6-10.8
		c-1.3-2.3-2.2-4.7-2.2-8c0-5.1,2.6-9.3,5.6-9.3c2.9,0,5.2,3.5,5.1,8.2c0,2.1-0.6,3.6-1.3,4.8c-0.6,1.1-1.4,2.2-2.5,3.5
		c0.9,1.4,2.9,4.5,4.9,8.1c0.7-1.7,1.1-3.3,1.7-5.5c0.6-2.5,0.3-3.2-1.8-3.7v-2.1h7.6V725.8z M591.4,744.3c1.7,0,3.4-1.9,4.3-4.1
		c-1.9-3.7-3.7-6.6-6.5-10.9c-1.5,2.2-2.1,4.7-2.1,7.1C587.1,741.7,589.2,744.3,591.4,744.3L591.4,744.3z M591.3,712.8
		c-1.3,0-2.4,2.3-2.4,5.2c0,2.8,0.9,4.6,3,7.5c1.2-1.6,2-3.8,2-6.9C593.8,715.6,592.9,712.8,591.3,712.8L591.3,712.8z"/>
	<path class="st2" d="M621.7,711.1c4,0,7,1.4,9.1,4.9c1.5,2.7,2.7,6.8,2.7,12.2c0,7-1.5,12-3.9,15.3c-2.3,3.3-5.5,4.8-9.5,4.8h-7.8
		v-2.1c2.6-0.4,2.9-0.7,2.9-5.4v-22c0-4.8-0.3-5.1-2.6-5.4v-2.1H621.7z M618.8,740.4c0,4,0.7,5.3,2.9,5.3c4.8,0,7.6-6.7,7.6-16.6
		c0-5.5-1-10.2-2.9-12.7c-1.3-2.1-3.1-3-5.2-3c-1.2,0-1.9,0.4-2.2,0.8c-0.3,0.5-0.4,1.3-0.4,3.1V740.4z"/>
	<path class="st5" d="M621.7,711.1c4,0,7,1.4,9.1,4.9c1.5,2.7,2.7,6.8,2.7,12.2c0,7-1.5,12-3.9,15.3c-2.3,3.3-5.5,4.8-9.5,4.8h-7.8
		v-2.1c2.6-0.4,2.9-0.7,2.9-5.4v-22c0-4.8-0.3-5.1-2.6-5.4v-2.1H621.7z M618.8,740.4c0,4,0.7,5.3,2.9,5.3c4.8,0,7.6-6.7,7.6-16.6
		c0-5.5-1-10.2-2.9-12.7c-1.3-2.1-3.1-3-5.2-3c-1.2,0-1.9,0.4-2.2,0.8c-0.3,0.5-0.4,1.3-0.4,3.1V740.4z"/>
	<path class="st2" d="M652.3,738.9c-0.2,2.2-0.8,7.7-1.1,9.3h-15.9v-2.1c2.7-0.4,3.1-0.7,3.1-5.4v-22c0-4.9-0.3-5.1-2.6-5.5v-2.1
		h14.7c0,1.1,0.2,5.1,0.3,8.4l-1.3,0.3c-0.3-2.2-0.7-3.7-1.1-4.8c-0.4-1-1.3-1.5-3.2-1.5h-2c-1.1,0-1.2,0.1-1.2,2v12.1h2.5
		c2.7,0,3-0.4,3.4-4.3h1.2v11.5h-1.2c-0.4-4.2-0.7-4.4-3.4-4.4h-2.5v10.1c0,2.7,0.2,4,0.8,4.6c0.5,0.5,1.7,0.7,3,0.7
		c1.9,0,2.9-0.4,3.6-1.8c0.6-1.2,1.1-3,1.7-5.5L652.3,738.9z"/>
	<path class="st5" d="M652.3,738.9c-0.2,2.2-0.8,7.7-1.1,9.3h-15.9v-2.1c2.7-0.4,3.1-0.7,3.1-5.4v-22c0-4.9-0.3-5.1-2.6-5.5v-2.1
		h14.7c0,1.1,0.2,5.1,0.3,8.4l-1.3,0.3c-0.3-2.2-0.7-3.7-1.1-4.8c-0.4-1-1.3-1.5-3.2-1.5h-2c-1.1,0-1.2,0.1-1.2,2v12.1h2.5
		c2.7,0,3-0.4,3.4-4.3h1.2v11.5h-1.2c-0.4-4.2-0.7-4.4-3.4-4.4h-2.5v10.1c0,2.7,0.2,4,0.8,4.6c0.5,0.5,1.7,0.7,3,0.7
		c1.9,0,2.9-0.4,3.6-1.8c0.6-1.2,1.1-3,1.7-5.5L652.3,738.9z"/>
	<path class="st2" d="M674.4,713.2c-2.1,0.4-2.6,1-3.9,6.2c-0.9,4-4,17.7-6.4,29.4h-1.5c-2.1-10.4-5-23.8-6.5-30.5
		c-0.9-4-1.4-4.7-3.4-5v-2.1h8.8l0,2.1c-2.2,0.4-2.3,1-1.8,3.3c0.9,4.5,3.3,15.9,4.8,22.9h0.1c1.7-8.1,3.5-16.6,4.4-21.5
		c0.7-3.6,0.6-4.3-2-4.7v-2.1h7.5V713.2z"/>
	<path class="st5" d="M674.4,713.2c-2.1,0.4-2.6,1-3.9,6.2c-0.9,4-4,17.7-6.4,29.4h-1.5c-2.1-10.4-5-23.8-6.5-30.5
		c-0.9-4-1.4-4.7-3.4-5v-2.1h8.8l0,2.1c-2.2,0.4-2.3,1-1.8,3.3c0.9,4.5,3.3,15.9,4.8,22.9h0.1c1.7-8.1,3.5-16.6,4.4-21.5
		c0.7-3.6,0.6-4.3-2-4.7v-2.1h7.5V713.2z"/>
	<path class="st2" d="M674.2,749c-1.2,0-2.2-1.7-2.2-4c0-2.3,0.9-4.1,2.2-4.1c1.3,0,2.2,1.7,2.2,4.1
		C676.4,747.3,675.5,749,674.2,749L674.2,749z"/>
	<path class="st5" d="M674.2,749c-1.2,0-2.2-1.7-2.2-4c0-2.3,0.9-4.1,2.2-4.1c1.3,0,2.2,1.7,2.2,4.1
		C676.4,747.3,675.5,749,674.2,749L674.2,749z"/>
	<path class="st2" d="M704.9,738.7c-0.4,2.7-1.2,6.9-1.7,8.9c-0.9,0.3-3.6,1.4-5.9,1.4c-8.1,0-11.5-9.8-11.5-18.9c0-12,5-20,12.3-20
		c2.5,0,4.7,1.1,5.6,1.5c0.3,3.2,0.5,5.6,0.7,9.1l-1.2,0.4c-1-6.4-3-8.5-5.8-8.5c-4.7,0-7.3,7.7-7.3,16.2c0,10.4,3.2,17.4,7.6,17.4
		c2.8,0,4.5-2.9,6.1-8.6L704.9,738.7z"/>
	<path class="st5" d="M704.9,738.7c-0.4,2.7-1.2,6.9-1.7,8.9c-0.9,0.3-3.6,1.4-5.9,1.4c-8.1,0-11.5-9.8-11.5-18.9c0-12,5-20,12.3-20
		c2.5,0,4.7,1.1,5.6,1.5c0.3,3.2,0.5,5.6,0.7,9.1l-1.2,0.4c-1-6.4-3-8.5-5.8-8.5c-4.7,0-7.3,7.7-7.3,16.2c0,10.4,3.2,17.4,7.6,17.4
		c2.8,0,4.5-2.9,6.1-8.6L704.9,738.7z"/>
	<path class="st2" d="M717.6,710.3c5.5,0,10.2,7.5,10.2,19c0,12.4-4.8,19.8-10.6,19.8c-6,0-10.4-8.1-10.4-19.2
		C706.8,719.9,710.7,710.3,717.6,710.3L717.6,710.3z M717,712.7c-3.2,0-5.9,5.9-5.9,15.8c0,10.1,2.6,18,6.8,18
		c3.2,0,5.8-5.2,5.8-15.7C723.6,719.3,720.7,712.7,717,712.7L717,712.7z"/>
	<path class="st5" d="M717.6,710.3c5.5,0,10.2,7.5,10.2,19c0,12.4-4.8,19.8-10.6,19.8c-6,0-10.4-8.1-10.4-19.2
		C706.8,719.9,710.7,710.3,717.6,710.3L717.6,710.3z M717,712.7c-3.2,0-5.9,5.9-5.9,15.8c0,10.1,2.6,18,6.8,18
		c3.2,0,5.8-5.2,5.8-15.7C723.6,719.3,720.7,712.7,717,712.7L717,712.7z"/>
	<path class="st2" d="M731.9,749c-1.2,0-2.2-1.7-2.2-4c0-2.3,0.9-4.1,2.2-4.1c1.3,0,2.2,1.7,2.2,4.1
		C734.1,747.3,733.2,749,731.9,749L731.9,749z"/>
	<path class="st5" d="M731.9,749c-1.2,0-2.2-1.7-2.2-4c0-2.3,0.9-4.1,2.2-4.1c1.3,0,2.2,1.7,2.2,4.1
		C734.1,747.3,733.2,749,731.9,749L731.9,749z"/>
</g>
</svg>
