<?xml version="1.0" encoding="utf-8"?>
<!-- Generator: Adobe Illustrator 26.0.1, SVG Export Plug-In . SVG Version: 6.00 Build 0)  -->
<svg version="1.1" id="Layer_1" xmlns="http://www.w3.org/2000/svg" xmlns:xlink="http://www.w3.org/1999/xlink" x="0px" y="0px"
	 viewBox="0 0 841.89 595.28" style="enable-background:new 0 0 841.89 595.28;" xml:space="preserve">
<style type="text/css">
	.st0{fill:#2B3C73;}
	.st1{fill:#575756;}
	.st2{fill:#0075C9;}
	.st3{fill:#FFFFFF;}
</style>
<path class="st0" d="M626.51,239.44c3.82,0,6.97-3.1,6.97-6.98c0-3.99-3.16-6.97-6.97-6.97c-3.85,0-6.99,3.04-6.99,6.97
	C619.52,236.33,622.66,239.44,626.51,239.44 M626.51,226.85c3.09,0,5.53,2.39,5.53,5.61c0,3.12-2.45,5.62-5.53,5.62
	c-3.12,0-5.57-2.5-5.57-5.62C620.94,229.29,623.39,226.85,626.51,226.85"/>
<path class="st0" d="M625.15,236.09v-2.89h1.73l1.44,2.89h1.5l-1.62-3.14c0.77-0.35,1.29-1.03,1.29-2.07c0-1.46-1.09-2.21-2.26-2.21
	h-2.3c-0.72,0-1.12,0.38-1.12,1.03l0.01,6.39H625.15z M625.17,229.84h1.94c0.57,0,1.03,0.35,1.03,1.06c0,0.7-0.5,1.1-1.1,1.1h-1.87
	V229.84z"/>
<path class="st1" d="M628.71,367.2v-7.3c0-1.27-0.59-1.73-1.55-1.73c-0.97,0-1.8,0.73-2.2,1.49v7.54h-2.24v-10.71h2.24v1.43
	c0.58-0.86,1.79-1.7,3.13-1.7c1.95,0,2.85,1.06,2.85,2.9v8.08H628.71z"/>
<rect x="628.48" y="324.06" class="st1" width="2.29" height="16.27"/>
<g>
	<path class="st0" d="M363.98,239.3c14.61,0,16.44,15.03,16.44,15.03l17.4-4.08c-0.11-0.43-3.12-26.43-33.84-26.43
		c-19.01,0-36.74,11.6-36.74,41.25c0,29.43,18.69,40.71,38.03,40.71c13.21,0,22.45-4.4,25.67-6.23c4.19-2.47,6.55-4.83,6.55-9.88
		v-18.15c0-4.73-3.12-7.63-8.27-7.63h-23.85v13.43h14.93v10.41c0,0-5.26,3.55-14.5,3.55c-9.77,0-19.98-5.91-19.98-26.22
		C345.82,245.2,354.74,239.3,363.98,239.3"/>
	<path class="st0" d="M441.32,223.72c-7.31,0-11.71,3.12-13.86,9.56l-23.63,71.43l18.68,0.01c1.33-0.01,2.85-0.81,3.76-1.7
		l22.49-22.22c0.47-0.47,0.34-0.69-0.2-0.69l-3.04,0.01c-1.26,0-2.47,0.31-3.55,0.95l-15.13,8.7l14.38-48.53
		c0,0,17.07,58.76,18.47,63.48h19.23l-23.31-71.54C453.67,227.17,448.74,223.72,441.32,223.72"/>
	<path class="st0" d="M518.55,239.08c14.6,0,16.54,16.11,16.54,16.11l17.4-3.65c0,0-2.58-27.71-33.95-27.71
		c-19.01,0-36.74,11.29-36.74,40.93c0,29.42,17.62,41.14,36.63,41.14c30.72,0,34.05-27.07,34.05-27.07l-17.4-3.76
		c0,0-1.4,15.57-16.33,15.57c-9.23,0-18.26-5.91-18.26-25.88C500.51,244.88,509.32,239.08,518.55,239.08"/>
	<path class="st0" d="M594.4,223.72c-7.31,0-11.72,3.12-13.86,9.56l-23.63,71.43l18.68,0.01c1.33-0.01,2.85-0.81,3.76-1.7
		l22.49-22.22c0.46-0.47,0.33-0.69-0.2-0.69l-3.04,0.01c-1.26,0-2.48,0.31-3.55,0.95l-15.13,8.7l14.37-48.53
		c0,0,17.08,58.76,18.47,63.48h19.23l-23.31-71.54C606.74,227.17,601.81,223.72,594.4,223.72"/>
	<path class="st2" d="M321.38,304.93L321.38,304.93c0.27,0,0.46-0.25,0.48-0.57c0.02-0.25-0.11-0.46-0.28-0.57
		c-9.43-3.06-16.75-11.06-18.39-22.84l-4.42-31.45c-2.05-14.61-12.82-24.58-25.38-24.82l-64.5-0.01c-0.27-0.01-0.46,0.19-0.48,0.46
		c-0.02,0.25,0.1,0.51,0.28,0.56c9.43,3.07,16.74,11.14,18.39,22.93l4.42,31.45c2.06,14.56,12.82,24.58,25.37,24.87L321.38,304.93z"
		/>
	<path class="st3" d="M282.41,277.66L282.41,277.66l-2.94-0.02c-0.33,0-0.88,0.05-1.21,0.2l-35.19,13.41
		c-0.27,0.11-0.27,0.22,0.06,0.22l11.49,0.01c1.39,0,2.3,0.01,3.71-0.73l24.15-12.82C282.74,277.77,282.74,277.66,282.41,277.66"/>
	<path class="st3" d="M258.4,277.64l7.03,2.76l-3.65,1.39l-7.59-4.04c-0.27-0.17-0.27-0.27,0.05-0.28l2.94-0.01
		C257.5,277.44,258.06,277.49,258.4,277.64"/>
	<path class="st3" d="M293.87,291.47l-11.5,0.01c-1.37,0-2.29,0.01-3.7-0.73l-7.85-4.17l4.54-2.4l18.57,7.07
		C294.2,291.37,294.2,291.47,293.87,291.47"/>
	<path class="st3" d="M268.5,275.84c-1.26-0.01-2.48-10.11-2.76-23.1l0-0.01c-0.65,0.15-1.35,0.39-1.84,0.55
		c-3.73,1.2-8.52,3.28-11.43,5.05c-0.08,0.05-0.18,0.04-0.24-0.04c-0.02-0.03-0.03-0.06-0.04-0.09c-0.18-1.4,0.05-2.74,1.1-3.75
		c1.08-1.05,2.45-1.98,3.71-2.79c1.6-1.04,3.26-1.99,5.01-2.77c0.46-0.22,1.04-0.48,1.49-0.67c-2.92-1.7-6.5-3.11-9.06-3.95
		c-0.08-0.02-0.12-0.1-0.1-0.17c0.01-0.03,0.02-0.05,0.04-0.07c0.82-0.8,1.76-1.34,2.93-1.22c1.02,0.1,2.05,0.37,3.04,0.61
		c1.11,0.27,2.2,0.58,3.28,0.93c0.62,0.2,1.23,0.42,1.84,0.66c0.1,0.04,0.2,0.08,0.3,0.12c0.38-3.51,1.45-6.08,2.72-6.06
		c1.26-0.02,2.34,2.55,2.72,6.06c0.1-0.04,0.21-0.08,0.3-0.12c0.61-0.24,1.22-0.46,1.84-0.66c1.08-0.35,2.18-0.66,3.28-0.93
		c0.99-0.24,2.02-0.51,3.04-0.61c1.17-0.12,2.11,0.42,2.93,1.22c0.02,0.02,0.03,0.04,0.04,0.07c0.02,0.07-0.03,0.15-0.1,0.17
		c-2.55,0.85-6.14,2.26-9.06,3.95c0.45,0.19,1.03,0.45,1.49,0.67c1.75,0.77,3.4,1.73,5.01,2.77c1.26,0.82,2.63,1.74,3.71,2.79
		c1.05,1.02,1.28,2.36,1.1,3.75c0,0.03-0.02,0.06-0.04,0.09c-0.06,0.07-0.16,0.09-0.24,0.04c-2.92-1.77-7.71-3.85-11.43-5.05
		c-0.49-0.16-1.19-0.4-1.84-0.55l0,0.01C270.98,265.73,269.76,275.83,268.5,275.84"/>
	<path class="st1" d="M329.78,359.81c0-4.59,2.42-7.64,6.09-7.64c2.42,0,3.9,1.42,4.75,3.15l-2.02,0.93
		c-0.54-1.08-1.44-1.9-2.73-1.9c-2.13,0-3.56,2.11-3.56,5.47c0,3.35,1.43,5.48,3.56,5.48c1.1,0,2-0.51,2.49-1.06v-2.75h-3.14v-2.15
		h5.49v5.87c-1.19,1.4-2.78,2.29-4.84,2.29C332.2,367.49,329.78,364.38,329.78,359.81"/>
	<path class="st1" d="M343.04,361.83c0-3.11,1.75-5.61,4.64-5.61c2.93,0,4.5,2.46,4.5,5.71v0.64h-6.88
		c0.09,1.75,1.07,3.08,2.82,3.08c0.85,0,1.81-0.42,2.44-1.15l1.08,1.32c-0.92,1.05-2.29,1.64-3.74,1.64
		C344.92,367.46,343.04,365.16,343.04,361.83 M347.66,358.01c-1.68,0-2.31,1.69-2.38,2.97h4.72
		C349.98,359.66,349.38,358.01,347.66,358.01"/>
	<path class="st1" d="M360.63,367.2v-7.3c0-1.27-0.59-1.73-1.55-1.73c-0.96,0-1.79,0.73-2.2,1.49v7.54h-2.24v-10.71h2.24v1.43
		c0.58-0.86,1.8-1.7,3.14-1.7c1.95,0,2.84,1.06,2.84,2.9v8.08H360.63z"/>
	<path class="st1" d="M365.42,361.83c0-3.11,1.75-5.61,4.64-5.61c2.93,0,4.51,2.46,4.51,5.71v0.64h-6.88
		c0.1,1.75,1.08,3.08,2.82,3.08c0.85,0,1.81-0.42,2.44-1.15l1.08,1.32c-0.92,1.05-2.28,1.64-3.74,1.64
		C367.3,367.46,365.42,365.16,365.42,361.83 M370.04,358.01c-1.68,0-2.31,1.69-2.37,2.97h4.73
		C372.36,359.66,371.76,358.01,370.04,358.01"/>
	<path class="st1" d="M377.03,367.2v-10.71h2.24v1.57c0.63-1.03,1.77-1.82,2.98-1.82v2.2c-0.18-0.04-0.39-0.06-0.58-0.06
		c-0.92,0-1.95,0.68-2.4,1.48v7.34H377.03z"/>
	<path class="st1" d="M389.97,367.2v-1.09c-0.65,0.88-1.75,1.35-2.85,1.35c-1.75,0-3.31-1.28-3.31-3.57c0-2.31,1.56-3.48,3.31-3.48
		c1.1,0,2.22,0.42,2.85,1.28v-1.55c0-1.28-0.76-2.04-2.11-2.04c-0.97,0-1.86,0.38-2.69,1.22l-0.88-1.55
		c1.09-1.09,2.57-1.55,3.96-1.55c2.27,0,3.92,1.04,3.92,3.66v7.32H389.97z M389.97,364.75v-1.62c-0.43-0.75-1.24-1.2-2.04-1.2
		c-1.17,0-1.88,0.85-1.88,1.99c0,1.16,0.71,2,1.88,2C388.74,365.93,389.54,365.49,389.97,364.75"/>
	<rect x="395.28" y="352.41" class="st1" width="2.24" height="14.79"/>
	<path class="st1" d="M413.74,367.2l-0.81-2.93h-4.91l-0.81,2.93h-2.69l4.46-14.8h2.98l4.46,14.8H413.74z M410.49,355.03l-1.95,7.07
		h3.9L410.49,355.03z"/>
	<path class="st1" d="M424.09,367.2v-1.42c-0.6,0.88-1.78,1.68-3.16,1.68c-1.92,0-2.82-1.02-2.82-2.88v-8.09h2.24v7.32
		c0,1.24,0.58,1.7,1.55,1.7c0.94,0,1.77-0.71,2.2-1.46v-7.56h2.24v10.71H424.09z"/>
	<path class="st1" d="M429.83,364.8v-6.39h-1.41v-1.92h1.41v-2.93h2.24v2.93h1.8v1.92h-1.8v5.92c0,0.73,0.25,1.17,0.83,1.17
		c0.36,0,0.69-0.15,0.85-0.35l0.54,1.67c-0.4,0.39-1.02,0.64-1.95,0.64C430.63,367.46,429.83,366.56,429.83,364.8"/>
	<path class="st1" d="M442.21,367.2v-7.34c0-1.24-0.6-1.68-1.57-1.68c-0.94,0-1.77,0.73-2.19,1.49v7.54h-2.24v-14.79h2.24v5.52
		c0.58-0.86,1.82-1.7,3.16-1.7c1.92,0,2.82,1,2.82,2.88v8.1H442.21z"/>
	<path class="st1" d="M446.99,361.83c0-3.02,1.61-5.61,4.68-5.61c3.07,0,4.68,2.6,4.68,5.61c0,3.01-1.61,5.63-4.68,5.63
		C448.6,367.46,446.99,364.84,446.99,361.83 M454.04,361.83c0-1.93-0.74-3.66-2.38-3.66c-1.63,0-2.37,1.73-2.37,3.66
		c0,1.93,0.74,3.68,2.37,3.68C453.3,365.51,454.04,363.77,454.04,361.83"/>
	<path class="st1" d="M458.9,367.2v-10.71h2.24v1.57c0.63-1.03,1.77-1.82,2.98-1.82v2.2c-0.18-0.04-0.38-0.06-0.59-0.06
		c-0.91,0-1.95,0.68-2.39,1.48v7.34H458.9z"/>
	<path class="st1" d="M465.96,353.76c0-0.77,0.65-1.4,1.41-1.4c0.76,0,1.39,0.62,1.39,1.4c0,0.76-0.63,1.38-1.39,1.38
		C466.61,355.14,465.96,354.52,465.96,353.76 M466.25,356.49h2.24v10.71h-2.24V356.49z"/>
	<path class="st1" d="M471.98,364.8v-6.39h-1.41v-1.92h1.41v-2.93h2.24v2.93h1.79v1.92h-1.79v5.92c0,0.73,0.25,1.17,0.83,1.17
		c0.36,0,0.69-0.15,0.85-0.35l0.54,1.67c-0.4,0.39-1.03,0.64-1.95,0.64C472.79,367.46,471.98,366.56,471.98,364.8"/>
	<path class="st1" d="M478.32,369.43c0.2,0.11,0.51,0.16,0.72,0.16c0.6,0,0.99-0.22,1.23-0.89l0.45-1.28l-3.63-10.93h2.38l2.39,8.05
		l2.42-8.05h2.37l-4.28,12.73c-0.61,1.8-1.66,2.32-3.18,2.32c-0.33,0-0.92-0.06-1.21-0.15L478.32,369.43z"/>
	<path class="st1" d="M493.11,361.83c0-3.02,1.62-5.61,4.68-5.61c3.07,0,4.68,2.6,4.68,5.61c0,3.01-1.61,5.63-4.68,5.63
		C494.73,367.46,493.11,364.84,493.11,361.83 M500.17,361.83c0-1.93-0.74-3.66-2.38-3.66c-1.63,0-2.37,1.73-2.37,3.66
		c0,1.93,0.74,3.68,2.37,3.68C499.43,365.51,500.17,363.77,500.17,361.83"/>
	<path class="st1" d="M505.47,367.2v-8.79h-1.41v-1.92h1.41v-1c0-2.08,1.17-3.31,3.05-3.31c0.81,0,1.61,0.23,2.17,0.76l-0.76,1.55
		c-0.3-0.29-0.59-0.44-1.01-0.44c-0.78,0-1.21,0.51-1.21,1.45v1h1.79v1.92h-1.79v8.79H505.47z"/>
	<path class="st1" d="M516.36,359.81c0-4.45,2.35-7.64,6.09-7.64c2.59,0,3.94,1.62,4.72,3.26l-2.06,0.91
		c-0.51-1.17-1.43-1.99-2.66-1.99c-2.2,0-3.57,2.3-3.57,5.47c0,3.15,1.36,5.46,3.57,5.46c1.29,0,2.22-0.93,2.68-2.17l2.06,0.91
		c-0.76,1.73-2.11,3.45-4.74,3.45C518.71,367.46,516.36,364.25,516.36,359.81"/>
	<path class="st1" d="M529.22,353.76c0-0.77,0.65-1.4,1.41-1.4c0.76,0,1.39,0.62,1.39,1.4c0,0.76-0.63,1.38-1.39,1.38
		C529.87,355.14,529.22,354.52,529.22,353.76 M529.51,356.49h2.24v10.71h-2.24V356.49z"/>
	<polygon class="st1" points="537.13,367.2 533.57,356.49 535.94,356.49 538.34,364.56 540.76,356.49 543.13,356.49 539.55,367.2 	
		"/>
	<path class="st1" d="M544.63,353.76c0-0.77,0.65-1.4,1.41-1.4c0.76,0,1.39,0.62,1.39,1.4c0,0.76-0.63,1.38-1.39,1.38
		C545.28,355.14,544.63,354.52,544.63,353.76 M544.93,356.49h2.23v10.71h-2.23V356.49z"/>
	<rect x="550.26" y="352.41" class="st1" width="2.24" height="14.79"/>
	<path class="st1" d="M568.71,367.2l-0.81-2.93H563l-0.8,2.93h-2.68l4.45-14.8h2.98l4.46,14.8H568.71z M565.46,355.03l-1.95,7.07
		h3.9L565.46,355.03z"/>
	<polygon class="st1" points="575.19,367.2 571.63,356.49 574,356.49 576.4,364.56 578.82,356.49 581.2,356.49 577.61,367.2 	"/>
	<path class="st1" d="M582.69,353.76c0-0.77,0.65-1.4,1.41-1.4c0.75,0,1.39,0.62,1.39,1.4c0,0.76-0.63,1.38-1.39,1.38
		C583.35,355.14,582.69,354.52,582.69,353.76 M582.98,356.49h2.24v10.71h-2.24V356.49z"/>
	<path class="st1" d="M593.91,367.2v-1.09c-0.65,0.88-1.75,1.35-2.85,1.35c-1.74,0-3.31-1.28-3.31-3.57c0-2.31,1.57-3.48,3.31-3.48
		c1.1,0,2.22,0.42,2.85,1.28v-1.55c0-1.28-0.76-2.04-2.11-2.04c-0.96,0-1.86,0.38-2.69,1.22l-0.87-1.55
		c1.1-1.09,2.58-1.55,3.97-1.55c2.27,0,3.92,1.04,3.92,3.66v7.32H593.91z M593.91,364.75v-1.62c-0.42-0.75-1.23-1.2-2.03-1.2
		c-1.17,0-1.88,0.85-1.88,1.99c0,1.16,0.72,2,1.88,2C592.69,365.93,593.49,365.49,593.91,364.75"/>
	<path class="st1" d="M599.63,364.8v-6.39h-1.41v-1.92h1.41v-2.93h2.24v2.93h1.8v1.92h-1.8v5.92c0,0.73,0.25,1.17,0.83,1.17
		c0.36,0,0.69-0.15,0.85-0.35l0.54,1.67c-0.41,0.39-1.03,0.64-1.95,0.64C600.43,367.46,599.63,366.56,599.63,364.8"/>
	<path class="st1" d="M605.72,353.76c0-0.77,0.65-1.4,1.41-1.4c0.76,0,1.39,0.62,1.39,1.4c0,0.76-0.63,1.38-1.39,1.38
		C606.37,355.14,605.72,354.52,605.72,353.76 M606.01,356.49h2.24v10.71h-2.24V356.49z"/>
	<path class="st1" d="M610.81,361.83c0-3.02,1.61-5.61,4.69-5.61c3.07,0,4.68,2.6,4.68,5.61c0,3.01-1.62,5.63-4.68,5.63
		C612.42,367.46,610.81,364.84,610.81,361.83 M617.86,361.83c0-1.93-0.74-3.66-2.37-3.66c-1.64,0-2.38,1.73-2.38,3.66
		c0,1.93,0.74,3.68,2.38,3.68C617.12,365.51,617.86,363.77,617.86,361.83"/>
	<path class="st1" d="M488.81,326.14c0.73,0,1.32-0.59,1.32-1.32s-0.59-1.33-1.32-1.33c-0.73,0-1.33,0.59-1.33,1.33
		S488.08,326.14,488.81,326.14"/>
	<path class="st1" d="M493.08,326.14c0.73,0,1.32-0.59,1.32-1.32s-0.59-1.33-1.32-1.33c-0.73,0-1.33,0.59-1.33,1.33
		S492.34,326.14,493.08,326.14"/>
	<path class="st1" d="M564.97,326.14c0.73,0,1.32-0.59,1.32-1.32s-0.59-1.33-1.32-1.33c-0.73,0-1.33,0.59-1.33,1.33
		S564.23,326.14,564.97,326.14"/>
	<path class="st1" d="M569.23,326.14c0.73,0,1.32-0.59,1.32-1.32s-0.59-1.33-1.32-1.33c-0.73,0-1.33,0.59-1.33,1.33
		S568.5,326.14,569.23,326.14"/>
	<path class="st1" d="M595.39,329.3l-0.23-1.7c-0.93,0.16-3.08,0.81-3.28-0.66c-0.11-0.77,0.41-1.48,1.17-1.63
		c0.61-0.12,1.21,0.09,1.77,0.3l0.55-1.62c-1.21-0.37-2.54-0.52-3.64,0.25c-1.16,0.81-1.59,2.5-0.85,3.73
		c-1.06,0.03-1.9,0.06-1.9,0.06v1.3c1.25,0.05,2.51,0.09,3.76,0.11C592.95,329.43,594.51,329.39,595.39,329.3"/>
	<path class="st1" d="M435.68,343.07c-0.73,0-1.33,0.59-1.33,1.33s0.59,1.33,1.33,1.33c0.73,0,1.32-0.59,1.32-1.33
		S436.41,343.07,435.68,343.07"/>
	<path class="st1" d="M439.95,343.07c-0.73,0-1.33,0.59-1.33,1.33s0.59,1.33,1.33,1.33c0.73,0,1.32-0.59,1.32-1.33
		S440.68,343.07,439.95,343.07"/>
	<path class="st1" d="M597.61,343.07c-0.73,0-1.33,0.59-1.33,1.33s0.59,1.33,1.33,1.33c0.73,0,1.32-0.59,1.32-1.33
		S598.34,343.07,597.61,343.07"/>
	<path class="st1" d="M601.88,343.07c-0.73,0-1.33,0.59-1.33,1.33s0.59,1.33,1.33,1.33c0.73,0,1.32-0.59,1.32-1.33
		S602.61,343.07,601.88,343.07"/>
	<path class="st1" d="M335.41,346.23c-0.73,0-1.33,0.59-1.33,1.33c0,0.73,0.59,1.32,1.33,1.32c0.73,0,1.32-0.59,1.32-1.32
		C336.74,346.82,336.14,346.23,335.41,346.23"/>
	<path class="st1" d="M339.68,346.23c-0.73,0-1.33,0.59-1.33,1.33c0,0.73,0.59,1.32,1.33,1.32c0.73,0,1.32-0.59,1.32-1.32
		C341,346.82,340.41,346.23,339.68,346.23"/>
	<path class="st1" d="M410.34,331.36c0.73,0,1.32-0.59,1.32-1.32s-0.59-1.33-1.32-1.33c-0.73,0-1.33,0.59-1.33,1.33
		S409.61,331.36,410.34,331.36"/>
	<path class="st1" d="M349.88,328.79c0.73,0,1.32-0.59,1.32-1.32s-0.59-1.33-1.32-1.33c-0.73,0-1.33,0.59-1.33,1.33
		S349.15,328.79,349.88,328.79"/>
	<rect x="551.4" y="324.06" class="st1" width="2.29" height="16.27"/>
	<rect x="419.98" y="324.06" class="st1" width="2.29" height="16.27"/>
	<path class="st1" d="M622.49,336.99c0,0.86-0.7,1.56-1.56,1.56h-6.37c0.04-0.05,0.08-0.09,0.12-0.14c0.5-0.65,1-1.78,0.54-3.45
		c-0.29-1.02-1.16-4.13-3.4-4.18c-0.02,0-0.04,0-0.06,0c-2.62,0-4.23,4.39-4.53,5.27c-0.18,0.54-0.45,1.44-0.63,2.49
		c-0.99,0.03-5.66,0-5.66,0c0.21-0.48,0.33-1,0.33-1.56v-5.58h-2.29v5.58c0,0.86-0.7,1.56-1.56,1.56h-1.4
		c-0.86,0-1.56-0.7-1.56-1.56v-5.58h-2.29v5.58c0,0.86-0.7,1.56-1.56,1.56h-19.47c-0.86,0-1.56-0.7-1.56-1.56v-8.43h-2.29v1.09
		c-0.66,0.2-1.87,0.59-3.12,1.17c-2.69,1.24-4.22,2.7-4.56,4.34c-0.17,0.83,0.04,1.61,0.59,2.2c0.34,0.36,1.55,1.32,4.79,1.32
		c0.75,0,1.62-0.06,2.6-0.18c0.59,1.37,1.95,2.34,3.53,2.34h19.47c1.05,0,2.01-0.42,2.7-1.11c0.7,0.69,1.65,1.11,2.7,1.11h1.4
		c1.02,0,1.95-0.4,2.64-1.05v1.05c0,0,5.48,0.02,6.34,0.01c0.03,2.11,0.73,4.27,3.14,5.25c0.65,0.26,1.35,0.39,2.04,0.39
		c1.82,0,3.58-0.86,4.26-2.27c0.3-0.61,0.66-1.9-0.48-3.39h5.58c2.12,0,3.84-1.72,3.84-3.84v-12.93h-2.29V336.99z M561.9,335.79
		c-0.03-0.03-0.04-0.05-0.02-0.18c0.28-1.39,3.06-2.79,5.43-3.57v4.2C565.1,336.49,562.47,336.38,561.9,335.79 M609.39,336.78
		c0.78-2.32,1.96-3.72,2.36-3.72c0,0,0.01,0,0.01,0c0.01,0,0.61,0.21,1.26,2.52c0.23,0.82,0.02,1.21-0.15,1.43
		c-0.62,0.81-2.21,1.2-3.94,1.38C609.05,337.89,609.2,337.35,609.39,336.78 M613.78,343.22c-0.34,0.71-1.99,1.33-3.38,0.76
		c-1.15-0.47-1.74-1.6-1.76-3.25c1.25-0.11,2.49-0.32,3.57-0.7l-0.45,0.79C613.28,341.69,614.07,342.63,613.78,343.22"/>
	<rect x="392.99" y="324.06" class="st1" width="2.29" height="16.27"/>
	<path class="st1" d="M386.99,336.99c0,0.86-0.7,1.56-1.56,1.56h-4.51c0.04-0.08,0.08-0.16,0.11-0.24c0.7-1.78,0.26-3.86-0.34-5.1
		c-0.81-1.69-2.22-2.71-3.76-2.72h-0.02c-1.56,0-2.99,1.03-3.84,2.75c-0.41,0.83-0.69,1.65-0.93,2.37c-0.71,2.08-1,2.94-3.28,2.94h0
		h-2.2c-0.52-5.53-5.64-8.26-5.87-8.38l-1.05,2.03c0.04,0.02,4.09,2.18,4.63,6.35h-7.15v2.29l11.65,0h0c1.65,0,2.75-0.42,3.52-1.07
		c1.1,0.74,2.83,1.07,4.31,1.07c0.84,0,1.6-0.11,2.13-0.31c0.13-0.05,0.25-0.11,0.37-0.17v0.48h6.23c2.12,0,3.84-1.72,3.84-3.84
		v-12.93h-2.29V336.99z M378.92,337.46c-0.18,0.46-0.48,0.76-0.91,0.93c-0.96,0.37-3.38,0.07-4.29-0.48
		c0.23-0.51,0.42-1.05,0.59-1.57c0.23-0.68,0.47-1.39,0.82-2.09c0.46-0.92,1.12-1.47,1.79-1.47h0.01c0.66,0,1.28,0.52,1.71,1.42
		C379.06,335.05,379.32,336.45,378.92,337.46"/>
	<path class="st1" d="M512.95,330.49h-0.02c-1.56,0-2.99,1.03-3.84,2.75c-0.41,0.83-0.69,1.65-0.93,2.37
		c-0.71,2.08-1,2.94-3.28,2.94h0l-9.32,0c-0.86,0-1.56-0.7-1.56-1.56v-8.43h-2.29v1.09c-0.66,0.2-1.87,0.59-3.12,1.17
		c-2.69,1.24-4.22,2.7-4.56,4.34c-0.17,0.83,0.04,1.61,0.6,2.2c0.34,0.36,1.55,1.32,4.79,1.32c0.75,0,1.62-0.06,2.6-0.18
		c0.59,1.37,1.95,2.34,3.54,2.34l9.32,0h0c1.65,0,2.75-0.42,3.52-1.07c1.72,1.13,5.01,1.32,6.44,0.76c1.03-0.4,1.79-1.16,2.21-2.22
		c0.7-1.78,0.26-3.86-0.34-5.1C515.9,331.52,514.5,330.5,512.95,330.49 M486.3,335.79c-0.02-0.03-0.04-0.05-0.02-0.17
		c0.28-1.39,3.06-2.79,5.43-3.57v4.2C489.5,336.49,486.86,336.38,486.3,335.79 M514.93,337.47c-0.18,0.46-0.48,0.76-0.91,0.93
		c-0.96,0.37-3.38,0.07-4.29-0.48c0.23-0.51,0.42-1.05,0.59-1.57c0.23-0.68,0.47-1.39,0.82-2.09c0.46-0.92,1.12-1.47,1.79-1.47h0.01
		c0.66,0,1.28,0.52,1.71,1.42C515.07,335.06,515.33,336.45,514.93,337.47"/>
	<path class="st1" d="M474.93,336.99c0,0.86-0.7,1.56-1.56,1.56h-1.4c-0.86,0-1.56-0.7-1.56-1.56v-12.93h-2.29v12.93
		c0,0.86-0.7,1.56-1.56,1.56h-3.27c-0.03-2.3-0.48-5.13-2.36-6.69c-2.18-1.8-5.14-0.66-7.24,0.64c-1.23,0.76-2.37,1.7-3.4,2.71
		v-11.15h-2.29v14.49h-9.38c0.21-0.48,0.33-1,0.33-1.56v-5.57h-2.29v5.57c0,0.86-0.7,1.56-1.56,1.56h-4.83
		c-0.86,0-1.56-0.7-1.56-1.56v-5.57h-2.29v8.89c0,1.75-1.43,3.18-3.18,3.18v2.29c2.95,0,5.35-2.34,5.46-5.26
		c0.48,0.21,1.01,0.33,1.56,0.33h4.83c0.77,0,1.49-0.23,2.09-0.62v0.62h29.37c1.05,0,2.01-0.42,2.7-1.11
		c0.7,0.69,1.65,1.11,2.7,1.11h1.4c2.12,0,3.84-1.72,3.84-3.84v-12.93h-2.29V336.99z M450.29,337.72c0.94-0.92,1.99-1.76,3.08-2.5
		c1.22-0.83,2.62-1.71,4.1-1.94c0.62-0.1,1.3-0.08,1.83,0.29c0.46,0.33,0.76,0.83,0.97,1.35c0.46,1.13,0.64,2.42,0.69,3.63h-10.68
		V337.72z"/>
	<path class="st1" d="M352.21,336.99c0,0.86-0.7,1.56-1.56,1.56h-1.02c-0.89,0-1.64-0.71-1.64-1.56v-3.04c0-0.94-0.37-1.76-1.05-2.3
		c-0.77-0.62-1.88-0.82-3.04-0.55c-2.13,0.49-3.67,2.27-3.67,4.25v5.23c0,0.63-0.57,1-1.05,1.21c-1.51,0.64-4.11,0.41-5.67-1.09
		c-1.49-1.44-1.69-3.73-0.58-6.62l-2.14-0.82c-1.95,5.08-0.13,7.88,1.13,9.09c1.51,1.46,3.55,2.07,5.39,2.07
		c1.02,0,1.98-0.19,2.76-0.52c1.55-0.66,2.44-1.86,2.44-3.31v-5.23c0-0.92,0.8-1.77,1.89-2.02c0.55-0.13,0.93-0.03,1.11,0.11
		c0.05,0.04,0.19,0.15,0.19,0.51v3.04c0,2.08,1.8,3.84,3.93,3.84h1.02c2.12,0,3.84-1.72,3.84-3.84v-5.57h-2.29V336.99z"/>
	<path class="st1" d="M414.24,340.58c0,0.63-0.57,1-1.05,1.2c-1.52,0.64-4.11,0.41-5.67-1.09c-1.49-1.44-1.69-3.73-0.58-6.62
		l-2.14-0.82c-1.95,5.08-0.13,7.88,1.13,9.09c1.51,1.46,3.54,2.07,5.39,2.07c1.02,0,1.98-0.19,2.76-0.52
		c1.55-0.66,2.44-1.86,2.44-3.31v-9.16h-2.29V340.58z"/>
	<path class="st1" d="M545.4,336.99c0,0.86-0.7,1.56-1.55,1.56l-0.83,0c-2.23,0.03-4.13-0.14-5.7-0.51
		c0.06-0.05,0.11-0.09,0.17-0.14c0.49-0.42,2.92-2.61,2.53-4.82c-0.13-0.73-0.61-1.71-2.17-2.28l-0.12-0.04l-0.13-0.02
		c-2.05-0.26-4.13-0.28-6.18-0.06l-0.13,0.01l-0.12,0.04c-1.29,0.46-1.73,1.29-1.87,1.92c-0.43,1.95,1.62,4.21,2.52,5.09
		c0.14,0.14,0.29,0.27,0.44,0.4c-1.26,0.32-2.63,0.41-4.27,0.42l-3.35,0c-0.86,0-1.56-0.7-1.56-1.56v-12.93h-2.29v12.93
		c0,2.12,1.72,3.84,3.84,3.84l3.35,0c2.66,0,4.81-0.24,6.85-1.2c2.12,0.85,4.86,1.25,8.2,1.2l0.82,0c2.12,0,3.84-1.72,3.84-3.84
		v-12.93h-2.29V336.99z M536.02,336.14c-0.43,0.36-0.85,0.67-1.27,0.93c-0.51-0.28-0.96-0.61-1.33-0.97
		c-1.29-1.26-1.98-2.52-1.88-2.96c0.02-0.07,0.14-0.15,0.28-0.21c1.78-0.18,3.59-0.17,5.37,0.05c0.27,0.11,0.55,0.28,0.59,0.49
		C537.88,334.04,537.09,335.24,536.02,336.14"/>
</g>
</svg>
