<?xml version="1.0" encoding="utf-8"?>
<!-- Generator: Adobe Illustrator 27.0.0, SVG Export Plug-In . SVG Version: 6.00 Build 0)  -->
<svg version="1.1" id="Layer_1" xmlns="http://www.w3.org/2000/svg" xmlns:xlink="http://www.w3.org/1999/xlink" x="0px" y="0px"
	 viewBox="0 0 432 262" style="enable-background:new 0 0 432 262;" xml:space="preserve">
<style type="text/css">
	.st0{fill:#4C9C2E;}
	.st1{fill:#0091B3;}
	.st2{fill:#9B552B;}
	.st3{fill:#FFFFFF;}
	.st4{fill:#636569;}
</style>
<g>
	<g>
		<path id="XMLID_00000023238809080647174570000008888529743443830702_" class="st0" d="M316.88,121.06
			c-3.67,4.19-7.02,8.62-10.01,13.32c-1.02,1.58-1.97,3.18-2.89,4.8c-0.93,1.59-1.85,3.22-2.71,4.89
			c-2.59,4.96-4.75,10.06-6.54,15.34c-2.45,7.15-4.16,14.58-5.15,22.31l29.5-16.99c1.67-4.56,3.68-8.99,6.08-13.29l0.02,0l0-0.02
			c2.5-4.22,5.36-8.15,8.46-11.88v-34.09C327.44,110.16,321.86,115.36,316.88,121.06"/>
		<path id="XMLID_00000108310603033225461230000012999842072654762936_" class="st1" d="M336.78,139.52
			c3.11,3.73,5.98,7.66,8.48,11.89l0.01,0.02l0.01,0c2.41,4.3,4.41,8.73,6.08,13.29l29.5,16.99c-1-7.73-2.71-15.16-5.15-22.31
			c-1.8-5.28-3.96-10.38-6.55-15.34c-0.87-1.66-1.79-3.29-2.71-4.89c-0.92-1.61-1.87-3.22-2.88-4.8
			c-2.99-4.71-6.34-9.14-10.01-13.32c-4.98-5.7-10.58-10.9-16.77-15.63V139.52z"/>
		<path id="XMLID_00000098193090672912873230000015457569059968729009_" class="st2" d="M320.73,167.36
			c4.78,0.82,9.63,1.32,14.55,1.37l0.02,0h0.01c4.9-0.07,9.75-0.56,14.54-1.41l29.51,16.99c-7.19,3.01-14.48,5.27-21.9,6.74
			c-5.46,1.09-10.98,1.79-16.54,2.04c-1.87,0.09-3.73,0.12-5.59,0.1c-1.85,0.02-3.72,0-5.59-0.08c-5.57-0.23-11.1-0.89-16.54-1.95
			c-7.43-1.45-14.74-3.69-21.94-6.68L320.73,167.36z"/>
	</g>
	<g id="XMLID_00000132066062721656834510000001947456867957252236_">
		<path id="XMLID_00000129205459760670241900000002675450073872627378_" class="st3" d="M316.49,186.39
			c-2.54-0.42-3.71-1.89-3.8-2.04l1.4-1.54c0.23,0.21,1.2,1.2,2.61,1.43c1.16,0.19,2.01-0.26,2.16-1.13c0.06-0.36-0.05-0.69-0.2-0.9
			c-0.62-0.87-2.71-1.51-3.75-2.98c-0.4-0.57-0.75-1.34-0.57-2.42c0.36-2.15,2.33-3.26,4.73-2.85c2.36,0.39,3.45,1.8,3.54,1.93
			l-1.43,1.44c-0.13-0.14-1.1-1.11-2.3-1.31c-1.05-0.17-1.89,0.2-2.02,0.96c-0.06,0.35,0.02,0.53,0.18,0.77
			c0.48,0.66,2.84,1.62,3.87,3.06c0.47,0.66,0.73,1.39,0.54,2.5C321.09,185.56,319.11,186.83,316.49,186.39z"/>
		<path id="XMLID_00000147941093306861424010000009920458402436060564_" class="st3" d="M331.56,187.66l-0.74-2.58l-4.34-0.27
			l-1.04,2.46l-2.58-0.15l5.12-11.81l2.57,0.16l3.67,12.35L331.56,187.66z M329.07,178.12l-1.83,4.76l3.05,0.18L329.07,178.12z"/>
		<path id="XMLID_00000160192761324207192050000018292416404558076580_" class="st3" d="M339.92,187.87
			c-2.56,0.1-3.99-1.11-4.14-1.25l1.06-1.78c0.27,0.15,1.42,0.93,2.86,0.88c1.17-0.05,1.91-0.67,1.88-1.55
			c-0.02-0.36-0.19-0.66-0.37-0.84c-0.78-0.73-2.96-0.94-4.28-2.16c-0.51-0.47-1-1.17-1.05-2.25c-0.09-2.17,1.62-3.65,4.05-3.74
			c2.4-0.1,3.74,1.07,3.86,1.17l-1.1,1.7c-0.18-0.13-1.31-0.86-2.53-0.82c-1.07,0.04-1.81,0.58-1.77,1.34
			c0.01,0.36,0.13,0.53,0.32,0.72c0.61,0.55,3.11,1,4.4,2.21c0.61,0.56,1,1.22,1.04,2.35C344.26,186.12,342.58,187.76,339.92,187.87
			z"/>
		<path id="XMLID_00000102545248005765811410000016063180642507854216_" class="st3" d="M352.78,186.74
			c-3.48,0.52-6.25-1.71-6.82-5.49c-0.55-3.69,1.44-6.53,4.91-7.05c3.54-0.53,6.23,1.7,6.76,5.29
			C358.22,183.36,356.19,186.22,352.78,186.74z M351.09,176.28c-1.91,0.3-2.91,2.25-2.53,4.74c0.37,2.52,2.05,3.87,3.94,3.58
			c2.48-0.38,2.86-2.83,2.57-4.75C354.71,177.49,353.1,175.99,351.09,176.28z"/>
	</g>
	<path id="XMLID_00000033363327650676072550000000285353968055935622_" class="st3" d="M316.49,186.39
		c-2.54-0.42-3.71-1.89-3.8-2.04l1.4-1.54c0.23,0.21,1.2,1.2,2.61,1.43c1.16,0.19,2.01-0.26,2.16-1.13c0.06-0.36-0.05-0.69-0.2-0.9
		c-0.62-0.87-2.71-1.51-3.75-2.98c-0.4-0.57-0.75-1.34-0.57-2.42c0.36-2.15,2.33-3.26,4.73-2.85c2.36,0.39,3.45,1.8,3.54,1.93
		l-1.43,1.44c-0.13-0.14-1.1-1.11-2.3-1.31c-1.05-0.17-1.89,0.2-2.02,0.96c-0.06,0.35,0.02,0.53,0.18,0.77
		c0.48,0.66,2.84,1.62,3.87,3.06c0.47,0.66,0.73,1.39,0.54,2.5C321.09,185.56,319.11,186.83,316.49,186.39z"/>
	<path id="XMLID_00000046322735361926419570000013340857729977351357_" class="st3" d="M331.56,187.66l-0.74-2.58l-4.34-0.27
		l-1.04,2.46l-2.58-0.15l5.12-11.81l2.57,0.16l3.67,12.35L331.56,187.66z M329.07,178.12l-1.83,4.76l3.05,0.18L329.07,178.12z"/>
	<path id="XMLID_00000060724819352503788590000002343753293941678983_" class="st3" d="M339.92,187.87
		c-2.56,0.1-3.99-1.11-4.14-1.25l1.06-1.78c0.27,0.15,1.42,0.93,2.86,0.88c1.17-0.05,1.91-0.67,1.88-1.55
		c-0.02-0.36-0.19-0.66-0.37-0.84c-0.78-0.73-2.96-0.94-4.28-2.16c-0.51-0.47-1-1.17-1.05-2.25c-0.09-2.17,1.62-3.65,4.05-3.74
		c2.4-0.1,3.74,1.07,3.86,1.17l-1.1,1.7c-0.18-0.13-1.31-0.86-2.53-0.82c-1.07,0.04-1.81,0.58-1.77,1.34
		c0.01,0.36,0.13,0.53,0.32,0.72c0.61,0.55,3.11,1,4.4,2.21c0.61,0.56,1,1.22,1.04,2.35C344.26,186.12,342.58,187.76,339.92,187.87z
		"/>
	<g>
		<g>
			<g>
				<path class="st4" d="M65.36,182.94l0.47-2.85c1.71,0.81,3.44,1.22,5.21,1.22c1.2,0,2.16-0.21,2.9-0.63
					c0.82-0.48,1.24-1.19,1.24-2.14c0-0.67-0.28-1.26-0.85-1.76c-0.57-0.5-1.66-1.15-3.29-1.93c-1.91-0.92-3.22-1.71-3.93-2.35
					c-1.02-0.92-1.54-2-1.54-3.23c0-1.93,0.68-3.36,2.05-4.28c1.17-0.81,2.77-1.22,4.82-1.22c1.74,0,3.37,0.36,4.91,1.09l-0.47,2.73
					c-1.74-0.78-3.24-1.17-4.52-1.17c-2.48,0-3.71,0.83-3.71,2.48c0,0.56,0.26,1.06,0.79,1.49c0.53,0.43,1.54,1.01,3.05,1.74
					c1.96,0.92,3.31,1.72,4.05,2.39c1.11,0.98,1.66,2.13,1.66,3.44c0,2.07-0.78,3.65-2.35,4.74c-1.25,0.87-2.86,1.3-4.82,1.3
					C68.85,183.99,66.96,183.64,65.36,182.94z"/>
				<path class="st4" d="M93.49,181.85l0.34,1.59c-0.66,0.31-1.41,0.46-2.26,0.46c-0.71,0-1.28-0.18-1.71-0.55
					c-0.43-0.36-0.64-0.85-0.64-1.47c-0.8,1.34-2.16,2.01-4.1,2.01c-3.02,0-4.52-1.36-4.52-4.07c0-1.79,0.73-3.09,2.18-3.9
					c1.05-0.59,2.43-0.88,4.14-0.88c0.63,0,1.39,0.06,2.3,0.17v-1.3c0-0.78-0.25-1.33-0.75-1.64c-0.5-0.31-1.39-0.46-2.67-0.46
					c-1.42,0-2.82,0.25-4.18,0.76l0.47-2.31c1.31-0.5,2.82-0.76,4.52-0.76c2.02,0,3.43,0.41,4.23,1.22c0.8,0.78,1.2,2.1,1.2,3.94
					v6.5c0,0.5,0.24,0.76,0.73,0.76C93.08,181.93,93.32,181.91,93.49,181.85z M89.22,178.58v-1.38c-0.94-0.08-1.62-0.13-2.05-0.13
					c-1.25,0-2.16,0.2-2.73,0.59c-0.57,0.39-0.85,1.02-0.85,1.89c0,1.37,0.84,2.06,2.52,2.06c0.88,0,1.62-0.29,2.22-0.86
					C88.93,180.17,89.22,179.45,89.22,178.58z"/>
				<path class="st4" d="M109.54,181.85l0.3,1.59c-0.57,0.31-1.32,0.46-2.26,0.46c-0.71,0-1.28-0.19-1.71-0.57
					c-0.43-0.38-0.64-0.87-0.64-1.49c-0.68,0.62-1.47,1.11-2.35,1.49c-0.88,0.38-1.69,0.57-2.43,0.57c-1.57,0-2.66-0.31-3.29-0.92
					c-0.65-0.7-0.98-1.9-0.98-3.61v-9.61h2.86v9.31c0,0.9,0.12,1.5,0.36,1.8c0.24,0.31,0.72,0.46,1.43,0.46
					c0.71,0,1.53-0.2,2.45-0.61c0.92-0.41,1.57-0.86,1.94-1.36v-9.61h2.82v11.41c0,0.5,0.24,0.76,0.73,0.76
					C109.08,181.93,109.34,181.91,109.54,181.85z"/>
				<path class="st4" d="M126.57,181.85l0.38,1.59c-0.71,0.31-1.48,0.46-2.3,0.46c-0.74,0-1.32-0.18-1.73-0.55
					c-0.41-0.36-0.62-0.87-0.62-1.51c-0.63,1.37-2.19,2.06-4.7,2.06c-1.68,0-3.02-0.57-4.01-1.72c-1.05-1.2-1.58-3.01-1.58-5.41
					c0-2.32,0.57-4.13,1.71-5.41c1.08-1.23,2.6-1.85,4.57-1.85c1.56,0,2.9,0.18,4.01,0.55v-5.96h2.82v17.08
					c0,0.5,0.24,0.76,0.73,0.76C126.13,181.93,126.37,181.91,126.57,181.85z M122.3,177.86v-5.5c-1.25-0.36-2.36-0.55-3.33-0.55
					c-1.42,0-2.43,0.36-3.03,1.09c-0.6,0.73-0.9,1.96-0.9,3.69c0,1.82,0.27,3.09,0.81,3.82c0.51,0.73,1.39,1.09,2.65,1.09
					c1.28,0,2.26-0.41,2.95-1.22C122.02,179.63,122.3,178.82,122.3,177.86z"/>
				<path class="st4" d="M132.8,165.24c0,0.5-0.17,0.93-0.51,1.28c-0.34,0.35-0.77,0.52-1.28,0.52c-0.48,0-0.91-0.17-1.28-0.52
					c-0.37-0.35-0.55-0.75-0.55-1.2c0-0.5,0.18-0.94,0.55-1.3c0.37-0.36,0.8-0.55,1.28-0.55c0.51,0,0.94,0.17,1.28,0.52
					C132.63,164.35,132.8,164.76,132.8,165.24z M133.83,181.85l0.38,1.59c-0.57,0.31-1.35,0.46-2.35,0.46
					c-0.71,0-1.27-0.19-1.69-0.57c-0.41-0.38-0.62-0.87-0.62-1.49v-12.08h2.86v11.41c0,0.5,0.23,0.76,0.68,0.76
					C133.38,181.93,133.63,181.91,133.83,181.85z"/>
				<path class="st4" d="M147.27,182.94l0.47-2.85c1.71,0.81,3.44,1.22,5.21,1.22c1.2,0,2.16-0.21,2.9-0.63
					c0.82-0.48,1.24-1.19,1.24-2.14c0-0.67-0.29-1.26-0.85-1.76c-0.57-0.5-1.66-1.15-3.29-1.93c-1.91-0.92-3.22-1.71-3.93-2.35
					c-1.02-0.92-1.54-2-1.54-3.23c0-1.93,0.68-3.36,2.05-4.28c1.17-0.81,2.77-1.22,4.82-1.22c1.74,0,3.37,0.36,4.91,1.09l-0.47,2.73
					c-1.74-0.78-3.24-1.17-4.52-1.17c-2.48,0-3.71,0.83-3.71,2.48c0,0.56,0.26,1.06,0.79,1.49c0.53,0.43,1.54,1.01,3.05,1.74
					c1.96,0.92,3.31,1.72,4.05,2.39c1.11,0.98,1.66,2.13,1.66,3.44c0,2.07-0.78,3.65-2.35,4.74c-1.25,0.87-2.86,1.3-4.82,1.3
					C150.76,183.99,148.86,183.64,147.27,182.94z"/>
				<path class="st4" d="M169.81,181.26l0.43,2.1c-1.05,0.36-2.11,0.55-3.16,0.55c-1.05,0-1.81-0.27-2.26-0.82
					c-0.46-0.55-0.68-1.46-0.68-2.75v-8.35h-2.26l0.47-2.22h1.79v-3.73l2.82-0.92v4.66h2.94v2.22h-2.94V180
					c0,0.64,0.09,1.07,0.28,1.28c0.19,0.21,0.58,0.31,1.17,0.31C168.88,181.6,169.35,181.49,169.81,181.26z"/>
				<path class="st4" d="M185.21,181.85l0.34,1.59c-0.66,0.31-1.41,0.46-2.26,0.46c-0.71,0-1.28-0.18-1.71-0.55
					c-0.43-0.36-0.64-0.85-0.64-1.47c-0.8,1.34-2.16,2.01-4.1,2.01c-3.02,0-4.52-1.36-4.52-4.07c0-1.79,0.73-3.09,2.18-3.9
					c1.05-0.59,2.43-0.88,4.14-0.88c0.63,0,1.39,0.06,2.31,0.17v-1.3c0-0.78-0.25-1.33-0.75-1.64c-0.5-0.31-1.39-0.46-2.67-0.46
					c-1.42,0-2.82,0.25-4.18,0.76l0.47-2.31c1.31-0.5,2.82-0.76,4.52-0.76c2.02,0,3.43,0.41,4.23,1.22c0.8,0.78,1.2,2.1,1.2,3.94
					v6.5c0,0.5,0.24,0.76,0.73,0.76C184.8,181.93,185.04,181.91,185.21,181.85z M180.95,178.58v-1.38
					c-0.94-0.08-1.62-0.13-2.05-0.13c-1.25,0-2.16,0.2-2.73,0.59c-0.57,0.39-0.85,1.02-0.85,1.89c0,1.37,0.84,2.06,2.52,2.06
					c0.88,0,1.62-0.29,2.22-0.86C180.65,180.17,180.95,179.45,180.95,178.58z"/>
				<path class="st4" d="M201.48,181.85l0.34,1.59c-0.57,0.31-1.34,0.46-2.31,0.46c-0.71,0-1.28-0.18-1.71-0.55
					c-0.43-0.36-0.64-0.87-0.64-1.51v-7.55c0-0.87-0.13-1.45-0.38-1.76c-0.26-0.31-0.73-0.46-1.41-0.46c-0.66,0-1.44,0.2-2.35,0.59
					c-0.91,0.39-1.66,0.87-2.26,1.43v9.61h-2.86v-13.93h2.86v1.85c0.65-0.59,1.47-1.08,2.43-1.49c0.97-0.41,1.84-0.61,2.6-0.61
					c1.56,0,2.65,0.31,3.24,0.92c0.65,0.7,0.98,1.9,0.98,3.61v7.13c0,0.5,0.23,0.76,0.68,0.76
					C201.02,181.93,201.28,181.91,201.48,181.85z"/>
				<path class="st4" d="M218.55,181.85l0.38,1.59c-0.71,0.31-1.48,0.46-2.3,0.46c-0.74,0-1.32-0.18-1.73-0.55
					c-0.41-0.36-0.62-0.87-0.62-1.51c-0.63,1.37-2.19,2.06-4.7,2.06c-1.68,0-3.02-0.57-4.01-1.72c-1.05-1.2-1.58-3.01-1.58-5.41
					c0-2.32,0.57-4.13,1.71-5.41c1.08-1.23,2.6-1.85,4.57-1.85c1.56,0,2.9,0.18,4.01,0.55v-5.96h2.82v17.08
					c0,0.5,0.24,0.76,0.72,0.76C218.11,181.93,218.35,181.91,218.55,181.85z M214.28,177.86v-5.5c-1.25-0.36-2.36-0.55-3.33-0.55
					c-1.42,0-2.43,0.36-3.03,1.09s-0.9,1.96-0.9,3.69c0,1.82,0.27,3.09,0.81,3.82c0.51,0.73,1.39,1.09,2.65,1.09
					c1.28,0,2.26-0.41,2.95-1.22C214,179.63,214.28,178.82,214.28,177.86z"/>
				<path class="st4" d="M233.66,181.85l0.34,1.59c-0.65,0.31-1.41,0.46-2.26,0.46c-0.71,0-1.28-0.18-1.71-0.55
					c-0.43-0.36-0.64-0.85-0.64-1.47c-0.8,1.34-2.16,2.01-4.1,2.01c-3.02,0-4.52-1.36-4.52-4.07c0-1.79,0.73-3.09,2.18-3.9
					c1.05-0.59,2.43-0.88,4.14-0.88c0.63,0,1.39,0.06,2.3,0.17v-1.3c0-0.78-0.25-1.33-0.75-1.64c-0.5-0.31-1.39-0.46-2.67-0.46
					c-1.42,0-2.82,0.25-4.18,0.76l0.47-2.31c1.31-0.5,2.82-0.76,4.52-0.76c2.02,0,3.43,0.41,4.23,1.22c0.8,0.78,1.2,2.1,1.2,3.94
					v6.5c0,0.5,0.24,0.76,0.73,0.76C233.24,181.93,233.49,181.91,233.66,181.85z M229.39,178.58v-1.38
					c-0.94-0.08-1.62-0.13-2.05-0.13c-1.25,0-2.16,0.2-2.73,0.59c-0.57,0.39-0.85,1.02-0.85,1.89c0,1.37,0.84,2.06,2.52,2.06
					c0.88,0,1.62-0.29,2.22-0.86C229.09,180.17,229.39,179.45,229.39,178.58z"/>
				<path class="st4" d="M239.21,183.7h-2.86v-13.93h2.86v1.8c0.26-0.61,0.63-1.11,1.13-1.49c0.5-0.38,1-0.57,1.52-0.57
					c0.85,0,1.74,0.25,2.65,0.76l-0.51,2.31c-0.85-0.28-1.64-0.42-2.35-0.42c-0.94,0-1.75,0.62-2.43,1.85V183.7z"/>
				<path class="st4" d="M260.72,181.85l0.38,1.59c-0.71,0.31-1.48,0.46-2.3,0.46c-0.74,0-1.32-0.18-1.73-0.55
					c-0.41-0.36-0.62-0.87-0.62-1.51c-0.63,1.37-2.19,2.06-4.7,2.06c-1.68,0-3.02-0.57-4.01-1.72c-1.05-1.2-1.58-3.01-1.58-5.41
					c0-2.32,0.57-4.13,1.71-5.41c1.08-1.23,2.6-1.85,4.57-1.85c1.56,0,2.9,0.18,4.01,0.55v-5.96h2.82v17.08
					c0,0.5,0.24,0.76,0.73,0.76C260.28,181.93,260.52,181.91,260.72,181.85z M256.45,177.86v-5.5c-1.25-0.36-2.36-0.55-3.33-0.55
					c-1.42,0-2.43,0.36-3.03,1.09c-0.6,0.73-0.9,1.96-0.9,3.69c0,1.82,0.27,3.09,0.81,3.82c0.51,0.73,1.39,1.09,2.65,1.09
					c1.28,0,2.26-0.41,2.94-1.22C256.16,179.63,256.45,178.82,256.45,177.86z"/>
				<path class="st4" d="M263.11,183.28l0.64-2.43c0.48,0.22,1.1,0.42,1.86,0.59c0.75,0.17,1.37,0.25,1.86,0.25
					c2.28,0,3.41-0.67,3.41-2.01c0-0.45-0.2-0.82-0.6-1.11c-0.4-0.29-1.18-0.65-2.35-1.07c-1.51-0.56-2.55-1.08-3.12-1.55
					c-0.85-0.67-1.28-1.52-1.28-2.56c0-1.23,0.48-2.18,1.45-2.85c0.97-0.67,2.35-1.01,4.14-1.01c1.56,0,2.9,0.24,4.01,0.71
					l-0.47,2.27c-1.11-0.5-2.26-0.76-3.46-0.76c-1.91,0-2.86,0.49-2.86,1.47c0,0.36,0.18,0.67,0.53,0.92
					c0.36,0.25,1.06,0.57,2.11,0.96c1.59,0.59,2.7,1.13,3.33,1.64c0.91,0.76,1.37,1.73,1.37,2.94c0,1.37-0.63,2.45-1.88,3.23
					c-1.05,0.67-2.33,1.01-3.84,1.01C266.07,183.91,264.44,183.7,263.11,183.28z"/>
			</g>
		</g>
		<g>
			<g>
				<path class="st4" d="M72.93,133.93c0.46,0,0.86-0.17,1.19-0.51c0.33-0.34,0.5-0.74,0.5-1.19c0-0.45-0.17-0.84-0.5-1.17
					c-0.33-0.33-0.73-0.49-1.19-0.49c-0.46,0-0.86,0.16-1.19,0.49c-0.33,0.33-0.5,0.72-0.5,1.17c0,0.45,0.17,0.85,0.5,1.19
					C72.07,133.77,72.46,133.93,72.93,133.93z"/>
				<path class="st4" d="M68.69,133.93c0.46,0,0.86-0.17,1.19-0.51c0.33-0.34,0.5-0.74,0.5-1.19c0-0.45-0.17-0.84-0.5-1.17
					c-0.33-0.33-0.73-0.49-1.19-0.49c-0.46,0-0.86,0.16-1.21,0.49c-0.35,0.33-0.52,0.72-0.52,1.17c0,0.45,0.17,0.85,0.52,1.19
					C67.83,133.77,68.23,133.93,68.69,133.93z"/>
				<path class="st4" d="M82.1,150.46c1.12-0.82,1.68-2.08,1.68-3.78v-9.39h-2.76v9.52c0,1.25-0.68,1.87-2.03,1.87h-1.36h-0.17
					h-1.51v-11.38h-5.48c-1.32,0-2.42,0.34-3.28,1.02c-1.07,0.88-1.6,2.14-1.6,3.78v4.5c0,1.42,0.37,2.53,1.12,3.36
					c0.89,0.96,2.25,1.44,4.06,1.44h1.04l1.34-1.78v1.78h4.32h0.17h1.15C80.13,151.39,81.24,151.08,82.1,150.46z M73.14,148.68
					h-2.59c-0.78,0-1.33-0.16-1.66-0.47c-0.33-0.31-0.5-0.83-0.5-1.57v-4.63c0-1.33,0.66-2,1.99-2h2.76V148.68z"/>
				<path class="st4" d="M77.22,155.52c-0.46,0-0.86,0.16-1.19,0.49c-0.33,0.33-0.5,0.71-0.5,1.17c0,0.48,0.16,0.88,0.47,1.19
					c0.32,0.31,0.72,0.47,1.21,0.47c0.46,0,0.86-0.16,1.19-0.49c0.33-0.33,0.5-0.72,0.5-1.17c0-0.45-0.17-0.84-0.5-1.17
					C78.07,155.68,77.68,155.52,77.22,155.52z"/>
				<path class="st4" d="M81.53,155.52c-0.49,0-0.9,0.16-1.23,0.49c-0.33,0.33-0.5,0.71-0.5,1.17c0,0.48,0.17,0.88,0.5,1.19
					c0.33,0.31,0.74,0.47,1.23,0.47c0.46,0,0.85-0.16,1.17-0.49c0.32-0.33,0.48-0.72,0.48-1.17c0-0.45-0.17-0.84-0.5-1.17
					C82.35,155.68,81.97,155.52,81.53,155.52z"/>
				<path class="st4" d="M90.33,137.29H88.3v2.72h1.86c2.71,0,4.06,1.36,4.06,4.08v2.68c0,1.27-0.68,1.91-2.03,1.91h-6.3v2.72h6.09
					c1.67,0,2.94-0.45,3.8-1.36c0.78-0.82,1.17-1.87,1.17-3.14v-3.1c0-1.9-0.6-3.44-1.81-4.63
					C93.86,137.91,92.26,137.29,90.33,137.29z"/>
				<path class="st4" d="M154.38,146.6c0,0.76-0.17,1.3-0.5,1.61c-0.33,0.31-0.9,0.47-1.71,0.47h-0.91h-0.17h-0.99v-11.38h-2.76
					v11.38h-4.79v-11.38h-2.76v11.38h-4.84v-11.38h-2.72v11.38h-2.41h-0.22h-6.09c1.55-1.67,3.08-3.09,4.58-4.25v-0.34
					c0-2.04-0.6-3.68-1.81-4.93c-1.32-1.36-3.04-2.04-5.14-2.04c-1.81,0-3.35,0.51-4.62,1.53c-1.53,1.25-2.29,3.03-2.29,5.35v0.42
					c1.73,1.39,3.24,2.8,4.53,4.25h-7.64h0.74h-1.51v-11.38h-5.48c-1.44,0-2.59,0.38-3.45,1.15c-0.95,0.85-1.43,2.07-1.43,3.65v4.5
					c0,1.5,0.42,2.66,1.25,3.48c0.89,0.88,2.2,1.32,3.93,1.32h2.37v0.85c0,2.75-1.93,4.12-5.79,4.12h-0.43l1.86,2.46
					c2.39-0.17,4.14-0.75,5.27-1.74c1.27-1.13,1.9-2.92,1.9-5.35v-0.34h1.51h-0.74h7.64c0.81,0,1.61-0.27,2.42-0.81
					c0.83,0.54,1.63,0.81,2.37,0.81h6.04h0.22h21.28h0.17h0.99c1.52,0,2.7-0.38,3.54-1.15c0.89-0.79,1.34-1.94,1.34-3.44v-15.25
					h-2.76V146.6z M107.55,148.68h-2.16c-1.04,0-1.73-0.14-2.07-0.42c-0.35-0.28-0.52-0.83-0.52-1.66v-4.5
					c0-0.74,0.15-1.27,0.45-1.59c0.3-0.33,0.81-0.49,1.53-0.49h2.76V148.68z M121.19,147.23c-1.58-1.81-2.98-3.2-4.19-4.16
					c0.11-0.91,0.55-1.66,1.3-2.25c0.83-0.65,1.8-0.98,2.89-0.98c0.89,0,1.71,0.24,2.46,0.72c0.95,0.62,1.5,1.46,1.64,2.51
					C123.88,144.23,122.51,145.62,121.19,147.23z"/>
				<polygon class="st4" points="160.2,152.92 163,151.39 163,131.56 160.2,131.56 				"/>
				<path class="st4" d="M179.09,133.93c0.46,0,0.86-0.17,1.21-0.51c0.35-0.34,0.52-0.72,0.52-1.15c0-0.45-0.17-0.84-0.52-1.17
					c-0.35-0.33-0.75-0.49-1.21-0.49c-0.43,0-0.81,0.16-1.14,0.49c-0.33,0.33-0.5,0.72-0.5,1.17c0,0.45,0.17,0.84,0.5,1.17
					C178.28,133.77,178.66,133.93,179.09,133.93z"/>
				<path class="st4" d="M184.57,146.81c0,1.25-0.66,1.87-1.99,1.87H172.2c-0.69,0-1.2-0.16-1.51-0.49
					c-0.32-0.33-0.48-0.86-0.48-1.59v-6.03l-2.81,1.78v4.12c0,1.5,0.39,2.68,1.17,3.53c0.86,0.93,2.14,1.4,3.84,1.4h9.95
					c1.55,0,2.76-0.4,3.63-1.19c0.89-0.82,1.34-2,1.34-3.53v-9.39h-2.76V146.81z"/>
				<path class="st4" d="M174.86,133.93c0.46,0,0.86-0.17,1.19-0.51c0.33-0.34,0.5-0.74,0.5-1.19c0-0.45-0.17-0.84-0.5-1.17
					c-0.33-0.33-0.73-0.49-1.19-0.49c-0.46,0-0.86,0.16-1.21,0.49c-0.35,0.33-0.52,0.72-0.52,1.17c0,0.45,0.17,0.85,0.52,1.19
					C174,133.77,174.4,133.93,174.86,133.93z"/>
				<path class="st4" d="M202.21,133.93c0.46,0,0.86-0.17,1.19-0.51c0.33-0.34,0.5-0.74,0.5-1.19c0-0.45-0.17-0.84-0.5-1.17
					c-0.33-0.33-0.73-0.49-1.19-0.49c-0.46,0-0.86,0.16-1.21,0.49c-0.35,0.33-0.52,0.72-0.52,1.17c0,0.45,0.17,0.85,0.52,1.19
					C201.34,133.77,201.75,133.93,202.21,133.93z"/>
				<polygon class="st4" points="230.61,152.92 233.41,151.39 233.41,131.56 230.61,131.56 				"/>
				<path class="st4" d="M264.86,146.6c0,0.76-0.17,1.3-0.5,1.61c-0.33,0.31-0.9,0.47-1.7,0.47h-0.91h-0.17h0.28v-6.75
					c0-1.5-0.46-2.68-1.38-3.53c-0.92-0.85-2.17-1.27-3.76-1.27c-1.32,0-2.43,0.3-3.32,0.89c-1.21,0.79-1.81,2.1-1.81,3.91v6.75
					h-3.11h-0.17h-1.51v-11.38h-5.48c-1.44,0-2.59,0.38-3.45,1.15c-0.95,0.85-1.42,2.07-1.42,3.65v4.5c0,1.5,0.42,2.66,1.25,3.48
					c0.89,0.88,2.2,1.32,3.93,1.32h2.37v0.85c0,2.75-1.93,4.12-5.79,4.12h-0.43l1.86,2.46c2.39-0.17,4.14-0.75,5.27-1.74
					c1.27-1.13,1.9-2.92,1.9-5.35v-0.34h1.51h0.17h3.15c0.23,1.05,0.76,1.87,1.6,2.46c0.92,0.71,2.09,1.06,3.5,1.06
					c1.41,0,2.55-0.3,3.41-0.91c0.86-0.61,1.4-1.48,1.6-2.61h-0.15h0.17h0.99c1.53,0,2.71-0.38,3.54-1.15
					c0.89-0.79,1.34-1.94,1.34-3.44v-15.25h-2.76V146.6z M243.98,148.68h-2.16c-1.04,0-1.73-0.14-2.07-0.42
					c-0.35-0.28-0.52-0.83-0.52-1.66v-4.5c0-0.74,0.15-1.27,0.45-1.59c0.3-0.33,0.81-0.49,1.53-0.49h2.76V148.68z M259.14,150.16
					c0,1.39-0.81,2.08-2.42,2.08c-1.61,0-2.42-0.69-2.42-2.08v-8.28c0-1.39,0.81-2.08,2.42-2.08c1.61,0,2.42,0.69,2.42,2.08V150.16z
					"/>
				<polygon class="st4" points="270.68,131.56 270.68,152.92 273.49,151.39 273.49,131.56 				"/>
			</g>
			<path class="st4" d="M226.34,138.57c-0.89-0.93-1.97-1.4-3.24-1.4c-0.55,0-1.11,0.09-1.68,0.26l-6.56,2.29v-2.42h-2.72v11.38
				h-3.11h-0.17h-1.51v-11.38h-5.57c-1.35,0-2.46,0.37-3.32,1.1c-0.98,0.85-1.47,2.08-1.47,3.7v6.58h-2.11h-0.17
				c-1.01,0-1.51-0.58-1.51-1.74v-15.38h-2.81v15.51c0,1.19,0.37,2.18,1.12,2.97c0.83,0.91,1.9,1.36,3.2,1.36h0.17h11.03l1.34-1.78
				v1.78h1.61h0.17h3.07v2.63l2.76-1.44v-1.19h7.86c1.61,0,2.85-0.47,3.71-1.4c0.75-0.82,1.12-1.85,1.12-3.1v-5.44
				C227.55,140.35,227.15,139.39,226.34,138.57z M204.54,148.68h-4.75v-6.58c0-1.39,0.66-2.08,1.99-2.08h2.76V148.68z
				 M224.79,146.85c0,1.22-0.66,1.83-1.99,1.83h-7.94V144c0-0.59,0.09-1,0.28-1.23c0.19-0.23,0.63-0.47,1.32-0.72l5.31-1.87
				c0.52-0.2,0.99-0.3,1.42-0.3c0.49,0,0.88,0.17,1.17,0.51c0.29,0.34,0.43,0.79,0.43,1.36V146.85z"/>
		</g>
	</g>
</g>
</svg>
