<?xml version="1.0" encoding="UTF-8"?>
<svg id="Layer_1" xmlns="http://www.w3.org/2000/svg" version="1.1" viewBox="0 0 190 130">
  <!-- Generator: Adobe Illustrator 29.0.1, SVG Export Plug-In . SVG Version: 2.1.0 Build 192)  -->
  <defs>
    <style>
      .st0 {
        fill: #026551;
      }
    </style>
  </defs>
  <g>
    <g>
      <g>
        <g>
          <path class="st0" d="M67.09,45.57c0-.37-.1-.71-.25-1.02l5.03-5.03c.45.27.96.44,1.52.44,1.62,0,2.94-1.32,2.94-2.94s-1.32-2.94-2.94-2.94c-.56,0-1.07.17-1.52.44l-5.03-5.03c.16-.31.25-.65.25-1.02,0-1.25-1.01-2.26-2.26-2.26s-2.26,1.01-2.26,2.26,1.01,2.26,2.26,2.26c.37,0,.71-.1,1.02-.25l5.03,5.03c-.27.45-.44.96-.44,1.52s.17,1.07.44,1.52l-5.03,5.03c-.31-.16-.65-.25-1.02-.25-1.25,0-2.26,1.01-2.26,2.26s1.01,2.26,2.26,2.26,2.26-1.01,2.26-2.26h0Z"/>
          <polygon class="st0" points="60.84 37.01 64.14 40.31 64.14 33.7 60.84 37.01"/>
        </g>
        <g>
          <path class="st0" d="M118.9,45.57c0-.37.1-.71.25-1.02l-5.03-5.03c-.45.27-.96.44-1.52.44-1.62,0-2.94-1.32-2.94-2.94s1.32-2.94,2.94-2.94c.56,0,1.07.17,1.52.44l5.03-5.03c-.16-.31-.25-.65-.25-1.02,0-1.25,1.01-2.26,2.26-2.26s2.26,1.01,2.26,2.26-1.01,2.26-2.26,2.26c-.37,0-.71-.1-1.02-.25l-5.03,5.03c.27.45.44.96.44,1.52s-.17,1.07-.44,1.52l5.03,5.03c.31-.16.65-.25,1.02-.25,1.25,0,2.26,1.01,2.26,2.26s-1.01,2.26-2.26,2.26-2.26-1.01-2.26-2.26h0Z"/>
          <polygon class="st0" points="125.15 37.01 121.85 40.31 121.85 33.7 125.15 37.01"/>
        </g>
      </g>
      <g>
        <g>
          <path class="st0" d="M80.73,61.38c-.26-.26-.57-.44-.9-.54v-7.12c.51-.12.99-.37,1.38-.77,1.15-1.15,1.15-3.01,0-4.16s-3.01-1.15-4.16,0c-.39.39-.64.88-.77,1.38h-7.12c-.11-.33-.28-.64-.54-.9-.88-.88-2.32-.88-3.2,0-.88.88-.88,2.32,0,3.2s2.32.88,3.2,0c.26-.26.44-.57.54-.9h7.12c.12.51.37.99.77,1.38.39.39.88.64,1.38.77v7.12c-.33.11-.64.28-.9.54-.88.88-.88,2.32,0,3.2s2.32.88,3.2,0c.88-.88.88-2.32,0-3.2Z"/>
          <polygon class="st0" points="70.26 59.74 74.93 59.75 70.26 55.07 70.26 59.74"/>
        </g>
        <g>
          <path class="st0" d="M117.36,24.75c-.26-.26-.44-.57-.54-.9h-7.12c-.12.51-.37.99-.77,1.38-1.15,1.15-3.01,1.15-4.16,0s-1.15-3.01,0-4.16c.39-.39.88-.64,1.38-.77v-7.12c-.33-.11-.64-.28-.9-.54-.88-.88-.88-2.32,0-3.2.88-.88,2.32-.88,3.2,0s.88,2.32,0,3.2c-.26.26-.57.44-.9.54v7.12c.51.12.99.37,1.38.77.39.39.64.88.77,1.38h7.12c.11-.33.28-.64.54-.9.88-.88,2.32-.88,3.2,0s.88,2.32,0,3.2c-.88.88-2.32.88-3.2,0Z"/>
          <polygon class="st0" points="115.74 14.27 115.74 18.94 111.06 14.27 115.74 14.27"/>
        </g>
      </g>
      <g>
        <g>
          <path class="st0" d="M68.63,24.75c.26-.26.44-.57.54-.9h7.12c.12.51.37.99.77,1.38,1.15,1.15,3.01,1.15,4.16,0s1.15-3.01,0-4.16c-.39-.39-.88-.64-1.38-.77v-7.12c.33-.11.64-.28.9-.54.88-.88.88-2.32,0-3.2-.88-.88-2.32-.88-3.2,0s-.88,2.32,0,3.2c.26.26.57.44.9.54v7.12c-.51.12-.99.37-1.38.77s-.64.88-.77,1.38h-7.12c-.11-.33-.28-.64-.54-.9-.88-.88-2.32-.88-3.2,0-.88.88-.88,2.32,0,3.2.88.88,2.32.88,3.2,0h0Z"/>
          <polygon class="st0" points="70.26 14.27 70.26 18.94 74.93 14.27 70.26 14.27"/>
        </g>
        <g>
          <path class="st0" d="M105.26,61.38c.26-.26.57-.44.9-.54v-7.12c-.51-.12-.99-.37-1.38-.77-1.15-1.15-1.15-3.01,0-4.16s3.01-1.15,4.16,0c.39.39.64.88.77,1.38h7.12c.11-.33.28-.64.54-.9.88-.88,2.32-.88,3.2,0s.88,2.32,0,3.2-2.32.88-3.2,0c-.26-.26-.44-.57-.54-.9h-7.12c-.12.51-.37.99-.77,1.38-.39.39-.88.64-1.38.77v7.12c.33.11.64.28.9.54.88.88.88,2.32,0,3.2s-2.32.88-3.2,0-.88-2.32,0-3.2Z"/>
          <polygon class="st0" points="115.74 59.74 111.06 59.75 115.74 55.07 115.74 59.74"/>
        </g>
      </g>
      <g>
        <g>
          <path class="st0" d="M101.56,62.91c-.37,0-.71.1-1.02.25l-5.03-5.03c.27-.45.44-.96.44-1.52,0-1.62-1.32-2.94-2.94-2.94s-2.94,1.32-2.94,2.94c0,.56.17,1.07.44,1.52l-5.03,5.03c-.31-.16-.65-.25-1.02-.25-1.25,0-2.26,1.01-2.26,2.26s1.01,2.26,2.26,2.26,2.26-1.01,2.26-2.26c0-.37-.1-.71-.25-1.02l5.03-5.03c.45.27.96.44,1.52.44s1.07-.17,1.52-.44l5.03,5.03c-.16.31-.25.65-.25,1.02,0,1.25,1.01,2.26,2.26,2.26s2.26-1.01,2.26-2.26-1.01-2.26-2.26-2.26h0Z"/>
          <polygon class="st0" points="93 69.16 96.3 65.86 89.69 65.86 93 69.16"/>
        </g>
        <g>
          <path class="st0" d="M101.56,11.1c-.37,0-.71-.1-1.02-.25l-5.03,5.03c.27.45.44.96.44,1.52,0,1.62-1.32,2.94-2.94,2.94s-2.94-1.32-2.94-2.94c0-.56.17-1.07.44-1.52l-5.03-5.03c-.31.16-.65.25-1.02.25-1.25,0-2.26-1.01-2.26-2.26s1.01-2.26,2.26-2.26,2.26,1.01,2.26,2.26c0,.37-.1.71-.25,1.02l5.03,5.03c.45-.27.96-.44,1.52-.44s1.07.17,1.52.44l5.03-5.03c-.16-.31-.25-.65-.25-1.02,0-1.25,1.01-2.26,2.26-2.26s2.26,1.01,2.26,2.26-1.01,2.26-2.26,2.26h0Z"/>
          <polygon class="st0" points="93 4.85 96.3 8.15 89.69 8.15 93 4.85"/>
        </g>
      </g>
    </g>
    <g>
      <path class="st0" d="M92.16,34.79l.84,2.15.84-2.14c.19-.5.36-1,.49-1.49.78-2.92.61-5.94-.49-8.72l-.84-2.11-.84,2.11c-.65,1.63-.98,3.35-.98,5.09,0,1.22.16,2.44.48,3.64.13.49.3.99.49,1.49h0Z"/>
      <path class="st0" d="M90.89,36.01l2.11.92-.93-2.11c-.21-.49-.45-.96-.71-1.4-1.51-2.62-3.77-4.63-6.52-5.82l-2.08-.9.9,2.08c.7,1.61,1.68,3.06,2.91,4.29.86.86,1.84,1.61,2.91,2.23.44.25.91.49,1.4.71h0Z"/>
      <path class="st0" d="M90.85,37.77l2.15-.84-2.14-.84c-.5-.19-1-.36-1.49-.49-2.92-.78-5.94-.61-8.72.49l-2.11.84,2.11.84c1.63.65,3.35.98,5.09.98,1.22,0,2.44-.16,3.64-.48.49-.13.99-.3,1.49-.49h0Z"/>
      <path class="st0" d="M92.07,39.05l.92-2.11-2.11.93c-.49.21-.96.45-1.4.71-2.62,1.51-4.63,3.77-5.82,6.52l-.9,2.08,2.08-.9c1.61-.7,3.06-1.68,4.29-2.91.86-.86,1.61-1.84,2.23-2.91.25-.44.49-.91.71-1.4h0Z"/>
      <path class="st0" d="M93.83,39.08l-.84-2.15-.84,2.14c-.19.5-.36,1-.49,1.49-.78,2.92-.61,5.94.49,8.72l.84,2.11.84-2.11c.65-1.63.98-3.35.98-5.09,0-1.22-.16-2.44-.48-3.64-.13-.49-.3-.99-.49-1.49h0Z"/>
      <path class="st0" d="M95.11,37.86l-2.11-.92.93,2.11c.21.49.45.96.71,1.4,1.51,2.62,3.77,4.63,6.52,5.82l2.08.9-.9-2.08c-.7-1.61-1.68-3.06-2.91-4.29-.86-.86-1.84-1.61-2.91-2.23-.44-.25-.91-.49-1.4-.71h0Z"/>
      <path class="st0" d="M95.14,36.1l-2.15.84,2.14.84c.5.19,1,.36,1.49.49,2.92.78,5.94.61,8.72-.49l2.11-.84-2.11-.84c-1.63-.65-3.35-.98-5.09-.98-1.22,0-2.44.16-3.64.48-.49.13-.99.3-1.49.49h0Z"/>
      <path class="st0" d="M93.92,34.82l-.92,2.11,2.11-.93c.49-.21.96-.45,1.4-.71,2.62-1.51,4.63-3.77,5.82-6.52l.9-2.08-2.08.9c-1.61.7-3.06,1.68-4.29,2.91-.86.86-1.61,1.84-2.23,2.91-.25.44-.49.91-.71,1.4h0Z"/>
    </g>
  </g>
  <g>
    <g>
      <path class="st0" d="M60.84,119.08h0c-.57-.4-1.21-.79-1.89-1.15-.7-.37-1.3-.71-1.82-1.05-.54-.34-.99-.69-1.35-1.05-.3-.31-.45-.63-.45-.99,0-.6.15-1.03.45-1.29.65-.57,1.71-.55,2.9.05.62.31,1.19.76,1.72,1.35l.37.42,1.14-2.07-.31-.2c-.56-.35-1.16-.6-1.81-.77-1.17-.31-2.45-.33-3.59-.05-.56.14-1.04.35-1.45.62-.43.28-.77.63-1.04,1.06-.26.44-.4.94-.4,1.5,0,.72.22,1.35.65,1.87.4.48.9.93,1.47,1.33.56.38,1.18.75,1.85,1.1.65.34,1.25.7,1.78,1.05.52.35.96.75,1.31,1.18.32.39.48.85.48,1.41,0,.35-.06.65-.2.91s-.31.49-.53.67c-.22.18-.49.32-.82.43-.96.3-2.07.16-3.2-.43-.73-.38-1.37-1-1.89-1.84l-.34-.53-1.31,2.16-.09.14.32.2c.71.46,1.51.82,2.39,1.06.89.25,1.78.37,2.65.37.66,0,1.3-.08,1.92-.23.62-.16,1.18-.41,1.65-.75.48-.35.88-.79,1.17-1.32.29-.54.44-1.19.44-1.92,0-.7-.22-1.33-.65-1.88-.39-.5-.9-.97-1.49-1.39h0Z"/>
      <path class="st0" d="M75.95,114.33c.03-.49.08-.9.16-1.22.05-.22.14-.34.14-.34l.59-.67h-4.25s.55.66.55.66h0c.06.09.12.21.15.35.08.33.13.73.16,1.19.03.47.05,1.01.06,1.6,0,.57,0,1.1,0,1.57v1.28h-5.91v-1.2c0-.47,0-.99.01-1.58,0-.61.03-1.15.06-1.63.03-.49.08-.9.16-1.22.05-.22.14-.34.14-.34l.59-.67h-4.26s.57.67.57.67h0s.09.15.14.34c.08.33.13.73.16,1.19.03.47.05,1.01.06,1.6,0,.57,0,1.1,0,1.57v3.75c0,.47,0,.99,0,1.57,0,.59-.03,1.13-.06,1.6-.03.47-.08.87-.16,1.19-.05.22-.14.33-.14.33h0l-.62.68h4.28s-.55-.66-.55-.66h0c-.07-.09-.12-.22-.15-.35-.08-.32-.13-.74-.16-1.22-.03-.48-.05-1.02-.06-1.63,0-.59-.01-1.11-.01-1.57v-1.13h5.91v1.21c0,.47,0,.99,0,1.57,0,.59-.03,1.13-.06,1.6-.03.47-.08.87-.16,1.19-.05.22-.14.33-.14.33l-.61.67h4.27l-.56-.66c-.06-.09-.12-.22-.15-.35-.08-.32-.13-.74-.16-1.22-.03-.47-.05-1.02-.05-1.62v-6.76c0-.61.02-1.14.05-1.62h0Z"/>
      <path class="st0" d="M87.85,112.75s.09.15.13.35c.07.33.12.76.16,1.22.04.48.05,1.01.06,1.63,0,.58,0,1.11,0,1.58v4.66l-7.25-10.04-.06-.07h-2.95l.54.67h.01s.09.16.14.35c.08.33.13.74.16,1.22.03.49.05,1.04.05,1.62v6.76c0,.6-.02,1.13-.05,1.62-.03.49-.08.9-.16,1.22-.05.22-.14.35-.14.35l-.58.67h2.85s-.48-.66-.48-.66c-.02-.03-.09-.15-.14-.35-.07-.33-.12-.74-.16-1.22-.04-.48-.05-1.01-.06-1.63,0-.58,0-1.11,0-1.57v-6.09l8.34,11.53h1.02v-9.03c0-.47,0-1,0-1.58,0-.61.03-1.14.06-1.63.03-.49.08-.9.16-1.22.02-.1.06-.24.14-.36l.49-.65h-2.78s.48.66.48.66h0Z"/>
      <path class="st0" d="M36.37,125.8c-.11-.05-.5-.23-.84-.45-.43-.28-.86-.6-1.28-.95-.44-.37-.88-.78-1.32-1.22-.42-.42-.81-.85-1.17-1.29-.34-.41-.61-.79-.82-1.14-.24-.4-.27-.59-.27-.65,0-.08.05-.17.15-.26.18-.15.41-.3.68-.46.3-.17.62-.36.96-.56.35-.21.7-.46,1.02-.75.33-.29.61-.64.83-1.03.23-.42.34-.9.34-1.45,0-.45-.1-.9-.3-1.34-.2-.43-.52-.81-.95-1.14-.41-.32-.94-.57-1.58-.75-.63-.18-1.38-.27-2.22-.27h-5.99l.55.66h0c.06.09.12.22.15.35.08.33.13.74.16,1.22.03.48.05,1.02.05,1.62l.02,5.25c0,.47,0,.99,0,1.57,0,.59-.03,1.12-.06,1.6-.03.48-.08.88-.16,1.19-.05.22-.14.33-.14.33h0l-.62.68h4.28s-.55-.66-.55-.66h0c-.06-.09-.12-.22-.15-.35-.08-.34-.13-.75-.16-1.22-.03-.49-.05-1.02-.06-1.63,0-.58,0-1.11,0-1.57v-8.05h2.7c.86,0,1.49.24,1.91.73.43.49.65,1.18.65,2.06,0,.63-.13,1.15-.39,1.54-.29.44-.61.82-.95,1.13l-1.02.94c-.4.36-.6.79-.6,1.28,0,.39.1.83.34,1.37.21.48.49.99.84,1.51.35.51.75,1.02,1.19,1.52.46.52.94.97,1.43,1.35l.11.08h5.03l-1.75-.77h0Z"/>
      <path class="st0" d="M49.03,113.91c-.65-.61-1.42-1.07-2.26-1.37-1.69-.59-3.46-.59-5.14,0-.85.29-1.61.76-2.27,1.37-.65.61-1.19,1.37-1.59,2.27-.4.9-.6,1.96-.6,3.16s.2,2.25.6,3.16c.4.9.94,1.66,1.6,2.27.65.6,1.41,1.06,2.26,1.36.85.3,1.72.45,2.57.45s1.73-.15,2.57-.45c.85-.31,1.61-.77,2.26-1.36.66-.61,1.19-1.37,1.59-2.27.4-.91.61-1.97.61-3.16s-.2-2.26-.61-3.16c-.4-.9-.94-1.66-1.59-2.27h0ZM48.67,121.61c-.17.88-.45,1.61-.85,2.2-.39.57-.87,1.02-1.42,1.31-1.04.55-2.13.59-3.25.12-.5-.21-.97-.53-1.42-.97-.44-.43-.84-1-1.17-1.69-.34-.69-.59-1.52-.76-2.47-.2-1.15-.22-2.17-.06-3.05.17-.87.45-1.61.85-2.2.39-.57.87-1.02,1.42-1.32s1.15-.45,1.75-.45c.5,0,1.01.11,1.5.32.5.21.97.54,1.4.97.44.44.84,1.02,1.18,1.7.35.7.61,1.53.77,2.47.2,1.14.22,2.17.06,3.05h0Z"/>
      <path class="st0" d="M102.97,120.08h1.44c.33,0,.58.03.73.09.14.05.24.13.3.21.06.08.1.19.11.33.02.19.03.42.03.67v1.39c0,.44-.08.81-.25,1.16-.18.35-.41.64-.69.87-.3.25-.64.43-1.03.56-.4.14-.82.21-1.25.21-.72,0-1.39-.17-1.98-.52-.61-.35-1.15-.82-1.61-1.4-.46-.58-.84-1.26-1.13-2.01-.29-.76-.48-1.54-.57-2.32-.09-.77-.07-1.55.06-2.31.12-.72.37-1.39.74-1.97.36-.57.85-1.03,1.45-1.36.6-.34,1.36-.52,2.27-.52.69,0,1.39.17,2.09.5.7.33,1.35.83,1.93,1.46l.34.37,1.23-1.93-.36-.2c-.73-.42-1.51-.74-2.31-.95-1.75-.47-3.57-.43-5.24.12-.91.3-1.72.75-2.41,1.35-.7.6-1.26,1.37-1.68,2.28-.42.91-.63,1.98-.63,3.19,0,1.11.2,2.12.6,3,.39.88.93,1.65,1.6,2.28.66.63,1.45,1.11,2.33,1.44.86.33,1.79.49,2.75.49s2-.19,2.99-.56c1-.37,1.96-.97,2.86-1.76l.13-.11v-.18c0-.92,0-1.72.02-2.41.01-.67.07-1.33.19-1.96l.07-.45h-5.14v.95h0Z"/>
      <path class="st0" d="M162.01,114.42c-.37-.68-.99-1.25-1.84-1.69-.84-.43-1.95-.64-3.29-.64h-5.85l.54.67h0s.09.15.14.35c.08.33.13.74.16,1.22.03.49.05,1.04.05,1.62v6.76c0,.6-.02,1.13-.05,1.62-.03.49-.08.9-.16,1.22-.05.22-.14.35-.14.35l-.59.67h4.26l-.58-.67s-.09-.12-.14-.34c-.07-.29-.12-.67-.16-1.19-.03-.47-.05-1.01-.06-1.6v-.16c0-.51-.01-.98-.01-1.41v-8.13h2.58c.72,0,1.33.16,1.81.47.49.32.84.72,1.06,1.2.23.5.33,1.04.31,1.67-.02.62-.19,1.24-.5,1.85-.3.6-.76,1.17-1.36,1.68-.6.52-1.92,1.34-1.93,1.35l-1.71,1.08,1.99-.33c1.23-.21,1.91-.59,2.8-1.14.88-.55,1.59-1.19,2.12-1.91.53-.73.85-1.5.94-2.3.1-.81-.03-1.57-.4-2.26h0Z"/>
      <path class="st0" d="M147.91,112.74h0c.06.09.11.21.15.35.07.34.13.76.15,1.2.03.49.05,1.01.06,1.6,0,.57,0,1.09,0,1.55v4.21c0,.58-.11,1.11-.33,1.56-.22.45-.52.83-.89,1.13-.38.31-.81.55-1.27.71-.91.32-1.9.34-2.79.03-.42-.14-.8-.36-1.13-.65-.33-.3-.6-.68-.79-1.13-.2-.46-.3-1-.3-1.64v-4.29c0-.46,0-.98,0-1.54,0-.58.03-1.11.06-1.57.03-.47.08-.86.15-1.17.05-.23.14-.35.14-.35l.49-.64h-4.02s.47.65.47.65c.02.03.08.14.13.35.07.33.12.73.15,1.2.03.48.05,1,.06,1.6,0,.57,0,1.09,0,1.55v4.21c0,.81.16,1.54.47,2.16.32.62.74,1.14,1.25,1.55.51.41,1.1.72,1.74.92.65.2,1.31.31,1.99.31s1.33-.1,1.98-.31c.64-.2,1.24-.51,1.75-.92.52-.41.95-.93,1.26-1.55.31-.63.47-1.36.45-2.16v-4.21c0-.46,0-.97.01-1.55,0-.6.03-1.12.05-1.6.03-.46.08-.86.16-1.2.05-.23.13-.35.13-.35l.48-.64h-2.79s.54.65.54.65h.01Z"/>
      <path class="st0" d="M134.28,113.91c-.66-.61-1.42-1.07-2.27-1.37-1.68-.59-3.46-.59-5.14,0-.85.29-1.61.75-2.27,1.37-.65.61-1.19,1.37-1.59,2.27-.4.89-.61,1.96-.61,3.16s.2,2.26.61,3.16c.4.9.94,1.67,1.6,2.27.65.6,1.42,1.06,2.26,1.36.85.3,1.72.45,2.57.45s1.73-.15,2.57-.45c.85-.31,1.61-.77,2.26-1.37.66-.6,1.19-1.37,1.59-2.27.4-.91.61-1.97.61-3.16s-.2-2.26-.61-3.17c-.4-.89-.93-1.66-1.59-2.26h0ZM133.9,121.61c-.17.88-.45,1.61-.85,2.19-.39.57-.87,1.02-1.42,1.31-1.01.54-2.13.59-3.25.12-.5-.21-.97-.53-1.42-.97-.44-.43-.84-1-1.17-1.69-.34-.69-.6-1.52-.76-2.47-.2-1.14-.22-2.17-.06-3.05.17-.87.45-1.61.85-2.2.39-.57.87-1.02,1.42-1.32.55-.3,1.15-.45,1.75-.45.5,0,1.01.1,1.5.31.5.21.98.54,1.41.97.44.45.84,1.02,1.18,1.7.34.69.6,1.52.77,2.47.2,1.15.22,2.17.06,3.05h0Z"/>
      <path class="st0" d="M122.12,125.8c-.11-.05-.5-.23-.85-.45-.44-.29-.87-.61-1.27-.95-.45-.38-.9-.79-1.32-1.22-.44-.44-.83-.87-1.17-1.29-.34-.41-.61-.78-.83-1.14-.24-.39-.27-.59-.27-.65,0-.09.05-.17.15-.26.19-.16.41-.31.68-.46.3-.17.63-.36.97-.56.36-.22.71-.47,1.02-.75.33-.29.61-.64.83-1.03.23-.41.34-.9.34-1.45,0-.47-.1-.92-.3-1.34-.2-.43-.52-.81-.95-1.14-.41-.32-.94-.57-1.57-.75-.63-.18-1.38-.27-2.22-.27h-5.98l.53.67h.01s.09.16.14.35c.07.33.12.75.16,1.22.03.49.05,1.04.05,1.62,0,0,.02,6.25,0,6.82,0,.59-.03,1.13-.06,1.6-.03.49-.08.89-.16,1.19-.05.22-.14.33-.14.33l-.61.67h4.27s-.56-.66-.56-.66c-.06-.09-.12-.22-.15-.35-.08-.32-.13-.74-.16-1.22-.03-.48-.05-1.02-.06-1.63,0-.59-.01-1.11-.01-1.57v-8.05h2.7c.86,0,1.49.24,1.91.73.43.49.65,1.18.65,2.06,0,.63-.13,1.15-.39,1.54-.29.43-.61.81-.95,1.13l-1.03.94c-.39.36-.6.79-.6,1.28,0,.39.11.84.34,1.38.2.48.48.98.83,1.51.36.53.76,1.04,1.19,1.52.47.52.95.97,1.44,1.35l.11.08h5.04l-1.77-.77h0Z"/>
    </g>
    <path class="st0" d="M114.97,106.46c-1.28,0-2.6-.29-3.64-.79l-.37-.18.15-.31c1.55.16.84.16,3.37.13,3.43-.04,3.07-2.74,3.07-2.74h-3.28s-4.44.03-4.44-5.27c0-3.72,2.77-5.66,5.51-5.66s4.61,1.85,4.61,4.4v5.17h.48c.93,0,1.94-.66,1.94-2.51v-2.18c0-2.88,2.06-4.88,5.02-4.88,2.47,0,5.1,1.4,5.1,5.35v1.71c0,1.88.65,2.51,2.57,2.51h10.67c-.61-.87-1.02-2.12-1.44-3.44-.8-2.47-1.63-5.02-3.78-5.02-1.71,0-3.64,1.94-4.72,3.74l-.82,1.36.11-4.04c2.03-1.69,4.07-2.18,5.35-2.18,4.56,0,5.62,3.46,6.48,6.23.64,2.07,1.1,3.34,2.32,3.34h1c.93,0,1.94-.66,1.94-2.51v-2.18c0-2.88,2.06-4.88,5.02-4.88,2.46,0,5.1,1.77,5.1,5.68,0,4.17-2.44,5.66-4.72,5.66-1.52,0-3.05-.65-3.95-1.62-.67.77-1.65,1.21-2.73,1.21h-16.4c-1.68,0-2.87-.46-3.55-1.36-.83,1.06-2.06,1.66-3.48,1.66s-2.8-.59-3.64-1.51c-.67.77-1.65,1.21-2.72,1.21h-1.2c0,2.75-1.98,3.89-4.9,3.89h0ZM157.17,92.7c-1.79,0-2.58,1.29-2.65,4.31l-.04,2c0,.56-.16,1.2-.41,1.69.58.41,1.74,1,2.8,1h0c.56,0,1.35-.16,1.97-.94.62-.78.94-1.99.94-3.59,0-2.94-1.31-4.48-2.61-4.48h0ZM127.38,92.7c-1.79,0-2.58,1.29-2.65,4.31l-.04,2c0,.57-.16,1.2-.41,1.69.56.37,1.66.92,2.71.92h0c.57,0,1.39-.16,2.03-.94.64-.77.97-1.97.97-3.54,0-3.05-1.35-4.44-2.61-4.44h0ZM115,92.7c-1.33,0-2.68,1.53-2.68,4.46s1.35,4.05,2.61,4.05h2.68l-.03-4.69c0-2.39-.96-3.82-2.57-3.82h0ZM141.15,106.24c-.74,0-1.34-.61-1.34-1.36s.61-1.34,1.34-1.34,1.34.6,1.34,1.34-.6,1.36-1.34,1.36ZM95.35,102.56c-2.1,0-3.4-1.48-3.48-3.97v-5.44c-4.11,0-4.83,2.89-4.83,4.52,0,1.42.65,3.09,3.13,3.09h.42v.64h-1.07c-3.65,0-4.41-1.97-4.41-3.67,0-2.42,1.92-5.83,7.19-5.85h1.79v6.81c0,1.85,1,2.51,1.94,2.51h4.3c-1.08-1-1.67-2.45-1.67-4.15,0-3.54,2.71-5.44,5.25-5.44,3.07,0,4.53,1.29,4.53,1.29l-.73,2.1-.38-.51c-.67-.9-2.03-1.88-3.42-1.88-1.81,0-2.84,1.44-2.84,3.94,0,2.25,1.31,4.65,3.73,4.65h2.32c1.49,0,1.51-.02,1.82-.12.3-.1.72-.46.72-.46l-.29,1.94h-13.98,0ZM92.54,90.95c-.74,0-1.34-.61-1.34-1.36s.61-1.34,1.34-1.34,1.34.6,1.34,1.34-.6,1.36-1.34,1.36ZM88.5,90.95c-.74,0-1.34-.61-1.34-1.36s.61-1.34,1.34-1.34,1.34.6,1.34,1.34-.6,1.36-1.34,1.36h0Z"/>
    <g>
      <path class="st0" d="M76.6,91.89c.09.13.17.26.26.4.11.18.25.35.32.55.03.1.05.2.07.3.05.25.08.5.1.76.04.38.05.75.06,1.13v7.28c0,2.21-.51,3.07-1.82,3.07-.43,0-2.06-.28-2.06-.28l-.36.71.41.18c.81.35,1.64.53,2.4.53,2.4,0,3.83-1.57,3.83-4.21v-6.07c0-.74,0-1.47.01-2.21,0-.41-.03-.84.1-1.23.1-.3.27-.59.42-.91h-3.74Z"/>
      <path class="st0" d="M72.66,101.24v-5.17c0-2.55-1.94-4.4-4.61-4.4s-5.51,1.94-5.51,5.66c0,5.3,4.44,5.27,4.44,5.27h3.28s.36,2.7-3.07,2.74c-2.52.03-1.82.02-3.37-.13l-.15.31.37.18c1.04.5,2.36.79,3.64.79,2.92,0,4.9-1.14,4.9-3.89l.07-1.35h0ZM67.65,101.24c-1.26,0-2.61-1.06-2.61-4.05s1.35-4.46,2.68-4.46c1.61,0,2.57,1.43,2.57,3.82l.03,4.69h-2.68Z"/>
      <g>
        <path class="st0" d="M49.71,90.95c.74,0,1.34-.61,1.34-1.36s-.6-1.34-1.34-1.34-1.34.61-1.34,1.34.6,1.36,1.34,1.36Z"/>
        <path class="st0" d="M52.41,89.59c0,.75.6,1.36,1.34,1.36s1.34-.61,1.34-1.36-.6-1.34-1.34-1.34-1.34.61-1.34,1.34Z"/>
        <path class="st0" d="M51.72,87.94c.74,0,1.34-.61,1.34-1.36s-.6-1.34-1.34-1.34-1.34.61-1.34,1.34.6,1.36,1.34,1.36Z"/>
        <path class="st0" d="M30.82,92.54c.74,0,1.34-.61,1.34-1.36s-.6-1.34-1.34-1.34-1.34.61-1.34,1.34.6,1.36,1.34,1.36Z"/>
        <path class="st0" d="M57.19,92.77c.08.18.12.37.16.56.09.56.12,1.12.13,1.69v3.99c0,1.85-1,2.52-1.93,2.52-1.22,0-2.54-1.11-2.59-3.15v-1.25c0-.71,0-1.42.05-2.12.02-.38.04-.76.14-1.13.09-.32.28-.61.43-.91h-3.79c.06,0,.31.47.35.54.3.45.34.99.38,1.52.06.69.07,1.38.07,2.23v1.75c0,1.85-1,2.52-1.93,2.52-1.22,0-2.54-1.11-2.59-3.62,0-1.07-.04-2.19.14-3.37.07-.27.25-.53.38-.78h-3.71c.12.2.25.39.38.59.29.45.32,1.01.36,1.53.04.5.06,1,.07,1.49,0,.23,0,.45,0,.68v.86c0,2.05-1.67,2.98-3.21,2.98s-3.03-.81-3.19-2.57v-1.21c0-.93,0-1.86.08-2.79.03-.36.03-.68.19-1,.09-.18.19-.37.28-.55h-3.75c.14.21.28.42.41.63.43.68.38,1.72.4,2.5v3.57c0,3.27-1.53,4.86-4.69,4.86s-5.54-2.06-5.54-4.9c0-4.32,4.28-4.32,4.28-4.32l-1.83-2.05c-2.21,1.06-3.59,3.43-3.59,6.17,0,3.7,2.79,6.29,6.79,6.29s6.31-1.71,6.84-4.93c.94,1.04,2.54,1.52,4,1.52,1.77,0,3.72-.72,4.52-2.26.82,1.39,2.34,2.03,3.62,2.03s2.67-.63,3.3-1.99c.83,1.36,2.33,1.99,3.6,1.99,1.76,0,3.65-1.17,3.65-3.75l.02-.43v-2.46c0-.71,0-1.41.04-2.12.02-.43,0-.94.12-1.35.08-.3.26-.59.39-.87h-3.74s.22.36.25.41c.08.13.16.27.25.47h0Z"/>
      </g>
    </g>
  </g>
</svg>